<?xml version="1.0" encoding="UTF-8"?>
<svg id="Layer_2" xmlns="http://www.w3.org/2000/svg" version="1.1" viewBox="0 0 216.8 216.8">
  <!-- Generator: Adobe Illustrator 29.6.0, SVG Export Plug-In . SVG Version: 2.1.1 Build 207)  -->
  <defs>
    <style>
      .st0 {
        fill: #090a0e;
      }

      .st1 {
        fill: #fff;
      }
    </style>
  </defs>
  <g id="Layer_1-2">
    <g>
      <path class="st1" d="M108.4,0h0c59.9,0,108.4,48.5,108.4,108.4h0c0,59.9-48.5,108.4-108.4,108.4h0C48.5,216.8,0,168.2,0,108.4h0C0,48.5,48.5,0,108.4,0Z"/>
      <g>
        <path class="st0" d="M97,104.2c2.9-1.5,5.1-3.1,6.6-4.8,2.7-3.2,4-7.4,4-12.6s-1.3-9.4-4-13c-4.4-5.9-11.9-8.9-22.4-9.1h-41.8v85.4h39c4.4,0,8.5-.4,12.2-1.1,3.8-.8,7-2.2,9.8-4.3,2.4-1.8,4.5-4.1,6.1-6.7,2.6-4,3.9-8.6,3.9-13.6s-1.1-9.1-3.4-12.5c-2.3-3.4-5.6-5.9-10-7.5h0ZM56.6,79.5h18.8c4.1,0,7.6.4,10.2,1.3,3.1,1.3,4.7,3.9,4.7,7.9s-1.2,6.1-3.5,7.5c-2.3,1.4-5.4,2.1-9.2,2.1h-21s0-18.8,0-18.8ZM86.4,133.7c-2.1,1-5,1.5-8.8,1.5h-21v-22.8h21.3c3.7,0,6.6.5,8.7,1.4,3.7,1.7,5.5,4.7,5.5,9.2s-1.9,8.8-5.7,10.7h0Z"/>
        <rect class="st0" x="128.9" y="68.6" width="37.1" height="10.6"/>
        <path class="st0" d="M178.8,110.5c-.8-4.9-2.5-9.3-5.1-13.1-2.9-4.2-6.6-7.4-11-9.3-4.4-2-9.5-3-15.1-3-9.4,0-17,2.9-22.9,8.8-5.9,5.8-8.8,14.2-8.8,25.2s3.2,20.1,9.8,25.3c6.5,5.2,14,7.8,22.5,7.8s18.3-3.1,24.1-9.2c3.7-3.9,5.7-7.7,6.2-11.4h-17.1c-1,1.9-2.1,3.3-3.4,4.3-2.4,1.9-5.5,2.9-9.3,2.9s-6.7-.8-9.2-2.4c-4.2-2.5-6.4-7-6.7-13.3h46.6c0-5.4-.1-9.6-.6-12.5h0ZM133.2,112.2c.6-4.1,2.1-7.4,4.5-9.8,2.4-2.4,5.7-3.6,10-3.6s7.2,1.1,9.9,3.4c2.6,2.3,4.1,5.6,4.4,10h-28.8,0Z"/>
      </g>
    </g>
  </g>
</svg>