<?xml version="1.0" encoding="UTF-8"?>
<svg id="Layer_2" xmlns="http://www.w3.org/2000/svg" version="1.1" viewBox="0 0 216.8 216.8">
  <!-- Generator: Adobe Illustrator 29.6.0, SVG Export Plug-In . SVG Version: 2.1.1 Build 207)  -->
  <defs>
    <style>
      .st0 {
        fill: #090a0e;
      }

      .st1 {
        fill: #fff;
      }
    </style>
  </defs>
  <g id="Layer_1-2">
    <g>
      <path class="st1" d="M108.4,0h0c59.9,0,108.4,48.5,108.4,108.4h0c0,59.9-48.5,108.4-108.4,108.4h0C48.5,216.8,0,168.2,0,108.4h0C0,48.5,48.5,0,108.4,0Z"/>
      <g>
        <path class="st0" d="M168.1,83.7c-.3-6.4-1.3-10.8-2.8-14.6-1.5-4-3.9-7.6-6.9-10.6-3-3-6.6-5.4-10.6-6.9-3.8-1.5-8.2-2.5-14.6-2.8-6.4-.3-8.5-.4-24.8-.4s-18.3,0-24.7.3c-6.4.3-10.8,1.3-14.6,2.8-4,1.5-7.6,3.9-10.6,6.9-3,3-5.4,6.6-6.9,10.6-1.5,3.8-2.5,8.2-2.8,14.6-.3,6.4-.4,8.5-.4,24.8s0,18.3.3,24.7c.3,6.4,1.3,10.8,2.8,14.6,1.5,4,3.9,7.6,6.9,10.6,3,3.1,6.6,5.4,10.6,6.9,3.8,1.5,8.2,2.5,14.6,2.8,6.4.3,8.4.4,24.7.4s18.3,0,24.7-.4c6.4-.3,10.8-1.3,14.6-2.8,8.1-3.1,14.4-9.5,17.6-17.6,1.5-3.8,2.5-8.2,2.8-14.6.3-6.4.4-8.4.4-24.7s0-18.3-.3-24.7h0ZM157.3,132.7c-.3,5.9-1.2,9-2.1,11.1-2,5.2-6.2,9.4-11.4,11.4-2.1.8-5.3,1.8-11.1,2.1-6.3.3-8.2.4-24.2.4s-17.9,0-24.2-.4c-5.9-.3-9-1.2-11.1-2.1-2.6-1-5-2.5-6.9-4.5-2-1.9-3.5-4.3-4.5-6.9-.8-2.1-1.8-5.3-2.1-11.1-.3-6.3-.3-8.2-.3-24.2s0-17.9.3-24.2c.3-5.9,1.2-9,2.1-11.1,1-2.6,2.5-5,4.5-6.9,1.9-2,4.3-3.5,6.9-4.5,2.1-.8,5.3-1.8,11.1-2.1,6.3-.3,8.2-.3,24.2-.3s17.9,0,24.2.3c5.9.3,9,1.2,11.1,2.1,2.6,1,5,2.5,6.9,4.5,2,1.9,3.5,4.3,4.5,6.9.8,2.1,1.8,5.3,2.1,11.1.3,6.3.4,8.2.4,24.2s0,17.9-.4,24.2Z"/>
        <path class="st0" d="M108.4,77.6c-17,0-30.8,13.8-30.8,30.8s13.8,30.8,30.8,30.8,30.8-13.8,30.8-30.8-13.8-30.8-30.8-30.8ZM108.4,128.4c-11,0-20-8.9-20-20s9-20,20-20,20,8.9,20,20-8.9,20-20,20Z"/>
        <path class="st0" d="M147.6,76.3c0,4-3.2,7.2-7.2,7.2s-7.2-3.2-7.2-7.2,3.2-7.2,7.2-7.2,7.2,3.2,7.2,7.2Z"/>
      </g>
    </g>
  </g>
</svg>