<?xml version="1.0" encoding="UTF-8"?>
<svg id="Layer_2" xmlns="http://www.w3.org/2000/svg" version="1.1" viewBox="0 0 216.8 216.8">
  <!-- Generator: Adobe Illustrator 29.6.0, SVG Export Plug-In . SVG Version: 2.1.1 Build 207)  -->
  <defs>
    <style>
      .st0 {
        fill: #090a0e;
      }

      .st1 {
        fill: #fff;
      }
    </style>
  </defs>
  <g id="Layer_1-2">
    <g>
      <path class="st1" d="M108.4,0h0c59.9,0,108.4,48.5,108.4,108.4h0c0,59.9-48.5,108.4-108.4,108.4h0C48.5,216.8,0,168.2,0,108.4h0C0,48.5,48.5,0,108.4,0Z"/>
      <path class="st0" d="M94.2,125.9l-2.2,30.7c3.1,0,4.5-1.3,6.1-2.9l14.7-14,30.4,22.2c5.6,3.1,9.5,1.5,11-5.1l19.9-93.3h0c1.8-8.2-3-11.5-8.4-9.4l-117.1,44.8c-8,3.1-7.9,7.6-1.4,9.6l29.9,9.3,69.5-43.5c3.3-2.2,6.2-1,3.8,1.2l-56.2,50.5h0Z"/>
    </g>
  </g>
</svg>