<?xml version="1.0" encoding="UTF-8"?>
<svg id="Layer_2" xmlns="http://www.w3.org/2000/svg" version="1.1" viewBox="0 0 216.8 216.8">
  <!-- Generator: Adobe Illustrator 29.6.0, SVG Export Plug-In . SVG Version: 2.1.1 Build 207)  -->
  <defs>
    <style>
      .st0 {
        fill: #090a0e;
      }

      .st1 {
        fill: #fff;
      }
    </style>
  </defs>
  <g id="Layer_1-2">
    <g>
      <path class="st1" d="M108.4,0h0c59.9,0,108.4,48.5,108.4,108.4h0c0,59.9-48.5,108.4-108.4,108.4h0C48.5,216.8,0,168.2,0,108.4h0C0,48.5,48.5,0,108.4,0Z"/>
      <path class="st0" d="M119.6,99.2l43.7-50.8h-10.4l-38,44.1-30.3-44.1h-35l45.8,66.7-45.8,53.3h10.4l40.1-46.6,32,46.6h35l-47.5-69.2h0ZM105.4,115.7l-4.6-6.6-37-52.9h15.9l29.8,42.7,4.6,6.6,38.8,55.4h-15.9l-31.6-45.2h0Z"/>
    </g>
  </g>
</svg>