<?xml version="1.0" encoding="UTF-8"?>
<svg id="Layer_2" xmlns="http://www.w3.org/2000/svg" version="1.1" viewBox="0 0 216.8 216.8">
  <!-- Generator: Adobe Illustrator 29.6.0, SVG Export Plug-In . SVG Version: 2.1.1 Build 207)  -->
  <defs>
    <style>
      .st0 {
        fill: #090a0e;
      }

      .st1 {
        fill: #fff;
      }
    </style>
  </defs>
  <g id="Layer_1-2">
    <g>
      <path class="st1" d="M108.4,0h0c59.9,0,108.4,48.5,108.4,108.4h0c0,59.9-48.5,108.4-108.4,108.4h0C48.5,216.8,0,168.2,0,108.4h0C0,48.5,48.5,0,108.4,0Z"/>
      <path class="st0" d="M108.4,43.4h0c-35.8,0-65,29.2-65,65s4.6,27.4,12.4,38.1l-8.1,24.1,25-8c10.3,6.8,22.5,10.7,35.8,10.7,35.8,0,65-29.2,65-65s-29.1-65-65-65h0ZM146.2,135.2c-1.6,4.4-7.8,8.1-12.8,9.2-3.4.7-7.8,1.3-22.8-4.9-19.1-7.9-31.4-27.3-32.4-28.6-.9-1.3-7.7-10.3-7.7-19.6s4.7-13.9,6.7-15.8c1.6-1.6,4.2-2.3,6.7-2.3s1.5,0,2.2,0c1.9,0,2.9.2,4.1,3.2,1.6,3.8,5.4,13.1,5.8,14.1.5,1,.9,2.3.3,3.5-.6,1.3-1.2,1.9-2.1,3s-1.9,1.9-2.8,3.1c-.9,1-1.9,2.1-.8,4.1,1.1,1.9,4.9,8.1,10.6,13.1,7.3,6.5,13.1,8.5,15.2,9.4,1.6.7,3.4.5,4.6-.7,1.4-1.6,3.2-4.2,5.1-6.7,1.3-1.8,2.9-2.1,4.7-1.4,1.8.6,11,5.2,12.9,6.2,1.9,1,3.2,1.4,3.6,2.2.5.8.5,4.6-1.1,9h0Z"/>
    </g>
  </g>
</svg>