<?xml version="1.0" encoding="UTF-8"?>
<svg id="Layer_2" xmlns="http://www.w3.org/2000/svg" version="1.1" viewBox="0 0 386.5 116.1">
  <!-- Generator: Adobe Illustrator 29.6.0, SVG Export Plug-In . SVG Version: 2.1.1 Build 207)  -->
  <defs>
    <style>
      .st0 {
        fill: #fff;
      }
    </style>
  </defs>
  <path class="st0" d="M137.2,61.3c-7.5,0-8.5,7.1-8.5,7.1h16s0-7.1-7.4-7.1Z"/>
  <path class="st0" d="M203.2,78.9c0,4.7,5.8,4.5,5.8,4.5,7.1,0,7.9-5.1,7.9-5.1v-6.1c-1.3,1.4-2.8,1.6-6.1,1.9-8.2,1.2-7.7,4.8-7.7,4.8Z"/>
  <path class="st0" d="M215.2,35.1c.3-.2.5-.5.5-.9,0-.6-.2-1.2-.6-1.5-.4-.4-.9-.6-1.6-.6-1.6,0-2.6,1-2.9,3,1.4.2,2.5.2,3.1.2s1.2,0,1.5-.2Z"/>
  <path class="st0" d="M101,68.4h-14.1v12.3h13.4c2,0,5.8-.6,5.8-6s-5.1-6.3-5.1-6.3Z"/>
  <path class="st0" d="M265,32.7c-1,0-1.9.3-2.5,1-.7.7-1,1.6-1,2.7s.3,1.9,1,2.6c.6.7,1.5,1,2.6,1s1.8-.3,2.5-1c.7-.7,1-1.6,1-2.7s-.3-2-1-2.6c-.7-.7-1.5-1-2.6-1Z"/>
  <path class="st0" d="M104.4,55.8c0-4.8-3.4-4.8-3.4-4.8h-1.8,0s-12.3,0-12.3,0v10.2h13.3c2.3,0,4.3-.7,4.3-5.5Z"/>
  <path class="st0" d="M322.4,61.3c-7.5,0-8.5,7.1-8.5,7.1h16s0-7.1-7.4-7.1Z"/>
  <path class="st0" d="M374.5,0H12C5.4,0,0,5.4,0,12v92c0,6.6,5.4,12,12,12h362.4c6.6,0,12-5.4,12-12V12C386.5,5.4,381.1,0,374.5,0ZM278,29.3c.7,0,1.3.2,1.6.5.3.3.5.8.5,1.5s0,1.3-.1,2.4c0,1.2-.1,2.1-.1,2.7,0,1.3.1,2.2.4,2.8.3.6.8.9,1.6.9s2-.6,2.9-1.7c0-.8,0-1.4,0-1.7,0-3.3-.3-5.5-.9-6.5,1.3-.6,2.4-.9,3.3-.9s1.3.2,1.6.6c.3.4.4,1,.4,1.9s0,1,0,2.3c0,1.3,0,2.5,0,3.5,0,2.5.2,4.1.7,5-1.1.6-2.1.9-3,.9s-1.2-.2-1.5-.5c-.3-.3-.4-.8-.4-1.5v-.3c-1.3,1.8-2.9,2.6-4.8,2.6-3.2,0-4.8-1.8-4.8-5.3s0-1.1,0-2c0-.9,0-1.7,0-2.2,0-2-.2-3.4-.7-4.2,1.1-.5,2.2-.8,3.2-.8ZM238,22.9c.8,0,1.3.2,1.6.5.3.4.4.9.4,1.8l-.2,3.4c-.1,2.3-.2,4.6-.2,7,3.2-3.1,5-5.2,5.3-6.3,2.1.5,3.2,1.2,3.2,2.1s-.4,1.1-1.3,1.9c-.6.5-1.9,1.5-3.8,2.9.9.6,2.1,1.6,3.6,3.1,1.1,1.1,2.1,1.7,2.8,1.8-.3,1.8-1.1,2.7-2.4,2.7s-1.2-.2-1.7-.7c-.3-.2-1-.9-2.1-2.1-1.4-1.5-2.6-2.7-3.7-3.8,0,2.7.2,4.5.7,5.5-1.1.5-2.2.8-3.2.8s-1.3-.2-1.6-.5c-.3-.3-.4-.9-.4-1.8s0-1.7.2-4c.1-2.3.2-4.4.2-6.3,0-3.8-.3-6.2-.8-7.1,1.2-.5,2.3-.8,3.3-.8ZM208.3,31.2c1.4-1.4,3.2-2,5.5-2s3.4.5,4.5,1.4c1.1.9,1.7,2.1,1.7,3.6s-.5,2.1-1.4,2.6c-.8.5-2.3.7-4.3.7s-2.7,0-3.9-.2h0c0,1.1.4,1.9,1.1,2.5.7.6,1.7.8,3,.8s2.7-.3,3.6-1c.6.7.9,1.3.9,1.8s-.4,1.3-1.2,1.7c-.9.4-2.1.6-3.6.6-2.6,0-4.5-.6-5.9-1.9-1.4-1.2-2.1-3-2.1-5.2s.7-4,2.1-5.3ZM173.9,25.6c2.3-1.8,5.2-2.7,8.8-2.7s4,.7,4,2-.4,1.7-1.1,2.9c-1-.5-2.2-.8-3.6-.8-2.1,0-3.7.6-4.9,1.7-1.2,1.2-1.9,2.7-1.9,4.6s.6,3.4,1.8,4.5c1.2,1.1,2.7,1.7,4.6,1.7s2.8-.4,4.2-1.2c.7.9,1.1,1.8,1.1,2.6,0,1.8-1.9,2.7-5.6,2.7s-6.3-.9-8.4-2.8c-2.1-1.8-3.1-4.3-3.1-7.2s1.4-5.9,4.1-8.1ZM126.5,45.6h20v5.7h-20v-5.7ZM58.7,72.7c-.4.2-.7.3-1.2.3-.6,0-1.3-.3-1.8-.8-.2-.3-.5-.5-.6-.8s-.2-.6-.3-.9c0-.4,0-.8,0-1.4s0-1.2.1-2.4h0c0,0-.2.2-.2.2h0s-3.3,3.2-3.3,3.2c-.4.4-.8.7-1,.8-.3.1-.5.2-.8.2-.5,0-.9-.2-1.2-.5-.3-.3-.5-.8-.5-1.3s0-.7.2-1c0-.4.3-.9.6-1.6,0-.2.1-.3.2-.4s0-.2.1-.3h0c-.8.7-1.5,1.5-2.3,2.4-.6.7-1.1,1.2-1.5,1.6-.4.4-.7.6-1,.8-.3.2-.6.3-.8.3-.5,0-.9-.2-1.2-.6-.3-.4-.5-.9-.5-1.6s.4-2.2,1.2-4c.7-1.7,1.2-2.8,1.6-3.3.5-.8,1.2-1.2,1.9-1.2s.8,0,1.1.3c.3.2.4.4.4.8,0,.6-.2,1.4-.7,2.6-.2.4-.4.9-.5,1.5h0c.3-.3.8-.8,1.4-1.5,1.1-1.3,2-2.2,2.5-2.7.7-.7,1.4-1,2-1s.5,0,.8.3c.2.2.4.4.6.7.1.3.2.6.2.9s-.2,1.1-.7,2.5c0,.3-.2.5-.2.7,0,.2-.1.3-.2.4h0s.3-.2.3-.2c0,0,.2-.2.3-.3.1,0,.2-.2.3-.3.2-.2.8-.7,1.6-1.6.6-.6,1-1,1.4-1.2.3-.2.6-.3.9-.3.5,0,.9.2,1.1.5.3.3.4.8.4,1.4s0,1-.2,1.8c-.1.9-.2,1.7-.2,2.2,0,.5,0,.9,0,1.1s0,.4,0,.6c0,.2,0,.5,0,.8,0,.3.1.6.2.9,0,.4.2.7.2,1,0,.3-.3.5-.6.7ZM71.6,61.7c-.2.4-.3,1-.6,1.5-.2.6-.5,1.2-.8,1.8-.3.7-.7,1.4-1,2.1-.7,1.3-1.4,2.5-2.1,3.4-.5.7-1,1.2-1.6,1.8-.5.5-1.1,1-1.7,1.4-.6.4-1.1.7-1.6.9-.5.2-1,.3-1.4.3s-.5-.2-.5-.4,0-.5.2-.8c.1-.3.3-.6.5-.9.2-.3.5-.5.8-.7.4-.3,1-.6,1.8-.9-.5-.8-.8-1.4-1.1-1.8-.2-.4-.5-1-.8-1.7-.7-1.5-1-2.8-1-4s.1-1.7.4-2.2c.2-.5.6-.8,1.2-1,.5-.2.9-.3,1.2-.3.5,0,.9.2,1,.6s.3,1.2.5,2.6c.1,1.5.4,2.9.7,4.4,0,.2.1.5.2.9h0c.2-.4.5-1,.7-1.6,0-.2.4-.8.8-2,.3-.7.5-1.2.6-1.7h0l.2-.5c.2-.8.5-1.3.9-1.7.3-.3.6-.5.9-.6.4-.2.7-.2,1-.2.5,0,.8.2.8.6s0,.5-.2,1ZM116.4,75.2c0,14-15.4,13.6-15.4,13.6h-25.3v-45.9h25.3c7.7,0,13.8,4,13.8,12.2s-7.4,8.7-7.4,8.7h0c9.8,0,9.1,11.4,9.1,11.4ZM153.9,74.5h-25.2c0,8.5,8.5,8,8.5,8,8.1,0,7.8-4.9,7.8-4.9h8.5c0,13.1-16.6,12.2-16.6,12.2-19.9,0-18.7-17.5-18.7-17.5,0,0,0-17.6,18.7-17.6,0,0,0,0,0,0h0s0,0,0,0c19.7,0,16.9,19.9,16.9,19.9ZM190.3,88.8h-9.7v-21.4h-.1v-1.9s0-3.5-6.2-3.5-6.7,4.2-6.7,8.3v18.6h-9.9v-45.9h9.9v17.3c1.3-1.9,4.6-5.6,10.8-5.6,0,0,0,0,0,0h0s0,0,0,0c8.1,0,11.7,5.4,11.9,10.9h0v23.3ZM190,43c-.3-.3-.4-.9-.4-1.8s0-1.6.2-3.9c.1-2.3.2-4.5.2-6.5,0-3.7-.3-6.1-.8-7,1.2-.5,2.3-.8,3.3-.8s1.3.2,1.6.5c.3.4.4,1,.4,1.8s0,.9,0,2c0,1.5-.1,2.8-.2,3.9,1.5-1.3,3-1.9,4.6-1.9s2.8.5,3.6,1.4c.8.9,1.3,2.2,1.3,4s0,1,0,1.9c0,.9,0,1.5,0,2,0,2,.2,3.4.7,4.2-1,.5-2.1.8-3.3.8s-1.3-.2-1.6-.5c-.3-.3-.4-.9-.4-1.7s0-1.1.1-2.1c0-1.1,0-2,0-2.7,0-1.4-.2-2.4-.5-2.9-.3-.6-.9-.9-1.8-.9s-1.6.3-2.7.9c0,.9-.1,2-.1,3.3,0,2.9.2,4.9.7,5.9-1.1.5-2.2.8-3.3.8s-1.3-.2-1.6-.5ZM217.1,88.7v-3.4c-3.4,4.7-11.6,4.6-11.6,4.6-11.9,0-11.6-10.5-11.6-10.5,0-10,13-9.9,18.1-10.2,5.1-.3,5.1-3.8,5.1-3.8,0-5.3-5.6-4.9-5.6-4.9-6.6,0-6.2,5.8-6.2,5.8h-10.4c0-4.4,1.1-11.8,16.7-11.8s14.5,8.2,14.5,8.2v19.7c0,5.5,1.8,6.3,1.8,6.3h-10.8ZM223.5,42c-1.3-1.2-2-2.8-2-4.7s1-4.6,3-6.3c1.5-1.2,3.2-1.8,5.3-1.8s3,.6,3,1.9-.4,1.5-1.1,2.3c-.6-.4-1.3-.5-2-.5-1,0-1.9.4-2.6,1.1-.7.8-1.1,1.7-1.1,2.7s.3,1.8.9,2.5c.6.6,1.4.9,2.4.9s2.1-.3,3-1c.6.8.9,1.5.9,2.1s-.4,1.4-1.1,1.8c-.8.5-1.8.7-3.2.7-2.2,0-4-.6-5.3-1.8ZM263.7,88.8h-9.7v-21.4h-.1v-1.9s0-3.5-6.1-3.5-6.7,4.2-6.7,8.3v18.6h-9.9v-33.7h9.9v5.1c1.3-1.9,4.6-5.6,10.8-5.6,0,0,0,0,0,0h0s0,0,0,0c8.1,0,11.7,5.4,11.9,10.9h0v23.3ZM259.1,41.8c-1.4-1.3-2.2-3.1-2.2-5.2s.8-4,2.3-5.4c1.5-1.4,3.5-2.1,6-2.1s4.1.7,5.5,2c1.4,1.3,2.1,3,2.1,5s-.6,3.5-1.8,4.9c-1.6,1.9-3.7,2.8-6.4,2.8s-4.2-.7-5.6-2ZM285.3,89.9c-15.1,0-17.9-12.7-17.9-17.8s1.8-17.6,18.2-17.6,15.8,12.7,15.8,12.7h-9s.2-5.8-6.9-5.8-8.6,6.6-8.6,10.5,1.8,10.7,8.5,10.7h0c6.7,0,6.4-6.8,6.4-6.8h10.2c0,2.6-1.5,14.1-16.7,14.1ZM301.2,32.9c-.4-.1-.9-.2-1.6-.2h-.5c-.4,0-.8,0-1.2,0-.1,1.9-.2,3.3-.2,4.4,0,2.1.6,3.1,1.7,3.1s.8-.1,1.2-.4c.4.5.6,1.1.6,1.6s-.3,1.2-.9,1.5c-.6.4-1.5.6-2.6.6-2.8,0-4.3-1.5-4.3-4.6s0-1.4.1-2.7c.1-1.5.2-2.6.2-3.4-.4,0-.8,0-1.2,0-1,0-1.4-.4-1.4-1.1s.2-1,.5-1.8c.3,0,.7,0,1.1,0s.6,0,1.2,0v-.8c0-1.3-.2-2.3-.6-3.1,1.1-.5,2.1-.8,3-.8,1.3,0,2,.7,2,2s0,1-.2,2.6c1.7,0,2.6-.1,2.7-.2,0,0,0,0,0,0,0,0,0,0,0,0,.9,0,1.3.4,1.3,1.1s-.3,1.3-.8,2ZM339.1,74.5h-25.2c0,8.5,8.5,8,8.5,8,8.1,0,7.8-4.9,7.8-4.9h8.5c0,13.1-16.6,12.2-16.6,12.2-20,0-18.7-17.5-18.7-17.5,0,0,0-17.6,18.7-17.6s16.9,19.9,16.9,19.9Z"/>
</svg>