<?xml version="1.0" encoding="UTF-8"?>
<svg id="Layer_2" data-name="Layer 2" xmlns="http://www.w3.org/2000/svg" viewBox="0 0 1440 1440">
  <defs>
    <style>
      .cls-1 {
        fill: #fff;
      }

      .cls-2 {
        fill: #090a0f;
      }

      .cls-3 {
        fill: #171717;
      }

      .cls-4 {
        fill: #f6dac4;
      }

      .cls-5 {
        fill: #fefefe;
      }
    </style>
  </defs>
  <g id="Layer_1-2" data-name="Layer 1">
    <g>
      <rect class="cls-2" x="0" y="0" width="1440" height="1440" rx="720" ry="720"/>
      <g>
        <circle class="cls-1" cx="720" cy="720" r="87.13"/>
        <g>
          <g>
            <rect class="cls-1" x="850.84" y="460.68" width="120.97" height="483.88"/>
            <rect class="cls-1" x="954.35" y="356.86" width="120.97" height="483.88" transform="translate(-11.16 1178.27) rotate(-60)"/>
            <rect class="cls-1" x="652.23" y="815.48" width="483.88" height="120.97" transform="translate(-318.19 564.44) rotate(-30)"/>
          </g>
          <g>
            <rect class="cls-1" x="468.19" y="495.44" width="120.97" height="483.88"/>
            <rect class="cls-1" x="364.68" y="599.26" width="120.97" height="483.88" transform="translate(-515.92 788.81) rotate(-60)"/>
            <rect class="cls-1" x="303.89" y="503.55" width="483.88" height="120.97" transform="translate(-208.89 348.48) rotate(-30)"/>
          </g>
        </g>
      </g>
      <g id="Layer_2-2" data-name="Layer 2">
        <g id="uuid-d9cf9873-c0df-48ad-9d04-9adb22f14204" data-name="Layer 1-2">
          <path class="cls-4" d="M528.34,584.27c-2.15,4.3-3.87,9.02-6.87,16.75.19-.13.39-.26.58-.38,2.91-7.49,4.61-11.73,6.71-16.37,9.12-20.94,12.13-25.94,26.99-26.92-15.26.93-18.25,5.88-27.41,26.92ZM594.88,579.98c-10.93.56-21.78,1.54-32.5,3.85,10.83-2.31,21.8-3.29,32.93-3.85,1.29-.05,2.57-.1,3.86-.15-1.43.04-2.86.09-4.29.15ZM612.11,651c19.14-.41,38.06-3.01,56.22-13.35-18.16,10.23-37.07,12.84-56.22,13.35ZM561.39,650.82c.07,0,.15-.01.22-.01,16.66-32.67,79.35-38.1,110.55-15.45-31.34-23.18-94.88-17.6-110.77,15.46ZM595.54,554.11c19.68-2.74,39.35,2.5,59.02.54-19.67,1.57-39.36-3.35-59.02-.54ZM656.27,579.12c-.14.01-.29.01-.43.02.29-.01.57-.01.86-.02h-.43ZM669.15,569.67c-.84-4.78-3.16-10.11-7.08-12.98,3.87,2.88,6.1,8.21,6.66,12.98,1.21,7.69-5.96,9.28-11.46,9.44,5.56-.08,13.13-1.55,11.88-9.44ZM810.83,531.89s-.02,0-.03,0c-4.26.96-6.93,5.18-5.98,9.44v-1.72c.19-4.32,3.75-7.73,8.07-7.73h-2.06ZM818.37,531c17.61-3.44,33.74-11.96,51.28-15.85-17.54,3.51-33.67,12.33-51.28,15.85ZM890.09,511.89c10.91.07,18.09,4.49,21.64,14.04-3.54-9.63-10.76-14.04-21.64-14.04ZM912.39,527.93c.28.96.54,1.96.76,3.01-.22-1.05-.47-2.05-.76-3.01Z"/>
          <path class="cls-4" d="M992.87,676.58c-16.2-9.86-23.73-24.34-27.82-41.56-.27-1.15-.53-2.31-.77-3.48-.55-2.67-1.03-5.41-1.46-8.2-7.71-50.87-18.9-101.14-33.49-150.48-4.84-17.27-16.67-31.74-32.63-39.93-54.53-29.83-111.2-50.23-173.45-53.88-85.01-4.72-153.99,26.33-206.94,93.17-9.87,12.45-12.02,28.33-15.45,43.36-14.17,63.54-13.74,127.08-5.58,191.05,2.57,20.18,5.15,39.93,7.72,59.68,2.66,16.46,3.38,33.17,2.15,49.8-.86,12.45,4.29,20.61,15.03,23.61,9.87,3.01,12.02,10.31,14.59,18.46,5.59,18.89,10.74,37.78,18.04,56.25,8.58,21.46,21.89,42.07,16.31,66.97-2.57,12.88-1.72,26.62-2.15,39.5.32,8.14-5.02,15.43-12.88,17.6-31.77,11.59-45.93,37.35-38.63,69.12,14.59,65.26,53.23,112.06,111.19,143.4,37.78,20.61,78.57,25.33,121.07,24.47,30.38-.47,60.34-7.19,88.01-19.75,70.84-32.63,109.48-91.02,126.66-164.86,4.72-21.47-.43-42.07-21.9-54.95-2.79-1.33-4.49-4.22-4.29-7.3.43-14.17-2.58-28.77-2.58-42.94-.41-14.37-1.71-28.71-3.86-42.93-1.75-11.71.05-23.67,5.15-34.35,9.44-19.74,18.46-39.92,26.19-60.53,9.01-23.18,18.46-46.8,12.45-73.84,6.44,3.43,5.58,11.59,14.6,10.73,6.01-36.07,14.16-71.49,4.72-108.19ZM555.61,585.46c-.71.19-1.43.39-2.14.6-10.66,3.11-21.19,7.79-31.57,14.96.05-.13.1-.25.15-.38-.19.12-.39.25-.58.38,3-7.73,4.72-12.45,6.87-16.75,9.16-21.04,12.15-25.99,27.41-26.92.99-.07,2.04-.11,3.14-.14,3.39-.09,7.33-.06,11.95.01,6.5.14,13-.58,19.32-2.14,1.19-.26,2.37-.49,3.56-.69.61-.1,1.21-.2,1.82-.28,19.66-2.81,39.35,2.11,59.02.54,2.96-.3,5.46.53,7.51,2.04,3.92,2.87,6.24,8.2,7.08,12.98,1.25,7.89-6.32,9.36-11.88,9.44-.19.01-.38.01-.57.01-.29.01-.57.01-.86.02-18.73.76-37.11.12-55.79.66-.29.01-.59.02-.88.03-1.29.05-2.57.1-3.86.15-11.13.56-22.1,1.54-32.93,3.85-.73.15-1.45.31-2.17.48-1.54.36-3.07.74-4.6,1.15ZM670.09,636.63c-.58.35-1.17.69-1.76,1.02-18.16,10.34-37.08,12.94-56.22,13.35h-.23c-2.86.08-5.73.11-8.61.11-13.95,0-27.97-.66-41.88.14.07-.15.15-.29.22-.44-.07,0-.15.01-.22.01,15.89-33.06,79.43-38.64,110.77-15.46-.69.44-1.38.86-2.07,1.27ZM792.8,614.75c.35-.41.7-.82,1.06-1.22,19.07-21.05,68.64-27.03,100.31-8.94.42.24.83.48,1.24.72-18.46,14.6-77.28,23.18-102.61,9.44ZM914.3,545.2c-.47-.42-.94-.83-1.42-1.22-.71-.59-1.43-1.14-2.14-1.66-.7-.49-1.4-.96-2.09-1.4-.01-.01-.03-.02-.04-.03-.46-.27-.92-.54-1.37-.8,0-.02-.03-.02-.05-.03-.64-.36-1.29-.68-1.93-.99h-.01c-13.58-6.4-26.89-.92-39.89,3.13-1.56.48-3.11.97-4.65,1.45-10.81,3.38-21.38,6.76-32.27,10.14-4.75,1.35-9.73,1.64-14.6.86-6.87-1.72-8.59-6.44-9.02-12.88v-.43c-.95-4.26,1.72-8.48,5.98-9.44.01,0,.02,0,.03,0h2.15c1.23-.16,2.46-.35,3.68-.57.57-.1,1.14-.21,1.71-.32,17.61-3.52,33.74-12.34,51.28-15.85,3.87-.86,7.73-1.72,12.02-2.58,2.66-.41,5.16-.64,7.49-.67.26,0,.51,0,.76,0h.17c10.88,0,18.1,4.41,21.64,14.04.24.65.46,1.31.66,2,.29.96.54,1.96.76,3.01.86,4.06,1.24,8.8,1.15,14.26Z"/>
          <path class="cls-3" d="M1061.56,522.23c-1.75,9.34-4.64,18.42-8.59,27.05-6.87,15.46-12.88,30.91-11.16,48.09.24,3.76-.2,7.54-1.29,11.16-8.84,26.88-25.41,50.55-47.65,68.05-16.19-10.21-23.73-24.45-27.82-41.56-.27-1.15-.53-2.31-.77-3.48-.55-2.67-1.03-5.41-1.46-8.2-7.71-50.87-18.9-101.14-33.49-150.48-4.84-17.27-16.67-31.74-32.63-39.93-54.53-29.83-111.2-50.23-173.45-53.88-85.01-4.72-153.99,26.33-206.94,93.17-9.87,12.45-12.02,28.33-15.45,43.36-14.6,63.54-13.74,127.08-5.58,191.48,2.57,19.75,5.15,39.93,7.72,59.68-4.72,0-9.01.43-13.73.43-16.32,0-25.33-7.3-29.2-22.76-2.57-9.87-1.72-19.75-2.57-29.62-.43-9.02-3.01-16.75-12.03-21.9-9.01-5.15-12.45-14.17-15.02-23.18-7.13-26.46-17.06-52.07-29.63-76.42-6.03-10.85-7.72-23.59-4.72-35.64,4.3-19.32.86-37.78-4.72-55.81-4.29-13.74-9.02-27.48-12.88-41.21-2.15-7.3-.86-12.88,9.44-13.31,17.61-.43,22.33-7.3,15.03-24.48-10.2-25.15-13.46-52.58-9.44-79.42.83-5.54,2.12-11,3.86-16.32.86-3,2.58-6.44,5.58-6.44,17.6-.85,26.62-14.59,36.92-25.76,7.43-8.11,13.91-17.04,19.32-26.61,5.49-7.96,7.65-17.74,6.01-27.27-2.14-15.88,4.73-30.48,15.46-42.5,3.43-3.86,8.16-6.87,13.31-3.86,8.59,4.29,15.45.43,21.89-4.3,11.17-8.58,21.04-18.46,32.2-27.04,12.03-9.45,15.89-8.59,22.76,4.29,3.43,6.44,7.73,7.3,12.88,3,5.15-4.29,10.73-9.87,15.88-14.59,6.01-5.16,9.88-3.44,12.02,4.29,1.72,6.44.43,13.74,4.73,19.75.81.95,1.84,1.69,3,2.15,8.59-3.44,12.45-11.6,18.46-18.04,6.01-6.44,10.74-9.87,20.61-7.72,16.28,2.55,32.94.47,48.09-6.01,8.58-3.44,14.59-8.59,9.87-18.9,4.26-2.18,9.24-2.5,13.74-.85,19.9,4.77,39,12.43,56.67,22.75,6.87,3.86,10.3,7.73,8.16,17.17-4.3,16.75-1.29,20.61,16.31,22.33,15.03,1.72,29.63,5.58,45.08,5.58,13.31,0,15.46-2.15,15.89-15.03,0-7.72,5.15-8.15,10.73-8.15,37.35,0,74.27,40.78,70.41,77.7l-1.29,7.73c-2.14,17.61-1.29,19.32,16.75,19.32,10.73,0,15.88,6.44,19.32,15.03,6.01,14.17,7.29,29.19,9.01,44.22,1.72,15.89,1.72,32.63,9.02,48.08,8.58-4.29,8.15-13.73,12.88-20.6,0,12.45.86,23.61,0,34.77-3.44,33.49,3.43,62.26,30.91,84.58,10.73,9.02,14.17,21.9,11.59,36.06Z"/>
          <path class="cls-3" d="M657.27,579.11c-.19.01-.38.01-.57.01-.29.01-.57.01-.86.02-18.72.37-37.1.05-55.79.66-.29.01-.59.02-.88.03-1.29.05-2.57.1-3.86.15-11.13.56-22.1,1.54-32.93,3.85-.73.15-1.45.31-2.17.48-1.54.36-3.07.74-4.6,1.15-.71.19-1.43.39-2.14.6-10.58,3.05-21.04,7.62-31.42,14.58-.19.12-.39.25-.58.38,3-7.73,4.72-12.45,6.87-16.75,9.16-21.04,12.15-25.99,27.41-26.92.99-.07,2.04-.11,3.14-.14,3.39-.09,7.33-.06,11.95.01,6.5.14,13-.58,19.32-2.14,1.19-.26,2.37-.49,3.56-.69.61-.1,1.21-.2,1.82-.28,19.66-2.81,39.35,2.11,59.02.54,2.96-.3,5.46.53,7.51,2.04,3.92,2.87,6.24,8.2,7.08,12.98,1.25,7.89-6.32,9.36-11.88,9.44Z"/>
          <path class="cls-3" d="M914.3,545.2c-.47-.42-.94-.83-1.42-1.22-.71-.59-1.43-1.14-2.14-1.66-.7-.5-1.39-.97-2.09-1.4-.01-.01-.03-.02-.04-.03-.46-.28-.91-.55-1.37-.8,0-.02-.03-.02-.05-.03-.65-.36-1.29-.69-1.93-.99h-.01c-13.59-6.46-26.89-1.09-39.89,3.13-1.56.48-3.11.97-4.65,1.45-10.81,3.37-21.38,6.71-32.27,9.71-4.75,1.35-9.73,1.65-14.6.86-6.87-1.29-8.59-6.44-9.02-12.88-.95-4.26,1.72-8.48,5.98-9.44.01,0,.02,0,.03,0h2.15c1.23-.16,2.46-.35,3.68-.57.57-.1,1.14-.21,1.71-.32,17.61-3.52,33.74-12.34,51.28-15.85l12.45-2.58c2.5-.39,4.85-.62,7.06-.67.26,0,.51,0,.76,0h.17c10.88,0,18.1,4.41,21.64,14.04.24.65.46,1.31.66,2,.29.96.54,1.96.76,3.01.86,4.06,1.24,8.8,1.15,14.26Z"/>
          <path class="cls-5" d="M672.16,635.36c-.69.44-1.38.86-2.07,1.27-.58.35-1.17.69-1.76,1.02-18.16,10.34-37.08,12.94-56.22,13.35h-.23c-16.7.35-33.57-.94-50.27-.19-.07,0-.15.01-.22.01,15.89-33.06,79.43-38.64,110.77-15.46Z"/>
          <path class="cls-5" d="M895.41,605.31c-18.46,14.17-77.28,22.75-102.61,9.44.35-.41.7-.82,1.06-1.22,19.09-20.63,68.64-26.6,100.31-8.94.42.24.83.48,1.24.72Z"/>
        </g>
      </g>
    </g>
  </g>
</svg>