<?xml version="1.0" encoding="UTF-8"?>
<svg id="Layer_2" data-name="Layer 2" xmlns="http://www.w3.org/2000/svg" viewBox="0 0 46.55 45.19">
  <defs>
    <style>
      .cls-1 {
        fill: #1e1c57;
      }

      .cls-2 {
        fill: #9594c8;
      }
    </style>
  </defs>
  <g id="Layer_1-2" data-name="Layer 1">
    <g id="vlpa">
      <g id="vlpb">
        <g id="vlpc">
          <g id="vlpd">
            <path class="cls-1" d="M8.24,0h30.07c4.56,0,8.24,3.67,8.24,8.21v28.78c0,4.54-3.69,8.21-8.24,8.21H8.24c-4.56,0-8.24-3.67-8.24-8.21V8.21C0,3.67,3.69,0,8.24,0Z"/>
          </g>
        </g>
      </g>
      <g id="vlpe">
        <g id="vlpf">
          <path class="cls-2" d="M18.7,27.04h-7.22l-1.47,4.56c-.04.17-.19.29-.37.27h-3.65c-.21,0-.27-.12-.21-.35l6.25-17.83c.06-.19.12-.37.19-.6.08-.41.12-.83.12-1.26-.02-.1.06-.19.16-.21h5.02c.14,0,.23.06.25.15l7.08,19.7c.06.21,0,.31-.19.31h-4.05c-.14.02-.27-.08-.31-.21l-1.59-4.64v.1ZM12.61,23.19h4.93c-.12-.41-.27-.89-.45-1.39-.17-.52-.35-1.08-.52-1.66-.19-.6-.37-1.18-.56-1.78s-.37-1.16-.52-1.72c-.16-.54-.29-1.04-.43-1.51h-.04c-.17.83-.39,1.66-.66,2.49-.29.93-.58,1.89-.89,2.86-.25.98-.56,1.89-.85,2.7Z"/>
          <path class="cls-2" d="M36.27,25.3h-6.15c.08.6.27,1.2.6,1.72.35.52.83.93,1.42,1.16.78.33,1.63.5,2.48.48.68-.02,1.36-.08,2.02-.21.6-.08,1.18-.23,1.73-.44.1-.08.16-.04.16.15v2.95c0,.08-.02.15-.04.23-.04.06-.08.1-.14.14-.62.27-1.26.46-1.94.58-.91.17-1.82.25-2.75.23-1.47,0-2.72-.23-3.72-.68-.95-.41-1.78-1.04-2.44-1.83-.62-.75-1.07-1.6-1.34-2.53-.27-.91-.41-1.85-.41-2.82,0-1.04.16-2.07.48-3.07.31-.97.8-1.85,1.45-2.65.64-.77,1.44-1.39,2.35-1.83.91-.44,2-.6,3.24-.6,1.03-.02,2.06.17,3.01.6.8.35,1.49.87,2.04,1.55.5.66.91,1.39,1.16,2.2.25.77.37,1.56.37,2.36,0,.46-.02.87-.04,1.24-.04.37-.06.64-.08.81-.02.14-.14.25-.27.25-.12,0-.33.02-.64.04-.31.04-.68.06-1.13.06s-.91-.08-1.42-.08h0ZM30.12,22.48h4.09c.5,0,.87,0,1.11-.02.16-.02.31-.06.45-.15v-.19c0-.25-.04-.48-.12-.71-.35-1.08-1.38-1.82-2.52-1.78-1.07-.06-2.08.5-2.58,1.47-.23.44-.37.91-.43,1.39Z"/>
        </g>
      </g>
    </g>
  </g>
</svg>