<?xml version="1.0" encoding="UTF-8"?>
<svg id="Layer_2" data-name="Layer 2" xmlns="http://www.w3.org/2000/svg" viewBox="0 0 32.98 26.29">
  <defs>
    <style>
      .cls-1 {
        fill: #597cbc;
      }

      .cls-2 {
        fill: #5784c4;
      }

      .cls-3 {
        fill: #c3912c;
      }

      .cls-4 {
        fill: #13804c;
      }

      .cls-5 {
        fill: #01844e;
      }

      .cls-6 {
        fill: #5581c2;
      }

      .cls-7 {
        fill: #09aa4b;
      }

      .cls-8 {
        fill: #e84435;
      }

      .cls-9 {
        fill: #faf4f3;
      }

      .cls-10 {
        fill: #cb952b;
      }

      .cls-11 {
        fill: #4a74b8;
      }

      .cls-12 {
        fill: #c1cee9;
      }

      .cls-13 {
        fill: #5880c0;
      }

      .cls-14 {
        fill: #5f80c0;
      }

      .cls-15 {
        fill: #f1b01c;
      }

      .cls-16 {
        fill: #335fab;
      }

      .cls-17 {
        fill: #229c5e;
      }

      .cls-18 {
        fill: #fcb713;
      }

      .cls-19 {
        fill: #567ebe;
      }

      .cls-20 {
        fill: #e7ad22;
      }

      .cls-21 {
        fill: #119853;
      }

      .cls-22 {
        fill: #edb81d;
      }

      .cls-23 {
        fill: #4d76b9;
      }

      .cls-24 {
        fill: #5280c0;
      }

      .cls-25 {
        fill: #5783c2;
      }

      .cls-26 {
        fill: #f6f0f4;
      }

      .cls-27 {
        fill: #e3a824;
      }

      .cls-28 {
        fill: #ecb41e;
      }

      .cls-29 {
        fill: #d9a227;
      }

      .cls-30 {
        fill: #5684c3;
      }

      .cls-31 {
        fill: #6286c4;
      }

      .cls-32 {
        fill: #5c83c2;
      }

      .cls-33 {
        fill: #0f8550;
      }

      .cls-34 {
        fill: #0a8241;
      }

      .cls-35 {
        fill: #f0f0f0;
      }

      .cls-36 {
        fill: #b7ceeb;
      }

      .cls-37 {
        fill: #527bbc;
      }

      .cls-38 {
        fill: #128d53;
      }

      .cls-39 {
        fill: #149e5c;
      }

      .cls-40 {
        fill: #117144;
      }

      .cls-41 {
        fill: #149758;
      }

      .cls-42 {
        fill: #5982c2;
      }

      .cls-43 {
        fill: #3f6bb3;
      }

      .cls-44 {
        fill: #1aa162;
      }

      .cls-45 {
        fill: #f1b31b;
      }

      .cls-46 {
        fill: #557abc;
      }

      .cls-47 {
        fill: #109d5c;
      }

      .cls-48 {
        fill: #f6f5eb;
      }

      .cls-49 {
        fill: #4871b6;
      }

      .cls-50 {
        fill: #547cbe;
      }

      .cls-51 {
        fill: #ebb01f;
      }

      .cls-52 {
        fill: #109b59;
      }

      .cls-53 {
        fill: #129d5b;
      }

      .cls-54 {
        fill: #f8d883;
      }

      .cls-55 {
        fill: #109150;
      }

      .cls-56 {
        fill: #179a5c;
      }

      .cls-57 {
        fill: #f7f8ee;
      }

      .cls-58 {
        fill: #0e9955;
      }

      .cls-59 {
        fill: #f5b11a;
      }

      .cls-60 {
        fill: #cd992b;
      }

      .cls-61 {
        fill: #a8c2e5;
      }

      .cls-62 {
        fill: #f1b61b;
      }

      .cls-63 {
        fill: #557dbe;
      }

      .cls-64 {
        fill: #5b86c4;
      }

      .cls-65 {
        fill: #eaf5f1;
      }

      .cls-66 {
        fill: #ecf4eb;
      }

      .cls-67 {
        fill: #557ebf;
      }

      .cls-68 {
        fill: #167a49;
      }

      .cls-69 {
        fill: #e7ac22;
      }

      .cls-70 {
        fill: #5b82c2;
      }

      .cls-71 {
        fill: #4e79bb;
      }

      .cls-72 {
        fill: #497abd;
      }

      .cls-73 {
        fill: #dfa526;
      }

      .cls-74 {
        fill: #5680c1;
      }

      .cls-75 {
        fill: #3567b1;
      }

      .cls-76 {
        fill: #f0f1f8;
      }

      .cls-77 {
        fill: #17a060;
      }

      .cls-78 {
        fill: #3d68b1;
      }

      .cls-79 {
        fill: #4373b8;
      }

      .cls-80 {
        fill: #22a466;
      }

      .cls-81 {
        fill: #efeff0;
      }

      .cls-82 {
        fill: #5d83c2;
      }

      .cls-83 {
        fill: #557ebe;
      }

      .cls-84 {
        fill: #019b59;
      }

      .cls-85 {
        fill: #c8942c;
      }

      .cls-86 {
        fill: #be8c2c;
      }

      .cls-87 {
        fill: #f7da83;
      }

      .cls-88 {
        fill: #dca427;
      }

      .cls-89 {
        fill: #a77c2c;
      }

      .cls-90 {
        fill: #f0efef;
      }

      .cls-91 {
        fill: #ecb11f;
      }

      .cls-92 {
        fill: #139256;
      }

      .cls-93 {
        fill: #5e81c1;
      }

      .cls-94 {
        fill: #f1b51b;
      }

      .cls-95 {
        fill: #f1b21c;
      }

      .cls-96 {
        fill: #436fb5;
      }

      .cls-97 {
        fill: #eaf0f4;
      }

      .cls-98 {
        fill: #089a5f;
      }

      .cls-99 {
        fill: #f1eee9;
      }

      .cls-100 {
        fill: #109755;
      }

      .cls-101 {
        fill: #6085c3;
      }

      .cls-102 {
        fill: #5a81c1;
      }

      .cls-103 {
        fill: #719cd2;
      }

      .cls-104 {
        fill: #5b80c0;
      }

      .cls-105 {
        fill: #199c61;
      }

      .cls-106 {
        fill: #1da263;
      }

      .cls-107 {
        fill: #f4ecf4;
      }

      .cls-108 {
        fill: #5b82c1;
      }

      .cls-109 {
        fill: #159d5c;
      }

      .cls-110 {
        fill: #5680c0;
      }

      .cls-111 {
        fill: #0a9b59;
      }

      .cls-112 {
        fill: #efeeef;
      }

      .cls-113 {
        fill: #d49d29;
      }

      .cls-114 {
        fill: #537bbc;
      }

      .cls-115 {
        fill: #5f84c3;
      }

      .cls-116 {
        fill: #5f80bf;
      }

      .cls-117 {
        fill: #4973b8;
      }

      .cls-118 {
        fill: #f7f6eb;
      }

      .cls-119 {
        fill: #5d80c0;
      }

      .cls-120 {
        fill: #f2b71a;
      }

      .cls-121 {
        fill: #f2b81a;
      }

      .cls-122 {
        fill: #8bcdad;
      }

      .cls-123 {
        fill: #f2b51b;
      }

      .cls-124 {
        fill: #5e87c5;
      }

      .cls-125 {
        fill: #158753;
      }

      .cls-126 {
        fill: #577fbf;
      }

      .cls-127 {
        fill: #5e84c3;
      }

      .cls-128 {
        fill: #fbf1f7;
      }

      .cls-129 {
        fill: #b6872d;
      }

      .cls-130 {
        fill: #13a05f;
      }
    </style>
  </defs>
  <g id="Layer_1-2" data-name="Layer 1">
    <g>
      <g>
        <path class="cls-7" d="M0,18.3c-.03-.52.11-1,.37-1.44C3.08,12.16,5.79,7.46,8.5,2.77c.25-.43.58-.79,1.04-1.01.14.04.22.15.28.27,1.38,2.41,2.8,4.8,4.16,7.23.02.06.02.12,0,.18-.79,1.43-1.63,2.83-2.44,4.25-.8,1.39-1.6,2.79-2.41,4.18-.1.18-.18.39-.38.5-.04.02-.09.03-.14.04-1.36.04-2.71.01-4.07.02-1.32,0-2.63,0-3.95,0-.21,0-.43.04-.61-.13Z"/>
        <path class="cls-72" d="M8.74,18.31s.04-.02.07-.02c.14-.09.29-.12.46-.12,3.19,0,6.39-.01,9.58,0,.03,0,.05,0,.08,0,.04,0,.09.02.13.03.15.06.22.19.29.31,1.34,2.34,2.69,4.66,4.04,7,.06.11.16.22.09.37-.41.28-.87.4-1.36.4-5.46,0-10.92,0-16.38,0-.47,0-.92-.11-1.32-.38-.11-.18.03-.3.1-.43.95-1.66,1.91-3.31,2.86-4.96.35-.61.71-1.22,1.05-1.83.08-.14.16-.27.29-.37Z"/>
        <path class="cls-18" d="M19.13,18.31s-.05-.01-.07-.02c-.45-.47-.69-1.07-1.01-1.62-1.28-2.19-2.54-4.39-3.81-6.6-.12-.22-.28-.42-.32-.68,0-.04.01-.07.02-.11-.03-.16.07-.28.14-.4,1.31-2.27,2.63-4.53,3.93-6.81.07-.13.14-.26.3-.3.47.23.81.6,1.06,1.04,2.71,4.69,5.41,9.38,8.11,14.08.25.43.38.9.35,1.41-.13.14-.31.13-.48.13-2.58,0-5.16,0-7.74,0-.17,0-.35,0-.49-.12Z"/>
        <path class="cls-8" d="M19.13,18.31c2.59,0,5.18,0,7.77-.01.32,0,.64,0,.96,0,.07.51-.08.97-.33,1.4-.99,1.73-1.98,3.45-2.98,5.17-.26.44-.59.82-1.07,1.03-1.39-2.41-2.78-4.82-4.16-7.23-.07-.11-.12-.23-.18-.35Z"/>
        <path class="cls-75" d="M8.74,18.31c-.54,1.09-1.2,2.12-1.8,3.18-.82,1.44-1.66,2.87-2.49,4.3-.02.03-.02.08-.02.12-.46-.21-.81-.56-1.06-.99-1.01-1.73-2.01-3.47-3.01-5.21-.25-.43-.38-.9-.35-1.41,2.91,0,5.82,0,8.73.01Z"/>
        <path class="cls-34" d="M18.33,1.76c-1.39,2.4-2.77,4.79-4.16,7.19-.07.11-.14.22-.21.33-.48-.62-.81-1.33-1.21-2.01-1.08-1.83-2.13-3.67-3.2-5.51.42-.28.89-.4,1.39-.4,2,0,4,0,6.01,0,.49,0,.97.1,1.38.4Z"/>
      </g>
      <g>
        <path class="cls-31" d="M20.03,9.89c0-.74,0-1.48,0-2.22,0-1.14,0-2.27,0-3.41,0-.21.07-.39.26-.5.14-.08.3-.1.46-.1.3,0,.59,0,.89,0,.97,0,1.94-.02,2.91,0,.06,0,.13-.01.19.02.02.02.03.04.02.06-.01.04-.05.04-.08.04-.17.02-.34.03-.51,0-.02,0-.05,0-.07,0-.4,0-.81,0-1.21,0,.42,0,.83,0,1.25,0,.06.02.02.05,0,.06-.06.05-.06.11-.04.17.04.11.03.22.02.33,0,.02,0,.04-.01.05-.15.13-.12.32-.15.49-.01.07-.03.13-.09.17-.04.02-.06.06-.06.1,0,.23-.15.41-.24.61,0,.02-.02.04-.04.04-.13.06-.15.18-.19.3-.04.12-.12.22-.21.31-.14.14-.29.26-.4.42-.05.08-.16.12-.24.15-.09.03-.16.09-.25.12-.04.01-.06.04-.07.08-.03.1-.1.13-.19.11-.07-.02-.12.02-.18.04-.15.07-.28.18-.46.16-.14,0-.23.09-.35.13-.09.03-.17.07-.27.07-.14,0-.28-.02-.41.08-.05.04-.13.03-.18-.01-.04-.07-.01-.14-.04-.21-.01-.19,0-.38,0-.57,0-.87,0-1.75,0-2.62,0,0,0,0,0,0,0,0,0,.01,0,.01,0,1.07,0,2.13,0,3.19,0,.07,0,.14,0,.21,0,.13,0,.26,0,.39,0,.19,0,.39,0,.58,0,.26,0,.52,0,.77,0,.08,0,.15,0,.23,0,.06,0,.12,0,.19,0,.91,0,1.82,0,2.73,0,.06.02.13-.03.19-.09-.01-.06-.08-.06-.13,0-.24,0-.49,0-.73,0-.57,0-1.13,0-1.7,0-.08,0-.17,0-.25,0-.04,0-.09.03-.12Z"/>
        <path class="cls-80" d="M22.86,2.02c.02-.11.06-.21.13-.3.12-.15.27-.21.46-.22.16,0,.33,0,.49,0,1.15,0,2.3-.02,3.45-.01.06,0,.12,0,.18-.02.05,0,.12-.02.13.07-.01.02-.03.03-.06.04-.27.02-.54,0-.82,0-.32,0-.64,0-.96,0-.04-.03-.09-.02-.14-.02-.74.02-1.48.02-2.22,0-.05,0-.09,0-.13.03-.01.01.02.01,0,0,0,0,0,0,0-.01.04-.02.08-.02.12-.02.68.02,1.36,0,2.04,0,.11,0,.21-.03.32,0,.04.03.09.02.13.02.28,0,.55,0,.83,0,.14.02.29-.02.43.03-.05.07-.11.06-.16.06-.08,0-.13.04-.11.12.05.21-.08.38-.09.57,0,0,0,.02,0,.02-.14.1-.1.25-.1.39,0,.15-.1.28-.11.42,0,.02-.01.03-.03.04-.12.02-.12.12-.14.21-.03.14-.13.25-.22.36-.04.05-.09.1-.12.17-.03.06-.07.12-.13.14-.06.03-.11.05-.11.13,0,.06-.07.07-.12.08-.04,0-.09,0-.11.05-.07.05-.09-.02-.13-.05-.2-.19-.39-.39-.59-.58-.04-.04-.08-.08-.14-.1-.06-.01-.12-.01-.18-.01-.53,0-1.06,0-1.59,0-.05,0-.11.01-.15-.02-.03-.05-.02-.1-.02-.15,0-.46,0-.93,0-1.39,0-.02-.01-.04,0-.07Z"/>
        <path class="cls-121" d="M25.71,1.47c0-.3,0-.61,0-.91,0-.12.03-.22.11-.31.09-.11.21-.19.35-.21.03,0,.07,0,.1,0,1.22,0,2.44,0,3.65,0,.06,0,.13,0,.19.01.01,0,.02.01.03.03-.09.08-.1.18-.1.29,0,.11-.01.22-.05.32-.03.08-.02.15-.02.23,0,.14-.02.28-.11.39-.04.05-.05.11-.06.17-.04.15-.13.28-.18.42-.05.12-.1.23-.2.31-.02.02-.02.05-.03.08,0,.02,0,.06-.01.07-.13.11-.13.33-.32.39-.02,0-.03.03-.05.04-.06,0-.09-.03-.12-.07-.4-.4-.81-.79-1.19-1.21-.04-.04-.08-.04-.12-.04-.59.03-1.18,0-1.77.01-.04,0-.08.01-.11-.03Z"/>
        <path class="cls-111" d="M30.04,10.82c-.04.11-.11.19-.22.24-.16.07-.32.07-.49.07-.68,0-1.35,0-2.03,0-.02,0-.03,0-.04-.02,0-.01-.01-.03-.02-.04,0-.07,0-.13,0-.2,0-.07,0-.13,0-.2,0-.32,0-.64,0-.96.02-.12-.03-.24.02-.36.03-.02.07-.02.11-.02.36,0,.72,0,1.08,0,.02,0,.04,0,.06,0,.05-.02.02-.05.02-.08,0-.18-.03-.36.02-.53.07-.01.06.04.06.08.01.07.05.09.11.08.1-.02.2-.03.25-.15,0-.02.02-.05.04-.06.13-.02.19-.14.29-.2.08-.05.15-.15.23-.23.05-.05.07-.14.16-.15.02,0,.03-.02.04-.04.09-.16.11-.17.28-.12.05.05-.03.09,0,.13,0,.02.03,0,0,0,.03-.08.06-.17.04-.24,0,.03.01.06,0,.1-.02.04-.04.01-.05,0-.03-.17,0-.35-.01-.52,0-.07,0-.14,0-.21,0-.02,0-.04,0-.06,0-.03,0-.05.01-.08,0-.04,0-.09.07-.1.02,0,.03.01.04.03,0,.02,0,.03-.01.05-.02.01-.03.03-.03.06,0-.02.02-.04.05-.02,0,.01.01.02.02.04.01.17,0,.35,0,.52,0,.53,0,1.07,0,1.6,0,.45-.03.91-.02,1.36,0,.09-.04.16-.06.25Z"/>
        <path class="cls-63" d="M27.27,11.09v.02s.04.01.04.03c-.05.03-.03.09-.03.13,0,.47,0,.95,0,1.42,0,.14-.03.27-.12.37-.12.09-.24.19-.4.22-.05,0-.1,0-.15,0-.05,0-.11,0-.16,0-1.31,0-2.63,0-3.94,0-.06,0-.11,0-.17,0-.07,0-.15.01-.22,0-.05-.06,0-.07.04-.08.04-.02.09-.01.13-.01.22,0,.45,0,.67,0,.11,0,.2-.02.29-.08.08-.05.17-.08.26-.1.1-.02.19-.05.27-.11.1-.07.21-.1.32-.13.06-.02.12-.04.17-.09.06-.07.15-.06.23-.07.08,0,.14-.01.15-.1.01-.05.05-.08.1-.09.12-.03.24-.04.31-.17.02-.03.06-.03.09-.03.11-.02.19-.1.29-.14.18-.09.32-.22.47-.33.14-.11.3-.19.43-.3.03-.02.05-.05.05-.08.01-.07.06-.09.12-.13.11-.07.22-.13.3-.24.07-.1.18-.16.21-.29.02-.06.09-.06.15-.05.06.01.06.07.06.12.01.11-.03.22.02.32Z"/>
        <path class="cls-122" d="M25.71,1.47c.62,0,1.23,0,1.85,0,.1,0,.17.03.25.1.38.39.76.76,1.14,1.15.03.03.06.05.09.08,0,0,.01,0,.02,0,.02,0,.04.02.05.04.03.03.06.06.09.09.02.02.03.04.05.05.02.02.03.04.05.05.01.01.02.02.03.03.02.03.05.05.08.07.23.23.45.47.68.7.01.03.02.07-.02.09-.04.01-.09.01-.13.01-.53,0-1.07,0-1.6,0-.08,0-.16,0-.24-.04-.1-.06-.22-.11-.29-.21-.03-.05-.05-.1-.08-.14-.02-.02-.02-.05-.03-.07,0-.05-.01-.1-.02-.14-.01-.48,0-.96,0-1.45,0-.09,0-.18,0-.27,0-.02.02-.04.03-.06-.01-.07-.07-.05-.11-.04-.1.02-.2.01-.3.01-1.22,0-2.45,0-3.67,0-.23,0-.44.04-.61.2.1-.18.28-.24.47-.24.7,0,1.39,0,2.09,0,.05,0,.11,0,.16,0Z"/>
        <path class="cls-87" d="M30.55.03s.06.03.08.05c.45.44.89.88,1.34,1.33.02.02.05.03.05.07-.03.05-.1.09-.05.16,0,.01.01.02.02.03.08.15.13.3.07.48-.02.05-.02.11.03.16.04.04.02.06-.02.08-.06.02-.12.03-.18.03-.26,0-.51,0-.77,0-.11,0-.21-.02-.3-.08-.09-.06-.17-.12-.21-.22-.02-.04-.04-.07-.07-.11-.02-.03-.02-.07-.02-.1,0-.57,0-1.14,0-1.71,0-.06-.02-.12.04-.17Z"/>
        <path class="cls-54" d="M31.11,2.38c.33-.01.66.02.99-.03-.09-.01-.12-.06-.08-.14,0-.02,0-.04,0-.06.08-.19,0-.34-.07-.51,0,0,.01-.01.02-.02,0,0-.01.01-.02.02-.06-.09-.02-.14.07-.17.31.27.59.58.89.86.06.05.06.1.06.17,0,1.49,0,2.99,0,4.48,0,.05,0,.11,0,.16,0,.68,0,1.37,0,2.05,0,0-.02.02-.02.02-.03-.02-.03-.06-.04-.09,0-.66,0-1.33,0-1.99,0-.91,0-1.82,0-2.73,0-.13,0-.27,0-.4,0-.16,0-.32,0-.48,0-.1,0-.21,0-.31,0-.06,0-.12,0-.17,0-.03,0-.06,0-.08,0-.04,0-.08,0-.13,0-.07,0-.14,0-.21,0-.05,0-.1,0-.15-.01-.11-.09-.04-.13-.04-.51,0-1.03,0-1.54,0-.04,0-.07,0-.11-.02-.02,0-.02-.02-.02-.04Z"/>
        <path class="cls-79" d="M26.64,13.27s.1,0,.15,0c.03-.01.05-.02.05.02-.06.03-.14.02-.2.02-1.5,0-3.01,0-4.51,0-.04,0-.09,0-.13,0-.03.03-.07.03-.11.03-.43,0-.87,0-1.3,0-.08-.01-.16-.03-.23-.07-.04-.02-.08-.04-.07-.1.04-.04.08-.02.12,0,.12.04.24.06.36.06.37,0,.75,0,1.12,0,.05,0,.1,0,.15,0,.03,0,.06,0,.08.03.07,0,.15,0,.22,0,.03-.02.07-.01.11-.01,1.36,0,2.73,0,4.09,0,.04,0,.07,0,.11.01Z"/>
        <path class="cls-103" d="M22.86,2.02s0,.03.01.04c.02.12,0,.24,0,.36,0,.36,0,.72,0,1.08,0,.04-.01.08.01.12.62,0,1.24,0,1.85,0,.04,0,.09-.02.13.02.03.06.04.13.04.2,0,.52,0,1.05,0,1.57,0,.06,0,.11-.03.16-.08-.01-.06-.08-.06-.13,0-.24,0-.48,0-.72,0-.3,0-.59,0-.89,0-.06,0-.12-.06-.16-1.38,0-2.77,0-4.15,0-.11,0-.19.08-.3.07.1-.09.22-.12.35-.12.69,0,1.37,0,2.06,0,.12,0,.15-.04.15-.15,0-.45,0-.89,0-1.34,0-.04-.01-.08.01-.12Z"/>
        <path class="cls-22" d="M30.55.03c0,.64,0,1.27,0,1.91-.07,0-.07-.04-.06-.09.01-.48,0-.95,0-1.43,0-.08,0-.15,0-.23,0-.05,0-.1-.06-.12-.15,0-.29-.01-.44-.01-1.27,0-2.54,0-3.82,0-.14.02-.24.11-.35.19.11-.18.28-.25.49-.25.62,0,1.24,0,1.86,0,.75,0,1.5,0,2.25,0,.05,0,.1-.02.14.03Z"/>
        <path class="cls-88" d="M32.95,9.16s0,.05,0,.07c-.1.29-.31.44-.61.44-.74,0-1.48,0-2.22,0-.01-.02,0-.03.01-.04.77,0,1.53,0,2.13,0-.6,0-1.36,0-2.13,0-.02,0-.02-.02-.02-.03.06-.05.13-.04.2-.04.66,0,1.32,0,1.98,0,.27,0,.47-.09.59-.34.01-.03.03-.06.07-.06Z"/>
        <path class="cls-53" d="M30.11,9.65s0,.02,0,.03c0,.29,0,.59,0,.88,0,.09-.01.18-.07.26.11-1.2.02-2.41.05-3.61,0-.05,0-.11,0-.16.01-.05.03-.01.04,0,.02.05.02.09.02.14,0,.3,0,.59,0,.89,0,.46,0,.92,0,1.38,0,.05,0,.1-.04.14v.02s.01,0,0,.02c0,0,0,0,0,0Z"/>
        <path class="cls-125" d="M27.31,11.15s-.03-.01-.03-.03c.74,0,1.47,0,2.21,0,.11,0,.21-.07.32-.06-.09.06-.19.09-.3.09-.74,0-1.47,0-2.21,0Z"/>
        <path class="cls-11" d="M26.83,13.29s-.03-.02-.05-.02c.13-.05.24-.11.34-.2,0,0,.02,0,.03,0-.08.11-.18.19-.32.22Z"/>
        <path class="cls-101" d="M20.15,7.74c.09,0,.18.02.24-.08.02-.03.07-.02.1-.02.11,0,.21,0,.32,0,.06,0,.12,0,.15-.06,0,0,0-.02.01-.02.15.02.23-.16.39-.12.07.02.16.03.19-.07,0-.01.04-.02.05-.02.1.02.16-.03.22-.1.04-.04.07-.05.13-.02.1.05.16.02.18-.09,0-.03,0-.07.04-.07.08-.01.16-.1.19-.09.13.02.18-.13.3-.12.02,0,.05-.02.06-.04.09-.19.26-.32.42-.44.03-.03.05-.05.05-.09,0-.04.02-.08.06-.09.07-.02.05-.07.07-.12.04-.11.03-.26.19-.29.01,0,.04-.01.04-.03.06-.21.24-.38.23-.62,0-.04,0-.09.03-.1.16-.05.11-.19.13-.29.03-.12,0-.25.12-.36.07-.07.05-.23.01-.34-.05-.17-.06-.19.09-.26.18-.02.36-.01.54,0,.06.09.02.19.03.28,0,.05,0,.1,0,.16-.03.25-.02.51-.03.76-.03.06-.05.13-.05.19-.02.06,0,.12-.03.17-.09.06-.15.05-.16-.07-.02-.12,0-.24-.01-.35,0,.18-.04.34-.11.5-.03.07-.02.11.06.14.09.04.09.08,0,.12-.08.04-.12.12-.22.13-.03,0-.04.03-.04.05-.02.13-.11.22-.21.29-.09.07-.11.17-.14.26-.01.04.01.07.04.09.04.03.06.06.04.12-.05.06-.11.06-.18.04-.1-.04-.16,0-.17.11,0,.06-.05.09-.1.11-.09.05-.17.11-.23.19-.04.06-.09.1-.16.1-.07,0-.1.04-.11.11,0,.05-.03.08-.08.09-.14.03-.26.09-.34.23-.02.04-.07.04-.11.06-.07.05-.16.07-.23.11-.06.06-.14.08-.23.07-.08,0-.14.03-.2.09-.16.16-.36.15-.56.12-.09-.02-.14,0-.19.07-.07.1-.18.12-.29.13-.17.02-.35,0-.52.01-.02,0-.04,0-.05-.03-.02-.17-.05-.34.02-.5Z"/>
        <path class="cls-70" d="M20.06,9.89v-.17s.01-.02.02-.03c0-.28,0-.55,0-.83,0-.03,0-.07,0-.1,0-.02,0-.04.03-.05.03,0,.03.02.04.04,0,.01,0,.02,0,.04,0,.26.05.52.02.78.03-.07.08-.09.15-.08.09,0,.18-.02.26-.07.02-.01.04-.02.07-.02.18,0,.35-.06.53-.06.15,0,.3-.06.46-.06.04,0,.06-.03.08-.06.06-.09.07-.09.13,0,0,.02.02.02.04.03.01,0,.03,0,.04.01.51,0,1.02,0,1.53,0,.06,0,.13,0,.19.01.06.03.13.04.2.04.17,0,.34,0,.51,0,.07,0,.14.01.14.11,0,.09-.07.09-.14.1-.19.03-.38-.02-.54,0,.46.02.94-.04,1.43-.02.07,0,.14,0,.2.05-.04.06-.09.05-.14.05-.27,0-.55.02-.82,0-.41-.04-.82,0-1.14-.02.28,0,.64,0,1.01.01-.04.06-.1.05-.15.05-.76,0-1.52,0-2.27,0,0,0-.01,0-.02,0,.01,0,.02,0,.04,0,.79,0,1.57,0,2.36,0,.37,0,.74-.02,1.11,0,.02,0,.03.02.04.03,0,.02-.01.03-.03.04-.07.03-.14.02-.22.02-1.03,0-2.06,0-3.09,0-.02,0-.05,0-.07,0-.16,0-.23.09-.17.25.01.04.04.05.07.05.05,0,.1,0,.15,0,1.04,0,2.09,0,3.13,0,.07,0,.15-.01.22.03.01.01.02.03,0,.04-.04.03-.08.03-.13.03-1.1,0-2.2,0-3.3,0-.02,0-.03,0-.05,0,0,0,0,.01,0,.01,0,0,.01,0,.01,0,.66,0,1.32,0,1.97,0,.04,0,.08,0,.12.02,0,.08-.06.07-.11.07-.28,0-.56,0-.84-.02-.12-.01-.25,0-.35,0-.04,0-.02.03-.03.01,0,0,0,0,0,0,.17-.02.33,0,.5,0,.02,0,.06,0,.06.03,0,.04-.03.04-.06.04-.12,0-.23.04-.32.12-.04.04-.11.03-.17.03-.29,0-.59,0-.88,0-.02.01-.05.02-.07.04-.07.07-.09.06-.13-.03-.02-.05,0-.11-.05-.14-.06-.04-.13-.02-.19-.02-.09,0-.17,0-.25.02-.08.02-.14.05-.19.14-.07.14-.23.11-.35-.06-.03.09-.09.15-.18.15-.09,0-.17,0-.26,0-.05,0-.06-.05-.06-.09,0-.09,0-.19,0-.25-.01.15.01.32.02.49,0,.28,0,.56,0,.83,0,.05.02.12-.05.15-.06-.04-.05-.1-.06-.16,0-.19.01-.37-.01-.56,0-.32,0-.63,0-.95,0-.04.01-.08-.01-.12Z"/>
        <path class="cls-127" d="M21.87,9.28c-.07.03-.06,0-.05-.05,0-.02.01-.05-.03-.05-.02,0-.04.02-.03.04.02.11-.06.11-.12.11-.2-.02-.4.03-.58.07-.18.03-.39-.03-.56.12-.05.04-.12.01-.18.01-.08,0-.13.02-.1.12,0,.03.02.05-.01.06-.04,0-.04-.03-.04-.06,0-.03,0-.07,0-.1.02-.27-.04-.53-.05-.8,0,.14,0,.28,0,.41,0,.18-.02.37.01.55,0,.03,0,.03-.04.01-.03-.07,0-.15-.01-.22,0-.26.02-.52-.01-.78,0-.2,0-.39,0-.59.01,0,.02,0,.03,0,0,.02,0,.05,0,.06,0-.02,0-.05,0-.09,0-.14,0-.28,0-.42,0-.05,0-.1.03-.14.05.06.01.13.02.2v.51c.06.13.04.27.02.37.02-.05.08-.04.14-.04.19,0,.37.01.56,0,.15,0,.29-.04.42-.1.16-.08.33-.12.51-.1.06.03.11.05.17.06.47.02.95,0,1.42,0,.16,0,.33-.02.49.01.06.05,0,.07-.03.07-.14-.02-.27.11-.43.02-.09-.04-.21-.01-.31,0-.05,0-.07.04-.1.08-.08.11-.17.14-.29.08-.07-.04-.12-.04-.18,0-.06.04-.14.02-.2.04-.12.02-.24,0-.35.02-.01,0-.02.01-.03.02-.03.02-.07.03-.11.03.05,0,.1-.02.15,0,1.09,0,2.18,0,3.27,0,.06,0,.13-.01.19.02.01.01.02.03,0,.04-.06.04-.13.03-.19.03-1.05,0-2.1,0-3.15,0-.04,0-.08,0-.12,0-.08,0-.12.03-.12.11,0,.08,0,.16,0,.24Z"/>
        <path class="cls-104" d="M24.75,3.68c.1,0,.1.06.1.13,0,.55,0,1.09,0,1.64,0,.05-.02.1.02.14.02.01.02.03.03.04.01.08.04.15.09.22,0,.09.04.16.1.23.03.03.05.06.07.1.06.18.19.26.38.26.05,0,.08.03.12.05.01,0,.03.02.04.03.02.01.03.02.05.03.03.03.06.06.09.09,0,0,.01.02.02.03,0,.02.02.04,0,.06-.13.02-.25-.03-.38,0-.05,0-.08-.02-.11-.05-.03-.03-.07-.03-.11-.01-.06.01-.11.02-.17,0-.02-.01-.03-.04-.04-.06-.03-.07-.06-.14-.12-.19-.08-.04-.13-.11-.12-.2,0-.15-.02-.29-.12-.42-.05-.07.03-.12.05-.19,0-.01.01-.02.02-.04.01-.03.02-.05.02-.08,0-.41,0-.81,0-1.22,0-.01,0-.03-.01-.04-.02-.16.05-.33,0-.49,0-.02,0-.03,0-.05Z"/>
        <path class="cls-124" d="M22.74,3.75c-.57,0-1.13,0-1.7,0-.11,0-.21-.02-.32.04-.08.05-.17-.04-.25-.06h2.27s0,.01,0,.02Z"/>
        <path class="cls-64" d="M24.75,3.73c.08.08.05.18.04.26-.01.08-.01.15-.02.22-.07-.02-.04-.08-.05-.12-.01-.11.03-.22-.03-.32-.18,0-.36,0-.54,0-.44,0-.88,0-1.32,0,.63-.05,1.27.01,1.9-.05Z"/>
        <path class="cls-61" d="M24.88,5.63s0-.03,0-.04c0-.65,0-1.29,0-1.94.24.24.48.48.73.72.02.02.04.03.06.05,0,0,.01,0,.02,0,.07.05.13.12.19.18.06.07.13.13.2.2.1.1.19.2.29.29.16.16.32.32.47.47,0,0,.02.02.02.02.07.07.14.15.22.21.07.08.15.1.25.1.33,0,.67,0,1,0,.05,0,.11,0,.16.02.01.01.02.02.01.04-.02.02-.05.03-.08.03-.38,0-.75,0-1.13,0-.01.03,0,.08-.05.08-.35.02-.7,0-1.05,0-.23,0-.46,0-.7,0-.08,0-.16,0-.24-.04-.18-.09-.32-.21-.37-.41Z"/>
        <path class="cls-106" d="M26.05,4.8c-.07-.06-.14-.12-.2-.19-.01-.01-.02-.03-.02-.04,0-.02,0-.03,0-.05,0-.04-.03-.07-.07-.07-.02,0-.03,0-.05,0-.02,0-.03-.01-.04-.02h0s-.02-.06-.03-.1c.06,0,.12.01.18,0,.04-.01.13-.01.07-.11-.03-.05,0-.08.05-.08.09,0,.15-.05.17-.11.07-.17.23-.28.32-.44.04-.07.06-.14.05-.22,0-.07.02-.11.09-.11.06,0,.07-.03.08-.08.05-.21.13-.42.1-.65,0-.02,0-.05.02-.05.14-.05.1-.18.12-.27.01-.04.01-.08.04-.11.05-.06.04-.12.03-.19-.04-.22-.03-.23.18-.23.02,0,.05,0,.1,0-.15-.04-.28.02-.39-.04,0,0,.01,0,.02-.01.05,0,.1,0,.15,0-.05,0-.1,0-.15,0,0,0-.01,0-.02-.01.04-.04.08-.02.13-.02.23,0,.45,0,.68,0,.03.04.02.07-.01.1-.01,0-.02.01-.03.02q-.16.05-.16.21c0,.05,0,.11,0,.16,0,.12-.02.22-.16.24-.05,0-.07.05-.08.1,0,.08,0,.15.03.23.07.15.05.2-.1.27-.04.02-.05.06-.07.1-.04.11-.07.21-.16.31-.06.07-.13.19-.08.31.03.09.03.18-.07.23-.05.03-.05.09-.04.14,0,.07-.01.1-.09.08-.13-.02-.15,0-.14.14,0,.11.02.22-.13.26-.04.01-.06.06-.06.1,0,.08-.04.12-.12.12-.07,0-.11.04-.11.11Z"/>
        <path class="cls-106" d="M25.85,1.57c-.84.05-1.68.01-2.53.02.04-.05.09-.05.13-.05.77,0,1.53,0,2.3,0,.04,0,.07-.01.1.02h0Z"/>
        <path class="cls-105" d="M22.89,3.63s-.03-.04-.03-.06c0-.5,0-1,0-1.5.04.03.02.08.02.11,0,.48,0,.96,0,1.45Z"/>
        <path class="cls-106" d="M25.85,1.57c.33,0,.65,0,.98,0h0s.01.01,0,.02c0,0,0,0,0,0h0c-.28,0-.57,0-.85,0-.04,0-.09.02-.13-.02h0Z"/>
        <path class="cls-77" d="M27.62,1.65s.03-.06.02-.1c.02,0,.03,0,.05,0,0,.02,0,.03,0,.05-.02.02-.02.08-.07.05Z"/>
        <path class="cls-62" d="M30.48.03c.08.11.04.24.05.37-.04,0-.05-.01-.06-.05,0-.04,0-.09,0-.16.05.57.02,1.11.03,1.65.02.13,0,.27.04.39.04.12.04.25.1.36,0,.06.02.11.06.15.06.07.06.17.08.26.01.04-.03.06-.07.06-.08,0-.11.05-.11.13-.01.1-.03.2-.14.25-.03.01-.04.05-.05.08-.02.07-.06.11-.13.1-.08,0-.1.04-.09.1,0,.04,0,.08-.04.09-.05.01-.06-.03-.08-.06-.02-.04-.06-.06-.05-.11-.02.07.09.11.05.18-.18-.13-.31-.31-.48-.46-.07-.07-.14-.15-.21-.22-.02-.03-.05-.06-.08-.08,0,0-.01-.01-.02-.02-.01-.03.01-.04.04-.05.06.03.13,0,.18.04.02.06.07,0,.09.03,0,.01.01.02.01.03.04-.09.17-.12.14-.25,0-.04,0-.08,0-.12,0-.07.04-.11.11-.12.14-.02.14-.02.1-.16,0-.03-.02-.06-.02-.1,0-.07.02-.12.1-.13.1,0,.12-.07.13-.15.02-.32.09-.63.07-.94,0-.16.02-.31.07-.47.04-.12.08-.25.08-.38,0-.1-.02-.17-.14-.16-.03,0-.06,0-.08-.03v-.02c.05-.04.12-.02.17-.02.05,0,.1.01.14-.02Z"/>
        <path class="cls-120" d="M29.47,3.07c-.03-.06-.12.04-.15-.05,0,0,0,0,0-.02,0,0,0,0,0,0,.04.01.04,0,.02-.03-.02-.04-.04-.07-.08-.08-.02,0-.02.02-.03.03-.01.02-.02.05-.06.03-.04-.02-.07-.05-.1-.09.02-.05-.03-.04-.05-.05h0s0-.09.09-.09c.07,0,.1-.09.11-.15,0-.05.02-.09.08-.11.05-.01.08-.06.07-.11-.01-.1.04-.17.12-.22.06-.03.08-.08.08-.14,0-.05,0-.1.06-.12.01,0,.03-.02.03-.03.02-.14.13-.25.15-.39.01-.13.15-.2.14-.34,0-.01.01-.02.01-.03-.03-.28.11-.55.08-.83-.01-.1.03-.13.12-.12.08.01.19-.04.23.03.05.08.05.21,0,.3-.05.14-.07.28-.11.41-.06.2-.02.4-.03.61-.02.24-.05.49-.07.73,0,.06-.04.07-.09.07-.13.01-.17.07-.11.19.07.16.05.2-.12.2-.08,0-.1.03-.1.1,0,.06,0,.13,0,.2,0,.03,0,.08-.04.08-.12.02-.11.11-.12.2-.09-.03,0-.12-.07-.16-.02,0-.05.02-.07,0Z"/>
        <path class="cls-94" d="M25.74,1.4v-.87s0,0,.01,0v.87s0,0-.01,0Z"/>
        <path class="cls-67" d="M20.08,12.93c0-.65,0-1.31,0-1.96.05.06.02.13.02.19,0,.17-.02.35.03.52.04.05.03.11.03.16,0,.17,0,.33,0,.5,0,.13.03.16.16.16.27,0,.55.04.82-.02.22-.05.44-.09.67-.08.04,0,.07-.01.1-.04.03-.02.05-.05.09-.04.23.02.42-.15.65-.14.07,0,.13-.04.18-.09.07-.07.15-.09.25-.08.14.01.26-.03.36-.12.09-.08.22-.08.32-.15.16-.12.35-.19.53-.26.18-.08.34-.23.54-.26.09-.01.16-.09.22-.16.1-.12.23-.18.37-.21.05,0,.04-.03.04-.06.01-.04.04-.06.07-.08.36-.23.61-.57.92-.85.16-.15.3-.32.46-.46.04-.03.07-.07.08-.12.02-.07.07-.11.12-.15.07-.05.12-.04.14.05,0,.04,0,.08.02.12,0,.02,0,.04-.01.05.04.11.02.23.02.35-.01,0-.02,0-.03,0,0-.04,0-.09,0-.13,0,.06,0,.12.02.18,0,.28,0,.56,0,.84,0,.04,0,.07.01.11,0,.07,0,.13,0,.2-.02.07-.02.13,0,.2,0,0,0,.02,0,.02-.04.02-.05,0-.05-.04,0-.09,0-.18,0-.27,0-.05.02-.1-.06-.11-.07,0-.13.02-.13.09,0,.08-.04.12-.1.15-.05.03-.1.06-.1.13,0,0,0,.02,0,.02-.12.02-.17.16-.29.19-.04,0-.08,0-.09.05-.03.19-.18.24-.33.3-.01,0-.03,0-.03.01-.1.19-.34.21-.44.4,0,0,0,0,0,0-.2.01-.3.24-.51.22-.01,0-.04,0-.04.02-.04.18-.2.13-.31.17-.05.02-.1.03-.09.09,0,.1-.05.12-.13.11-.07,0-.13,0-.19.02-.02,0-.04,0-.05.01-.07.16-.23.13-.36.16-.07.01-.07.09-.14.1-.1.02-.2.07-.28.11-.34.19-.71.19-1.08.18-.07,0-.15,0-.22,0-.05,0-.09,0-.11.05-.02,0-.05,0-.07,0-.05-.03-.1,0-.15,0-.38,0-.75,0-1.13,0-.15,0-.3-.01-.44-.09,0,0-.03.01-.04.02-.04.02-.06-.02-.09-.03-.05-.04-.09-.09-.11-.15,0-.03-.02-.06,0-.08Z"/>
        <path class="cls-90" d="M27.25,9.34s0-.02,0-.03c0-.07,0-.14,0-.21,0-.06-.01-.12.05-.16.2-.03.4,0,.6-.01.15,0,.15,0,.15-.15,0-.09,0-.17,0-.26,0-.1-.04-.14-.14-.13-.13,0-.27,0-.4,0-.06,0-.11,0-.17-.01-.03,0-.06-.03-.07-.05-.02-.14-.06-.27.04-.4.16-.05.32-.02.47-.02.31,0,.28.02.27-.28,0-.27.04-.23-.24-.24-.17,0-.33.01-.5,0-.01,0-.03-.01-.04-.03-.04-.11-.02-.22-.02-.34,0-.09.07-.11.14-.11.17,0,.34,0,.51,0,.04,0,.09.01.13-.03.04-.14.02-.28.02-.41,0-.08-.06-.07-.12-.07-.15,0-.31,0-.46,0-.04,0-.09,0-.13-.01-.03,0-.05-.02-.06-.05,0-.01-.01-.02-.01-.04-.02-.06-.02-.12,0-.18,0-.01,0-.02,0-.03,0,0,.01-.02.02-.03-.02-.02-.03-.05-.05-.07.25-.03.49,0,.74-.01.15,0,.31.01.46-.01h.07s.04.08.04.13c0,.85,0,1.7,0,2.54,0,.2,0,.39,0,.59,0,.04.02.09-.04.12-.04-.03-.02-.08-.02-.11,0-.2,0-.4,0-.61,0,.2,0,.4,0,.6,0,.07-.02.1-.1.1-.32,0-.64,0-.96,0,.35,0,.69,0,1.04,0,.02,0,.03.01.02.03-.41,0-.81,0-1.22,0Z"/>
        <path class="cls-53" d="M30.06,6.96c-.07,0-.04.06-.05.1-.08-.02-.06-.09-.08-.15-.01-.04,0-.09-.06-.09-.05,0-.06.05-.06.09,0,.04,0,.08,0,.12,0,.03,0,.07-.03.09-.09.06-.15.15-.22.23-.05.06-.14.1-.17.18,0,.02-.04.03-.06.04-.07,0-.08.08-.12.11-.11.09-.17.22-.3.28-.08.04-.09.07-.05.14.02.03.05.07.01.11-.04.04-.08,0-.12,0-.21-.03-.23-.17-.22-.35,0-.17,0-.35,0-.52,0-.18-.01-.37-.01-.55,0-.1.03-.18.15-.17.05,0,.07-.04.08-.08.02-.08.07-.15.14-.19.02-.02.05-.03.05-.06,0-.16.14-.23.24-.32.06-.05.11-.09.13-.17,0-.02.01-.03.02-.04.07-.13.17-.25.13-.42.04-.01.07.01.1.04.12.13.27.2.39.33,0-.02,0-.04,0-.05,0-.03,0-.07.05-.07.04,0,.05.04.05.07,0,.08,0,.16.03.24,0,.32,0,.63,0,.95,0,.04,0,.08-.03.11Z"/>
        <path class="cls-39" d="M29.47,5.34c.11.14,0,.25-.06.36-.04.06-.08.12-.09.2,0,.03-.02.06-.05.07-.12.03-.16.15-.26.21,0,0-.03.02-.02.02.04.14-.1.18-.16.26-.03.03-.05.06-.05.11,0,.06-.04.11-.1.1-.09-.02-.12.03-.14.1-.02-.06,0-.12-.01-.18.03-.17,0-.34.01-.49,0,.02,0,.06,0,.11-.01.71,0,1.42.01,2.13,0,.06,0,.13,0,.19-.03.26-.03.51-.02.77,0,.04,0,.06-.04.08,0,0-.02-.02-.03-.03,0,0,0-.01,0-.02h0s.02-.06.02-.09c0-1.08,0-2.16,0-3.23,0-.02,0-.04,0-.06,0,0,0-.01,0-.02-.12-.03-.24,0-.36-.02-.04,0-.09.01-.15-.03.12-.04.22-.01.3-.02-.03,0-.08,0-.13,0-.05,0-.1.02-.15-.03.12-.02.24-.01.37-.02-.11,0-.21,0-.31,0-.06,0-.08-.04-.04-.07.14-.11.19-.3.34-.39.01,0,.03-.02.03-.03.04-.22.2-.38.31-.56,0,0,0-.02,0-.03-.17.13-.31,0-.46-.05-.04-.01-.04-.05-.02-.09.04-.12.04-.14-.09-.19-.08-.03-.14-.07-.12-.17,0-.01.02-.03.03-.02.11.12.32.07.39.25.02.04.06.02.1.03.04,0,.09.02.13.03.03.01.05.03.07.05.13.11.26.23.37.35.09.09.17.19.27.27.05.04.11.08.1.16Z"/>
        <path class="cls-52" d="M28.52,8.52c0-.06,0-.12,0-.17.03-.3,0-.6.01-.89,0-.04-.03-.09.03-.11,0,.22,0,.45,0,.67,0,.07,0,.12.09.11.05,0,.09.03.13.06.03.03.05.03.07,0,.02-.03,0-.05-.02-.06-.09-.03-.05-.1-.05-.15,0-.07.07-.04.11-.05.07,0,.09-.05.09-.11,0-.07.02-.1.09-.09.08,0,.11-.03.11-.11,0-.03,0-.08.02-.07.2.06.17-.23.34-.21,0,0,.03-.02.03-.04,0-.1.05-.15.15-.16.05,0,.05-.06.05-.1,0-.06,0-.13,0-.19,0-.06.05-.09.11-.09.06,0,.08.05.08.1,0,.06.01.13.05.18,0,.02,0,.04-.02.05-.03.13,0,.26-.01.37,0,.04.03.01.01.02,0,0,0,0,0,0,0-.11-.02-.22,0-.34.04.04.02.08.02.13,0,.22,0,.44,0,.66h0s-.06,0-.09,0c-.09,0-.17,0-.15.13,0,.05-.02.07-.07.07-.09,0-.13.03-.12.12,0,.06-.02.08-.08.08-.08,0-.12.03-.12.11,0,.06-.02.09-.09.08-.06,0-.08.05-.12.07-.13.07-.18.22-.32.28-.02,0-.04.02-.06.03-.06.03-.12.03-.18.01-.09-.02-.03-.1-.05-.15,0-.01-.01-.03-.02-.04-.03-.06,0-.13-.02-.19Z"/>
        <path class="cls-41" d="M29.47,5.34c-.09-.14-.23-.22-.33-.34-.02-.02-.04-.05-.06-.07.19,0,.37-.07.56-.06.11,0,.21.08.33.04.02,0,.03.03.03.06-.02.12,0,.25,0,.33,0-.05,0-.14,0-.23,0-.02-.02-.06.03-.06.03.03.02.07.03.12-.02-.24-.01-.46-.02-.68,0-.04,0-.07.03-.1.01,0,.03,0,.04,0,.02.03.02.07.03.11,0,.32,0,.64,0,.96,0,.49,0,.98,0,1.47,0,.04,0,.07-.01.11,0,.02-.02.03-.03.04,0,0-.01.01-.02.02,0,0-.01,0-.02,0-.01-.02-.01-.03,0-.05,0,0,.01-.02.02-.03-.02-.26,0-.52,0-.79,0-.17,0-.33,0-.5,0-.02-.02,0,0,0,0,.06.01.11,0,.17-.06-.08,0-.17-.05-.27-.04.06-.01.12-.03.17-.17-.14-.34-.28-.51-.42Z"/>
        <path class="cls-98" d="M30.06,5.86v-.27s.01,0,.02,0c0,.46,0,.93,0,1.39,0,0-.01-.02-.02-.02,0-.37,0-.73,0-1.1Z"/>
        <path class="cls-58" d="M28.52,8.52c.05.06.01.13.02.19,0,.16,0,.32,0,.48,0,.04,0,.07.01.11.06.09-.02.07-.06.08.03-.05.02-.11.02-.16,0-.23,0-.46,0-.69Z"/>
        <path class="cls-63" d="M27.25,9.7s.02,0,.02,0c0,.33,0,.65,0,.98-.04-.04-.02-.08-.02-.13,0-.28,0-.57,0-.85h0Z"/>
        <path class="cls-52" d="M30.01,7.93c.05-.05,0-.12.04-.19,0,.14.03.26-.06.36-.03-.06,0-.12.02-.17h0Z"/>
        <path class="cls-53" d="M29.99,7.15v.36c-.01-.14-.05-.27,0-.41v.05Z"/>
        <path class="cls-63" d="M27.27,11.07c-.04-.07-.04-.13,0-.2,0,.07,0,.13,0,.2Z"/>
        <path class="cls-53" d="M30.06,7.01s0,.03,0,.05v.07s-.04-.08,0-.12Z"/>
        <path class="cls-67" d="M26.64,13.27c-1.43,0-2.87,0-4.3,0,.04-.04.08-.02.13-.02,1.35,0,2.7,0,4.05,0,.04,0,.09-.02.13.02Z"/>
        <path class="cls-123" d="M30.11,4.43s0-.06-.01-.09c-.04-.15-.02-.3-.01-.45,0-.02-.02-.04-.03-.06,0-.08-.11-.11-.11-.2.1-.04.08.07.11.11.02.02.02.09.07.07.05-.02,0-.05,0-.08-.02-.07.04-.13.11-.12.07.01.12,0,.12-.09,0-.04.01-.07.04-.08.14-.04.14-.16.15-.26,0-.09.03-.14.13-.13.03,0,.08-.01.06-.03-.07-.07-.01-.19-.09-.25-.05-.04-.08-.09-.05-.16.07-.01.11.03.15.08.16.23.4.29.66.32.04,0,.08,0,.12.02.09.05.16.13.24.2.07.08.15.15.23.23.01.02.02.04.02.07-.09.12-.11.24-.07.39.02.05,0,.11-.07.14-.03.01-.05.04-.05.08-.02.11-.1.13-.19.11-.07-.02-.12,0-.14.07,0,.03-.02.06-.05.07-.13.05-.22.17-.36.2-.07,0-.12-.03-.14-.1.01-.02.03-.02.04-.01.01,0,0,0,0,0,.01,0,.03.02.04.02-.01,0-.03,0-.04-.02-.05-.05-.07.03-.11.02-.21-.02-.42,0-.63,0-.06,0-.12,0-.17-.04Z"/>
        <path class="cls-77" d="M26.83,5.58c-.17-.15-.34-.32-.49-.49-.03-.04,0-.06.03-.08.03-.01.05,0,.06.02.02.04.06.06.09.09.11.12.12.13.22,0,.12-.16.3-.28.35-.49,0-.03.04-.04.06-.06.09-.08.17-.17.2-.3.02-.08.09-.12.1-.21.01-.1.02-.19,0-.29-.02-.16,0-.32.14-.43.02-.05.01-.1.01-.15,0-.46,0-.91,0-1.37,0-.06,0-.11.02-.17.03-.03.05,0,.05.02,0,.05-.01.11.01.16,0,.5,0,.99,0,1.49.02.03,0,.07.01.11,0,.08,0,.16.07.22,0,0,.02.02.02.03-.04.17.11.26.16.4.01.04.05.06.04.11-.02.03-.02.05,0,.08.03.05.02.1-.02.15-.02.02-.04.05-.02.08.02.03.05,0,.08,0,.02-.01.05-.02.07-.02.04,0,.08,0,.1.04.02.03,0,.06-.02.09-.06.09-.11.18-.14.28-.02.08-.07.11-.15.11-.08,0-.16,0-.24,0-.04,0-.08,0-.09.05-.01.04,0,.07.04.09.09.05.08.12.03.18-.07.1-.18.18-.26.27-.02.02-.05.04-.08.03-.11-.05-.24,0-.33-.1-.03-.03-.08-.04-.13-.04,0-.01-.02.02,0,0,0,0,0,0,.01,0,.02.02.03.04.01.06Z"/>
        <path class="cls-4" d="M30.09,3.89c.04.15.02.3.01.45h-.01c-.05-.06-.03-.13-.02-.19.01-.07.03-.13-.04-.18-.5-.01-1,0-1.5,0-.06,0-.12,0-.18-.02-.01,0,0,0-.01,0,0,0,0,0,.01,0,0,.06-.04.03-.06.04.26-.06.53,0,.8,0,.11,0,.22.04.33.06.12.01.23,0,.33-.04.08-.04.16-.05.25-.03.01,0,.03,0,.04.01.04.04.03.09.03.14-.01.09-.08.13-.16.13-.27,0-.55.03-.81,0-.29-.04-.6-.03-.88-.17-.07-.04-.14-.09-.19-.16-.03-.03-.06-.09.03-.07.12.04.24.05.36.05.56,0,1.12,0,1.67,0Z"/>
        <path class="cls-56" d="M28.05,3.85s-.05.02-.01.05c.06.05.11.1.16.14.07.06.15.11.21.18.02.03.03.05.06.07,0,0,.02.01.03.02.06.07.17.11.17.22-.08.03-.15-.05-.23,0-.01,0-.03,0-.03-.02-.01-.14-.11-.16-.22-.16-.09,0-.09-.1-.15-.12-.02.01-.03.01-.05,0-.08-.12-.16-.24-.23-.37-.02-.03-.07-.07,0-.1.03-.01.01-.04,0-.04-.09-.05-.08-.14-.06-.22,0-.01.02-.01.03,0,0,.02.01.04.02.05.02.04.03.09.07.12.06.09.16.13.24.2Z"/>
        <path class="cls-106" d="M27.69,1.87c-.06-.05,0-.14-.05-.2,0,0-.02,0-.03,0,0-.01,0-.02,0-.03h0s.05-.03.07-.05c0,.09,0,.18,0,.27Z"/>
        <path class="cls-121" d="M29.03,2.8s.02,0,.02,0c.03,0,.08-.04.09.02,0,.04-.06,0-.06.04-.02-.02-.03-.04-.05-.05Z"/>
        <path class="cls-121" d="M29.18,2.95s.04-.03.05-.05c.05.02.05.03.01.09,0,0-.01,0-.02,0-.02-.02-.03-.03-.05-.05Z"/>
        <path class="cls-77" d="M27.81,3.65c-.07-.01-.07-.07-.07-.12.04.03.05.08.07.12Z"/>
        <path class="cls-121" d="M29.33,2.99s0,.02,0,.02c-.02,0-.04,0-.05.03-.02-.02-.03-.04-.05-.05h0s.07-.08.1,0Z"/>
        <path class="cls-121" d="M29.29,3.07s.07.04.08.08c-.04-.02-.06-.04-.08-.08Z"/>
        <path class="cls-106" d="M27.72,3.48s-.02,0-.03,0c0-.04,0-.08,0-.13.03.04.02.08.02.13Z"/>
        <path class="cls-91" d="M31.53,3.04c-.16,0-.31-.03-.46-.08-.13-.05-.26-.11-.33-.25-.02-.05-.09-.07-.13-.1-.03-.07-.11-.12-.03-.21,0,0,0-.04-.01-.04-.1-.05-.08-.15-.07-.22.01-.09,0-.18-.03-.26.02-.04.01-.09.01-.13,0-.41,0-.83,0-1.24,0-.04-.01-.08.01-.12.02,0,.03.02.05.02,0,.46,0,.92,0,1.38,0,.05-.06.12.02.16,0,.03,0,.06.02.08.02.03.02.06.04.09.09.1.12.23.18.35.06.14.19.21.33.26.08.03.15.06.22.1.01,0,.02.01.03.02.03.03.05.07.09.09.01,0,.03.02.04.03.02.02.04.04.04.07,0,0,0,.01,0,.02Z"/>
        <path class="cls-86" d="M32.82,2.4c.06-.02.12-.05.13.05,0,.07-.03.1-.11.12-.27.08-.54.05-.81.07-.05,0-.1,0-.15,0-.24.03-.47,0-.69-.09-.09-.03-.18-.04-.25-.11-.05-.03-.09-.06-.13-.1-.02-.02-.04-.05,0-.05.09.05.19.08.29.08,0,0,0,.01,0,.02-.02.02-.04,0-.06.02.02,0,.05,0,.07,0,.45.07.9.04,1.35.05.12,0,.23-.07.35-.04.01,0,.03-.02.04,0,0-.03-.03,0-.04-.03Z"/>
        <path class="cls-69" d="M30.82,2.31c0,.08.08.08.12.13.08.08.18.14.25.23.03.03.05.05.08.08.02.03.07.05.06.11-.11-.08-.24-.1-.35-.15-.14-.06-.19-.21-.29-.3.07-.13-.08-.19-.09-.29,0-.01.02-.01.03,0,.06.07.12.14.19.19Z"/>
        <path class="cls-22" d="M30.63,2.11s-.02,0-.03,0c-.02-.03-.03-.06-.02-.1.03.02.04.06.05.09Z"/>
        <path class="cls-95" d="M30.11,9.6c0-.51,0-1.01,0-1.52.04-.03.09-.03.14-.03.13,0,.26,0,.39,0,.17,0,.32-.04.44-.16.06-.04.07-.09.07-.15,0-.07,0-.13.02-.2.05-.08.02-.17.03-.25,0-.05,0-.1.01-.14.03-.26,0-.52.01-.78,0-.06-.01-.12.02-.18.08-.03.06.04.07.07.01.09,0,.19,0,.28,0,.44-.04.87-.02,1.25,0-.19,0-.44.01-.69,0-.08.03-.13.1-.16.04-.02.07-.05.09-.09.02-.05.06-.09.11-.11.04-.01.06-.03.08-.07.04-.11.12-.13.22-.13.16,0,.16,0,.17-.17,0-.1.02-.19.13-.23.03-.01.05-.04.07-.07,0-.02.02-.05.04-.06.14-.05.18-.2.3-.27.09-.05.12-.16.18-.25.06-.1.08-.22.08-.34,0-.19,0-.38,0-.57,0-.06,0-.12.03-.16.02,0,.03,0,.04.02,0,.86,0,1.73,0,2.59,0,.04-.01.09.01.13,0,.67,0,1.34,0,2.01-.07.2-.2.35-.41.42-.05.02-.1.03-.15.03-.76,0-1.52,0-2.27,0Z"/>
        <path class="cls-20" d="M31.99,3.51s-.02-.03-.02-.05c.05-.05.11-.07.17-.05.15.05.3,0,.44.03.06.02.13-.01.19-.01.07,0,.15-.01.14.1,0,0,.02,0,.03,0,0,.16,0,.33,0,.49q-.07-.06-.03-.15c-.19.05-.39.12-.59-.02-.09-.06-.17-.14-.25-.21-.05-.04-.07-.08-.08-.14Z"/>
        <path class="cls-27" d="M32.95,3.53s-.02.05-.04.07c-.03-.04.02-.11-.04-.14-.05-.02-.1,0-.15,0-.06.02-.13.02-.19,0-.07-.02-.13-.02-.2,0-.02,0-.06.01-.07,0-.09-.08-.19-.02-.28-.02-.08-.06-.16-.14-.22-.22.04-.03.09-.03.14-.03.28,0,.56,0,.84-.03.08,0,.14.02.22.04v.32Z"/>
        <path class="cls-73" d="M32.95,3.21s0,.08-.07.02c-.08-.06-.21-.03-.31-.02-.2.03-.4.01-.6.02-.08,0-.15,0-.23,0-.07-.07-.15-.13-.22-.2h0c.07-.05.13-.02.2,0,.13.03.27.02.4,0,.23-.01.46.02.69.02.05,0,.08,0,.13-.02,0,.06,0,.11,0,.17Z"/>
        <path class="cls-3" d="M31.19,2.68c-.09-.08-.18-.15-.24-.24.18.09.37.14.57.18.22.04.43-.02.64,0,.18,0,.35,0,.53-.02.07-.01.14-.08.22-.05,0,0,.03-.05.04-.08,0,.06,0,.11,0,.17-.01.02-.02.04-.04.05-.16.02-.31.11-.48.09-.38-.06-.77,0-1.15-.06-.03,0-.06,0-.08-.02Z"/>
        <path class="cls-113" d="M31.48,2.97s-.02-.02-.02-.02c-.03-.03-.08-.05-.04-.1.14-.06.29-.02.43-.03.29,0,.58.03.87,0,.08,0,.15-.03.22.03,0,.04,0,.08,0,.12-.03.05-.08.04-.12.04-.31,0-.62.04-.93,0-.14-.01-.28.03-.42-.04Z"/>
        <path class="cls-51" d="M32.31,3.82c.1,0,.16.1.27.08.11-.03.22-.03.34-.04.03.04-.02.11.03.16,0,.13,0,.26,0,.39,0,.01-.02.01-.02,0,0,0-.02,0-.02,0-.05.01-.07-.02-.09-.05-.03-.07-.09-.11-.15-.16-.12-.08-.21-.19-.32-.28-.03-.03-.07-.05-.04-.1Z"/>
        <path class="cls-29" d="M31.48,2.97c.24,0,.47.01.71.02.18,0,.37-.02.56-.02.07,0,.14,0,.2,0,0,.02,0,.05,0,.07-.02.03-.03.07-.1.06-.12-.02-.25,0-.37,0-.15-.01-.29-.04-.44,0-.17.03-.33-.03-.5-.05-.02-.02-.03-.05-.05-.07Z"/>
        <path class="cls-60" d="M32.95,2.85c-.19-.01-.37.04-.56.03-.28-.01-.56-.02-.84-.03-.05,0-.1,0-.14.02-.03.02-.04-.01-.05-.02,0,0-.02,0-.02,0-.02-.03-.05-.07-.07-.1.03-.03.06-.02.09-.02.39.03.77,0,1.16.02.12,0,.22-.03.34-.05.04,0,.06-.03.08-.05,0,0,.02-.02.02-.02,0,.07,0,.15,0,.22Z"/>
        <path class="cls-45" d="M32.92,4.41s.02,0,.02,0c0,.91,0,1.83,0,2.74-.04-.04-.02-.09-.02-.14,0-.87,0-1.73,0-2.6Z"/>
        <path class="cls-89" d="M32.82,2.4s.04,0,.06.01c0,0-.02.01-.03.02-.27.04-.55.04-.83.04-.18,0-.35,0-.53,0-.13,0-.26-.03-.39-.04-.02,0-.05.01-.08-.02.03,0,.06,0,.08,0,.57,0,1.13,0,1.7,0Z"/>
        <path class="cls-87" d="M32.06,1.6c.06.03.09.06.09.11-.03-.02-.08-.04-.09-.11Z"/>
        <path class="cls-87" d="M31.95,1.65s0-.08.06-.09c0,.05,0,.08-.06.09h0Z"/>
        <path class="cls-63" d="M21.89,13.27s.11-.04.16-.04c.04,0-.01.02,0,.04-.05,0-.1,0-.15,0Z"/>
        <path class="cls-10" d="M30.11,9.65s0-.02,0-.02c.77,0,1.55,0,2.32,0,0,0,0,.02,0,.02h-2.32Z"/>
        <path class="cls-90" d="M31.11,7.91c-.11.13-.25.18-.42.17-.19,0-.38,0-.57,0,0-.35,0-.7,0-1.04,0,0,0,0,0,0,.08-.07.18-.04.27-.04.33,0,.33,0,.33-.33,0-.34,0-.68,0-1.02,0-.18,0-.19-.19-.19-.09,0-.18,0-.27,0-.05,0-.1,0-.14-.03-.01-.33,0-.66,0-.99.19,0,.39,0,.58,0,.09,0,.18.01.27.03h0s.08.07.12.1c.02.02.02.04.02.06.06.15.07.31.06.48,0,.75,0,1.5,0,2.26,0,.12-.02.24,0,.35.02.08,0,.14-.06.19Z"/>
        <path class="cls-82" d="M24.75,5.59s0,.06-.03.09c-.05.05-.07.09.02.11.02,0,.03.03.03.05,0,.13.08.26.05.4-.02.1.08.11.12.16,0,0,.02.02.01.03-.05.09,0,.11.08.12.01,0,.02,0,.03.02v.07s.03.07,0,.1c-.07.07-.08.17-.14.24-.07.08-.04.13.07.15.03,0,.06,0,.07.04.01.03,0,.06-.03.07-.11.07-.18.18-.23.31-.04.1-.15.15-.22.22-.03.02-.06.02-.09,0-.09-.04-.15,0-.23.05-.12.09-.25.16-.41.16-.24,0-.49,0-.73,0-.06-.03-.14-.01-.2-.04-.03-.08,0-.19.09-.23.21-.09.34-.27.49-.41.15-.14.29-.29.44-.44.06-.06.11-.11.13-.18.01-.04.04-.08.07-.11.18-.19.29-.4.29-.66,0-.07.02-.12.08-.17.09-.07.08-.09-.01-.14-.08-.03-.06-.1-.06-.16,0-.06.04-.09.1-.07.04,0,.04-.02.05-.04,0-.06-.02-.12.02-.17.02-.03,0-.06.01-.09,0-.03.01-.05.05-.03.05.1.02.2.02.3,0,.06,0,.12.01.18,0,.02.02.03.03.05Z"/>
        <path class="cls-115" d="M24.61,5.34s.03.07.01.11c-.05,0-.05-.1-.11-.05-.04.03-.02.08-.02.13,0,.04.02.06.06.06.04,0,.08-.02.08.04,0,.05.02.11-.05.14-.09.03-.11.09-.09.17.03.18-.1.31-.14.46-.05.17-.25.23-.28.42-.01.07-.13.14-.2.2-.17.15-.31.31-.47.46-.12.11-.22.23-.38.29-.05.02-.09.1-.1.17-.07.06-.15.03-.22.03-.09,0-.18,0-.27,0-.04,0-.09,0-.1-.05-.02-.05.03-.08.07-.1.01,0,.03,0,.03-.03-.08-.03-.17.02-.24-.05.07-.03.15-.07.22-.1.05,0,.1,0,.15,0,.07.02.13,0,.19-.05.08-.06.17-.11.22-.21.04-.08.15-.05.24-.04.14.02.13.02.11-.11,0-.05-.05-.12.03-.15.06-.03.13-.02.17.04,0-.09-.02-.19-.07-.27.03-.03.09-.03.07-.1.05-.05.11-.03.17-.02.02,0,.05.02.07.02.05,0,.12.05.16,0,.04-.04-.04-.08-.03-.13,0-.02,0-.06-.02-.07-.08-.05-.15-.09-.07-.21.04-.07.04-.15.12-.21.11-.08.22-.17.22-.33,0-.01.02-.04.02-.04.12.05.15-.11.25-.12.02,0,.05-.01.05-.04,0-.03-.03-.03-.06-.03-.09-.02-.13-.1-.08-.18.08-.14.11-.28.11-.44,0-.03,0-.06,0-.09,0-.03,0-.07.04-.07.04,0,.03.04.03.06,0,.12,0,.24,0,.37,0,.07.01.15.12.09Z"/>
        <path class="cls-115" d="M22.18,7.74c.09,0,.17,0,.26,0,.04,0,.08,0,.08.05,0,.05-.04.04-.07.04-.02,0-.04,0-.06.01-.02.01-.05.03-.05.06,0,.03.04.02.06.02.17,0,.34,0,.51,0,.06.01.14-.02.2.02-.05.05-.11.03-.16.03-.33,0-.65,0-.97,0-.02,0-.04,0-.06,0-.03,0-.06-.03-.1,0,0,.01,0,.03,0,.04-.02.02-.04.03-.04.06-.02.04-.02.08-.02.13,0-.04-.01-.07.02-.1.08.08.03.16.03.24,0,.01,0,.02-.01.03,0,.03,0,.05,0,.09-.04-.07-.2-.1-.29-.05-.25.15-.53.19-.81.2-.13,0-.27-.02-.4-.02-.06,0-.11,0-.13.07v-.44c.16-.05.33,0,.5-.03.14-.02.31,0,.37-.21.02-.06.07-.04.11-.02.18.06.36.05.53-.02.02,0,.05-.02.06-.04.05-.14.16-.13.27-.12.08,0,.13-.04.19-.08Z"/>
        <path class="cls-115" d="M23.43,6.86c.08.04.11.1.1.19,0,.03-.01.05.02.07.04.03.04.06,0,.09-.05.03-.06-.02-.07-.06,0-.03-.02-.05-.06-.05-.09-.01-.11.01-.1.1,0,.06.09.13.03.19-.06.06-.12-.03-.18-.03-.11,0-.24-.04-.24.15,0,0,0,.02-.01.02-.15,0-.23.23-.41.13-.04-.02-.08,0-.11-.03.06-.03.1-.08.14-.13.06-.07.16-.16.28-.16.07,0,.11-.03.1-.1,0-.07.02-.1.09-.1.08,0,.13-.04.18-.11.05-.08.12-.16.24-.18Z"/>
        <path class="cls-93" d="M24.75,5.59s-.03,0-.05,0c-.03-.2,0-.4-.01-.59,0-.21,0-.42.02-.63,0-.05.01-.1-.01-.14v-.44c.07.01.04.07.05.11.01.11-.03.23.02.33h0c.03.1,0,.21,0,.31,0,.3,0,.61,0,.91,0,.05.01.1-.02.14h0Z"/>
        <path class="cls-115" d="M23.87,6.64s.05.06.08.09c.02.02.03.05,0,.08-.02.03-.05.02-.08.02-.13-.01-.24-.09-.37-.07.05-.16.06-.17.22-.12.06.02.1,0,.15,0Z"/>
        <path class="cls-104" d="M24.7,4.22c.05.1.03.21.02.31-.04.35,0,.71-.02,1.06-.05-.12-.01-.24-.02-.36,0-.06,0-.12,0-.18-.02-.02-.01-.03,0-.05,0-.26,0-.52.02-.78Z"/>
        <path class="cls-115" d="M24.68,5v.05s0,.09-.05.12c0-.06-.03-.13.05-.17Z"/>
        <path class="cls-19" d="M27.29,8.96s0,.1-.02.15c-.03.01.01.08-.05.07,0-.07-.02-.09-.09-.05-.08.05-.09.15-.14.21-.08.1-.18.18-.26.27-.16.16-.31.32-.47.47-.12.11-.25.23-.36.36-.13.15-.31.22-.43.36.02.02.02.05,0,.07-.15.02-.28.07-.38.19-.09.11-.19.21-.35.21-.05,0-.07.04-.1.06-.09.07-.17.14-.29.13-.04,0-.06.04-.09.06-.09.07-.18.12-.3.15-.08.02-.15.09-.24.12-.23.08-.41.32-.7.26-.03,0-.07-.01-.09.02-.13.15-.31.16-.48.18-.02,0-.06,0-.07.02-.07.11-.17.08-.27.08-.07,0-.13,0-.17.07-.02.03-.05.03-.08.03,0,0-.02,0-.02,0-.23-.02-.45.04-.67.08-.31.05-.63.01-.95.02-.04,0-.05-.03-.06-.06-.03-.08-.02-.16-.02-.24,0-.18,0-.37,0-.55.04-.04.02-.08.02-.13,0-.29,0-.58,0-.88.08.02.06.09.06.14,0,.25,0,.5,0,.75,0,.14.01.15.15.15.26,0,.52,0,.78,0,.22,0,.42.07.61.17.02.01.05.03.08.02,0-.03-.03-.03-.05-.03-.04-.01-.09-.01-.09-.07,0-.05.03-.08.08-.09.02,0,.03,0,.05-.02-.04-.03-.12-.02-.11-.1.02-.07.08-.07.14-.08.22-.02.41.03.55.21.05-.04.04-.09.04-.14,0-.05.01-.1.02-.14.02-.07.06-.11.14-.12.07,0,.11.04.13.1.06.14.07.15.23.11,0-.05-.04-.04-.06-.06-.05-.04-.07-.09-.06-.15.02-.06.06-.1.12-.1.14,0,.28-.04.38.09.05.06.14.06.2.03.06-.04.06-.12.05-.19,0-.04-.03-.05-.07-.06-.04,0-.08,0-.12,0-.44,0-.89,0-1.33,0-.06,0-.15.02-.15-.05,0-.07.1-.04.16-.04.54,0,1.08,0,1.63,0,.06,0,.12-.01.16.03.02.04,0,.11.07.12.06.01.08-.04.11-.08.04-.07.12-.07.18-.08.09-.01.18-.03.21-.14.01-.04.05-.04.09-.06.03,0,.05-.02.05-.06,0-.02-.01-.03-.03-.03-.03,0-.06.02-.07.05-.03.1-.1.13-.2.12-.04,0-.06-.02-.07-.05-.04-.11.02-.25.14-.28.11-.03.22-.1.34-.08.07,0,.14.01.17.09.01.03.03.05.07.04.02,0,.04-.02.04-.04,0-.03-.01-.05-.04-.07-.03-.01-.06-.02-.07-.05-.04-.13-.14-.12-.24-.12-.15,0-.31,0-.46,0-.03,0-.07,0-.09-.04.02-.05.06-.05.1-.05.25,0,.5-.02.76.02.07.01.12.03.13.1,0,.03.02.06.07.06.04,0,.05-.03.06-.05.02-.08.06-.13.14-.11-.01,0-.04,0-.06,0-.01,0-.02-.01-.02-.02.04-.06.1-.03.15-.05,0,0,.02,0,.02-.02,0,0,0-.02.01-.02,0,0,.01-.01.02-.02v-.03s0,0,0-.01c0,0,.02-.01.02-.01,0,0,.02-.01.02-.02.03-.1-.02-.2-.02-.3,0,0-.01-.02-.02-.02,0,0,0,0-.01-.01,0,0,0,0,0-.01,0,0,0-.02,0-.03.03-.08.1-.11.16-.14.08-.03.15-.09.19-.16.04-.06.08-.1.15-.1.08,0,.12-.04.11-.13-.01-.07.01-.13.06-.18.03-.03.06-.07.07-.11.02-.07.06-.1.14-.06.04.02.06,0,.06-.04,0-.04.01-.09.02-.13.01-.07.05-.11.13-.13.13-.04.2-.14.25-.27.04-.12.05-.28.22-.31.08,0,.14.04.19.08.03.02.05.04.02.08,0,0,0,0-.01,0-.03.02-.1,0-.09.06,0,.05.04.02.05,0,0-.01.01-.03.03-.04,0,0,.01,0,.02,0,.04.08-.01.17.03.24.01,0,.02.01.04.02,0,.19,0,.39,0,.58,0,0,0,.01,0,.02,0,0,0,.01-.01.02Z"/>
        <path class="cls-126" d="M23.9,11.07s-.06-.02-.09-.02c-.6,0-1.2,0-1.8,0-.01,0-.03,0-.04.02.12,0,.24,0,.36,0,.41,0,.82,0,1.23,0,.1,0,.12.03.11.12,0,.06-.02.12-.03.18,0,.02-.02.03-.04.04-.09.03-.23-.01-.29-.09-.02-.03-.05-.05-.09-.05-.08,0-.15,0-.23,0-.06,0-.1.04-.1.1,0,.06.02.1.08.12.05,0,.09,0,.09.07,0,.07-.06.05-.1.05-.02,0-.04,0-.06,0-.1.01-.17,0-.16-.13,0-.05-.02-.12-.11-.12-.08,0-.1.05-.11.12,0,.06-.02.11-.02.17,0,.02,0,.04,0,.06,0,.04-.02.08-.07.09-.05,0-.07-.03-.08-.07,0-.06-.06-.07-.11-.1-.12-.06-.24-.08-.37-.07-.03,0-.06,0-.09.02-.02.01-.04.02-.03.05,0,.02.02.03.05.03.02,0,.05,0,.07,0,.03,0,.06,0,.06.04,0,.03-.02.05-.05.06-.05.01-.15-.03-.15.06,0,.08.1.03.15.04.02,0,.04,0,.05.03,0,.03,0,.05-.02.06-.05.04-.12.05-.15,0-.06-.11-.17-.08-.26-.12-.39-.14-.78-.05-1.18-.07-.12,0-.14-.04-.14-.15,0-.27,0-.54,0-.81,0-.04.02-.09-.02-.13v-.56s.02,0,.02,0c0,.11,0,.21,0,.32,0,.07.02.1.09.09.07,0,.14,0,.21,0,.09,0,.14-.03.14-.12,0-.03,0-.06.04-.06.04,0,.05.02.05.05,0,.09.06.13.15.13.09,0,.13-.04.15-.12.03-.12.16-.09.24-.11.12-.03.25,0,.38,0,.06,0,.09.03.09.09,0,.03,0,.06,0,.09,0,.03.06.04.05.08.02-.02.03-.04.05-.06,0,0,0,0,.01.01.03.08-.02.11-.07.14-.01,0-.02.01-.03.01-.02,0-.03,0-.05,0-.04,0-.1-.01-.1.04,0,.05.06.04.1.05.1,0,.1.12.17.16,0,0,.02.02.03.02.04.02.08.04.12.06.61.01,1.23,0,1.84,0,.08,0,.15,0,.23,0,.04.02.05.04,0,.07-.05.03-.11.04-.17,0Z"/>
        <path class="cls-13" d="M27.03,7.93s-.08,0-.08.03c-.02.1-.11.17-.11.28,0,.07-.16.28-.22.27-.13,0-.15.07-.16.16,0,.04,0,.07,0,.11,0,.08-.03.1-.09.04-.06-.06-.1-.05-.11.04,0,.04-.03.07-.06.1-.07.05-.1.11-.06.2.03.06-.01.12-.07.12-.12,0-.19.05-.24.15-.07.13-.24.13-.34.23h0s-.09-.01-.13-.01c-1.09,0-2.18,0-3.27,0-.04,0-.1.04-.12-.03h2.42s0-.02,0-.02h-1.17v-.02h2.24s0-.01,0-.02h-1.7c.12-.04.24-.07.36-.03.11.03.22-.02.34-.02.05,0,.05-.04.06-.08,0-.05-.03-.07-.08-.07-.2,0-.4,0-.6,0-.06,0-.11,0-.16-.05.05-.05.11-.03.16-.03.44,0,.88,0,1.31,0,.06,0,.11,0,.17-.01.11,0,.14-.05.14-.16,0-.07-.02-.14.03-.21,0-.01,0-.02,0-.03-.01,0-.03-.02-.04-.02-.58,0-1.16,0-1.74,0-.05,0-.11,0-.16,0-.02,0-.02-.02-.03-.04,0-.02,0-.03.02-.04.04-.02.08-.02.12-.02.56,0,1.11,0,1.66.01-.1,0-.21,0-.31,0-.04,0-.09.01-.12-.03-.05-.18-.01-.22.17-.22.11,0,.21,0,.32,0,.02,0,.04,0,.06,0q.08.08.12-.03c.03-.09.04-.09.09-.05,0,0,0-.01,0-.02.08-.21.03-.42,0-.64-.02-.17-.02-.18.13-.25.05-.02.05-.06.04-.1,0-.04-.04-.07-.05-.11-.03-.09.02-.16.11-.17.06,0,.11,0,.17-.03.04-.02.08-.05.13-.07.04,0,.07.01.1.04.13.14.26.27.39.41.08.13.22.21.33.3.05.05.09.09.04.17Z"/>
        <path class="cls-112" d="M25.46,10.09c-.23,0-.46,0-.7,0-.93,0-1.87,0-2.8,0-.1,0-.13-.02-.13-.13,0-.27,0-.27.28-.27,1.12,0,2.23,0,3.35,0h0c.06.13.06.26,0,.39h0Z"/>
        <path class="cls-126" d="M23.9,11.07c.06-.02.14,0,.2-.05,0,0-.02-.02-.02-.03-.01-.02-.01-.05,0-.07.01-.14.05-.29-.03-.43-.11-.01-.21,0-.32,0-.56-.02-1.12,0-1.68,0-.06,0-.12.02-.17-.03.04-.04.08-.02.13-.02.28,0,.55,0,.83,0,.07,0,.13,0,.17-.09.03-.06.1-.05.16-.06.05,0,.1.01.16-.01-.21-.04-.41-.04-.61-.06.38,0,.75,0,1.13,0,.09,0,.18.03.26-.02.04-.04.1-.03.15-.03.36,0,.71,0,1.07,0,.05,0,.11,0,.15.03-.06.05-.13.01-.2.02-.13.03-.26,0-.36.01.11,0,.23-.01.36.01h.18s-.08.02-.11.02c-.06,0-.09.02-.09.09,0,.07-.01.11-.09.11-.07,0-.11-.03-.1-.1,0-.04-.01-.06-.06-.07-.29-.04-.57-.01-.86,0,.2,0,.4,0,.6,0,.09,0,.16,0,.18.11,0,.04.02.06.06.06.07,0,.09.04.09.1,0,.04-.01.08-.06.09-.07,0-.12-.01-.13-.08-.01-.06-.05-.06-.1-.07-.15-.03-.28.07-.42.09-.06,0-.11.2-.07.25.02.03.17,0,.19-.04.01-.03.02-.07.04-.1.02-.03.06-.05.11-.04.05.02.05.06.05.1,0,.05-.02.08-.07.08-.06,0-.1.01-.1.09,0,.05-.04.08-.09.09-.06,0-.11.02-.17.02-.07,0-.12.02-.14.1-.02.07-.09.09-.15.06-.05-.03-.09-.07-.04-.14Z"/>
        <path class="cls-97" d="M25.46,8.89c0,.08,0,.15,0,.23.02.12-.02.17-.15.16-.03.02-.06,0-.1,0-1.08,0-2.15,0-3.23,0-.03,0-.07,0-.1,0,0,0-.02,0-.03,0-.06-.11-.02-.23-.03-.35,0-.03.02-.04.05-.04.02,0,.04,0,.06,0,1.15,0,2.3,0,3.45,0,.02,0,.04,0,.06,0Z"/>
        <path class="cls-110" d="M21.94,9.62s.09.02.14.02c1.08,0,2.16,0,3.24,0,.05,0,.1-.02.14.02-1.21,0-2.43,0-3.64,0h0s.08-.04.12-.05Z"/>
        <path class="cls-46" d="M25.46,10.11s0,.02,0,.02c-.04.03-.09.02-.14.02-1.08,0-2.16,0-3.24,0-.05,0-.1,0-.14-.02-.02,0-.03,0-.05,0,0,0,0-.01,0-.02h3.57Z"/>
        <path class="cls-74" d="M25.46,10.18c-.46,0-.91,0-1.37,0-.71,0-1.41,0-2.12,0-.01,0-.02,0-.03,0,0,0,0-.01,0-.02.03-.02.07-.01.11-.01,1.1,0,2.21,0,3.31,0,.04,0,.07,0,.11.01,0,0,0,.02,0,.02Z"/>
        <path class="cls-108" d="M25.46,10.16c-1.17,0-2.35,0-3.52,0,0,0,0-.02,0-.02,1.17,0,2.35,0,3.52,0v.02Z"/>
        <path class="cls-127" d="M21.89,9.28c.47,0,.95,0,1.42,0,.67,0,1.34,0,2.01,0-.04.04-.08.02-.13.02-.51,0-1.02,0-1.54,0-.54,0-1.09,0-1.63,0-.04,0-.09.02-.13-.02Z"/>
        <path class="cls-83" d="M21.87,10.45c.37,0,.73.01,1.1,0,.34-.02.67.02,1,0,.04,0,.09-.02.13.02,0,0-.01.01-.02.02-.06.03-.12.02-.18.02-.66,0-1.32,0-1.98,0-.01,0-.03,0-.04,0-.03,0-.04-.02-.05-.04h0s.03-.02.05-.02Z"/>
        <path class="cls-127" d="M22.06,9.35s.11-.02.11.04c0,.05-.07.06-.12.06-.05,0-.11,0-.11-.05,0-.06.07-.04.12-.05Z"/>
        <path class="cls-102" d="M25.36,8.5c-.1.05-.2.02-.3.02-.22,0-.19-.03-.19.2-.04.04-.09.02-.14.02-.36,0-.73,0-1.09,0-.05,0-.1,0-.14.01-.03.01-.05.02-.08.02-.33,0-.66,0-.99,0-.04,0-.07,0-.1-.03.08-.04.19-.02.26-.09.02-.02.08,0,.12.03.11.09.22.06.27-.07.03-.07.06-.09.13-.08.09,0,.2-.03.28,0,.14.07.27-.01.4,0,.04,0,.08.01.11-.02.04-.04.1-.03.15-.03.39,0,.78,0,1.17,0,.05,0,.11,0,.15.03Z"/>
        <path class="cls-31" d="M21.74,8.06s.05-.02.07-.03c.02,0,.03,0,.04.02,0,.01.01.03.02.04.01.07,0,.14,0,.21,0,.07.03.11.1.11.04,0,.09,0,.13,0,1.03,0,2.06,0,3.09,0,.07,0,.14,0,.21.01.02,0,.03.01.04.03,0,.02,0,.03-.02.04-1.13,0-2.25,0-3.38,0-.04,0-.08,0-.12,0-.07,0-.12,0-.15-.08,0,0,0-.02,0-.02,0-.11.05-.22-.05-.32Z"/>
        <path class="cls-25" d="M25.46,8.84s0,.02,0,.02c-1.13,0-2.26,0-3.38,0-.05,0-.1.02-.14-.02,0,0,.01-.01.02-.02.04-.02.08-.02.12-.02.43,0,.87,0,1.3,0,.04,0,.09,0,.13.02.61,0,1.22,0,1.82,0,.04,0,.09-.01.13.01Z"/>
        <path class="cls-116" d="M22.33,8.74c.39,0,.78,0,1.17,0,.03-.02.05-.01.08-.01.6,0,1.19,0,1.79,0,.03,0,.06,0,.08.01-.04.04-.09.02-.14.02-.61,0-1.21,0-1.82,0-.04.04-.1.03-.15.03-.42,0-.84,0-1.27,0-.05,0-.11,0-.15-.03.13-.05.26-.01.39-.02Z"/>
        <path class="cls-24" d="M21.94,8.47c1.17,0,2.35,0,3.52,0,0,.04-.02.04-.05.02-.02,0-.03,0-.05,0-.49,0-.98,0-1.47,0-.61,0-1.22,0-1.83,0-.04,0-.09.02-.13-.02Z"/>
        <path class="cls-2" d="M21.94,8.77c.52,0,1.04,0,1.57,0v.02s-.06.02-.09.02c-.47,0-.94,0-1.41,0-.02,0-.03,0-.05,0,0,0-.01,0-.02-.01,0,0,0-.02,0-.02Z"/>
        <path class="cls-25" d="M21.94,8.84s-.09.04-.13-.02c.04-.01.09-.02.13-.03h0s.01.03,0,.05h0Z"/>
        <path class="cls-102" d="M25.41,8.5s.04,0,.05-.02c0,0,0-.02,0-.03,0,0,0,0,0-.01,0-.02.01-.04.03-.05.02-.02.02-.05.02-.07,0-.06,0-.12,0-.17-.01-.03-.03-.06-.04-.08,0,0-.01-.02-.02-.03-.01-.02-.03-.02-.05-.03-.44,0-.89,0-1.33,0-.06,0-.12.01-.16-.03.12,0,.21-.09.32-.13,0,0,.02,0,.02,0,.08-.12.18-.14.3-.06,0,0,.03,0,.03,0,.07-.09.21-.14.24-.26.03-.12.1-.2.2-.26.02-.01.05-.02.04-.05,0-.03-.04-.02-.06-.02-.04,0-.1.05-.11-.01-.01-.06-.03-.12.03-.19.07-.09.14-.19.16-.31h.2c.07.01.11.12.2.07.13-.07.26,0,.39,0,.04-.01.05.01.06.05-.04.08.03.09.06.12.02.07.13.02.14.11,0,.04-.01.08-.04.12-.04.06-.11.05-.16.05-.04,0-.09,0-.11.05-.02.05-.02.1.02.13.04.04.04.09.04.13,0,.05-.01.08-.07.08-.14-.01-.14.08-.12.17.02.12.01.24.04.36.04.15-.05.28-.08.42-.04-.03,0-.07-.03-.1-.05.02-.03.07-.03.11,0,.05-.02.1-.09.09-.07,0-.05-.06-.06-.1Z"/>
        <path class="cls-71" d="M25.9,6.76s-.03-.04-.05-.05c0-.02-.02-.03-.02-.05.09-.03.19,0,.29-.01.33-.01.66,0,.99.02.09,0,.15.04.18.12.01.05,0,.09-.03.12-.23,0-.45.08-.68,0-.1-.04-.21,0-.31,0-.07.01-.13,0-.2-.01-.05-.01-.08-.06-.12-.07-.02-.02-.05-.03-.04-.07Z"/>
        <path class="cls-23" d="M27.27,6.81c-.04-.08-.11-.1-.2-.1-.33-.02-.66-.02-.99-.02-.09,0-.18.02-.26-.03-.02-.04-.06-.07-.1-.1-.02,0-.04,0-.05-.02.05-.06.11-.05.18-.04.15.01.3.04.45.03.05,0,.1,0,.14.02.03.01.06.03.08.02.22-.08.46.04.68-.06.01,0,.02,0,.04,0,.03.01.04.04.05.07.01.08.03.16-.02.23Z"/>
        <path class="cls-117" d="M27.25,6.52c-.14.04-.27.14-.42.06-.06-.03-.13-.03-.19.01-.05.04-.11.04-.15.02-.17-.09-.36-.02-.53-.07-.09-.02-.18-.04-.27,0,0,0-.02-.02-.02-.02-.03-.05-.14-.06-.09-.15.01,0,.03,0,.04,0,.09.09.2.1.32.09.13-.02.26,0,.39,0,.27.03.53-.02.8-.02.06,0,.14-.03.13.08Z"/>
        <path class="cls-19" d="M25.56,6.37c0,.07.08.09.1.15-.06-.02-.12-.03-.18-.05-.16-.03-.31-.1-.35-.28-.01-.05-.05-.07-.08-.1-.05-.07-.1-.13-.08-.23.08.03.13.11.21.15.03.02.07.04.1.07.08.11.21.18.28.3Z"/>
        <path class="cls-64" d="M24.75,5.59c0-.46-.02-.91.02-1.37.04.03.02.08.02.11,0,.38,0,.76,0,1.14,0,.04.03.1-.05.12Z"/>
        <path class="cls-102" d="M25.17,6.03c-.07-.06-.13-.11-.2-.17-.08-.06-.09-.14-.1-.22.07.16.19.28.34.37-.01.02-.04.01-.05.03Z"/>
        <path class="cls-70" d="M25.07,6.56s-.03,0-.05,0q-.16,0-.08-.14s0-.02,0-.03c.07.04.07.12.12.17Z"/>
        <path class="cls-70" d="M25.46,6.71c-.07.06-.13.04-.2-.07,0-.05.03-.05.06-.02.04.04.08.07.13.1Z"/>
        <path class="cls-71" d="M25.73,6.56c.06,0,.09.04.1.1-.04-.02-.07-.06-.1-.1Z"/>
        <path class="cls-44" d="M27.62,1.65s0,.02,0,.02c.02.03.01.05.01.08,0,.53,0,1.06,0,1.6,0,.03,0,.06-.01.08-.06,0-.09,0-.1.08-.02.13-.05.25-.01.39.02.08,0,.24-.1.32-.06.05-.01.15-.08.21-.07.05-.09.15-.18.18-.01,0-.03.03-.03.05,0,.12-.09.17-.15.25-.09.1-.16.23-.27.31-.04.03-.07.06-.12,0-.05-.06-.11-.1-.17-.16-.03-.03-.03-.03-.06.02-.11-.09-.21-.19-.29-.3-.04-.11-.03-.14.1-.14.07,0,.1-.02.1-.1,0-.08.04-.14.11-.14.09,0,.09-.06.09-.12,0-.03,0-.06,0-.09-.01-.19.04-.23.24-.15-.04-.12-.05-.23.1-.28.04-.01.03-.08.01-.12-.03-.08-.07-.17.03-.24.02-.01,0-.06.01-.09,0-.02,0-.06.02-.07.15-.05.14-.19.17-.3.02-.05.04-.09.09-.1.11-.03.15-.1.09-.19-.05-.08-.06-.17-.05-.26,0-.08.02-.14.12-.14.09,0,.13-.06.12-.16,0-.09,0-.18,0-.27-.02-.11.03-.17.14-.17.03,0,.06,0,.08,0Z"/>
        <path class="cls-130" d="M27.98,4.22s.03,0,.05,0c0,.08.02.13.12.15.15.03.18.1.11.23-.03.05-.01.06.02.07.1.03.21.06.31.1.03,0,.05,0,.05-.03,0-.08.06-.09.11-.05.09.05,0,.08-.03.1-.12.11-.14.3-.28.39-.02.29-.3.4-.41.62h.37c-.12.05-.25.01-.38.05h.34s0,.02,0,.02h-.34s0,.02,0,.03c.12,0,.23,0,.35,0,.04,0,.08-.02.11.03-.39,0-.78,0-1.16,0-.14,0-.23-.04-.3-.15-.04-.09-.11-.15-.2-.19h0s-.02-.06-.03-.09c.08-.01.14,0,.19.06.02.04.07.02.1.03.17.06.29.02.39-.13.03-.04.08-.06.1-.1.04-.06.09-.13-.03-.16-.05-.02-.07-.06-.05-.12.01-.06.04-.08.1-.08.03,0,.06,0,.09,0,.1-.02.23.06.28-.04.04-.08.1-.16.11-.26,0-.02.02-.04.03-.06.02-.03.09-.04.04-.09-.03-.03-.09-.03-.12,0-.04.04-.08.08-.13.01-.05-.06-.01-.11.03-.14.06-.05.04-.08,0-.13-.05-.06-.02-.09.05-.09Z"/>
        <path class="cls-43" d="M25.17,6.03s.03-.02.05-.03c.11.04.22.05.33.05.57,0,1.15,0,1.72,0,0,0,0,.02,0,.03-.05.05-.12.03-.18.03-.57,0-1.13,0-1.7,0-.01,0-.03,0-.04,0-.04,0-.07-.02-.09-.04-.04,0-.06-.04-.1-.05Z"/>
        <path class="cls-128" d="M28.42,5.95s-.08.02-.11.02c-.36,0-.72,0-1.08,0,0-.05.04-.02.06-.02.38,0,.76,0,1.13,0Z"/>
        <path class="cls-77" d="M26.83,5.59s.07.05.12.01c.02-.02.1.02.06.06-.04.05.02.08.01.12-.07-.05-.14-.12-.2-.19Z"/>
        <path class="cls-80" d="M25.85,4.56s0,.03,0,.05c-.08-.05-.14-.12-.19-.19.02,0,.03,0,.05,0,.07.03.11.08.15.15Z"/>
        <path class="cls-44" d="M25.85,4.56c-.06-.04-.11-.09-.15-.15.02,0,.03,0,.05,0,.04.03.07.06.1.1v.05Z"/>
        <path class="cls-80" d="M26.83,1.6v-.02s.1,0,.14,0c0,0,0,.02,0,.02h-.14Z"/>
        <path class="cls-80" d="M25.85,4.51s-.07-.06-.1-.1c.06,0,.09.04.1.1Z"/>
        <path class="cls-15" d="M30.48.38c0,.46,0,.91,0,1.37,0,.04.02.09-.02.13V.14s.02,0,.02,0v.24Z"/>
        <path class="cls-120" d="M30.38.91c0,.14.07.29-.04.43-.09-.15.02-.29.04-.43Z"/>
        <path class="cls-120" d="M30.34,1.43s.08.1.06.17c0,.02,0,.05-.02.06-.03,0-.05-.02-.06-.05-.03-.07,0-.13.02-.19Z"/>
        <path class="cls-121" d="M29.47,3.07s.05-.03.07,0c0,.02,0,.06-.03.06-.01,0-.03-.04-.04-.05Z"/>
        <path class="cls-62" d="M29.33,2.99s-.06,0-.1,0c-.01-.03.04-.06,0-.1-.01-.03-.02-.05.02-.05.05.03.09.07.12.12,0,.04-.02.04-.05.02Z"/>
        <path class="cls-121" d="M29.38,2.97c-.05-.03-.09-.07-.12-.12.07.01.11.05.12.12Z"/>
        <path class="cls-63" d="M27.22,9.18s.03-.05.05-.07c0,.07.03.14-.02.2-.02-.04-.03-.08-.03-.13Z"/>
        <path class="cls-63" d="M27.25,9.7c-.04-.05-.02-.11,0-.17v.17h0Z"/>
        <path class="cls-63" d="M25.46,10.87v-.07s.05,0,.04.04c0,.03-.02.03-.04.03Z"/>
        <path class="cls-47" d="M27.3,8.94c-.02-.2-.05-.4.02-.6.22,0,.44,0,.66,0,.08,0,.12.02.11.11,0,.13,0,.27,0,.4,0,.08-.02.11-.11.11-.23,0-.46,0-.68,0,0,0,0-.01,0-.02.03-.11,0-.23.02-.34,0-.02-.03,0-.01,0,0,0,0,0,0,0,0,.11.02.22,0,.33Z"/>
        <path class="cls-109" d="M27.29,7.35c.23,0,.46,0,.68,0,.09,0,.11.03.11.11,0,.12,0,.24,0,.35,0,.09-.02.13-.12.12-.22,0-.45,0-.67,0-.06-.02-.05-.07-.06-.12,0-.09,0-.18,0-.26.01-.07-.02-.15.06-.2Z"/>
        <path class="cls-39" d="M27.27,6.81c0-.08,0-.16,0-.24-.02-.05-.02-.1-.04-.15-.02-.04,0-.09.06-.08.23,0,.45,0,.68,0,.09,0,.11.03.11.11-.01.16.02.31-.02.47-.03,0-.05,0-.08,0-.23,0-.46,0-.69,0-.02,0-.04.01-.05,0,.02-.03.03-.06.02-.09Z"/>
        <path class="cls-37" d="M27.25,6.9s.03,0,.04,0c.24-.01.47-.02.71,0,.02,0,.04,0,.06,0-.22.02-.45,0-.67,0-.09,0-.13.02-.12.12,0,.1,0,.2,0,.31-.07,0-.06-.05-.06-.09,0-.06-.04-.1-.1-.1-.08,0-.15-.05-.24-.05-.09,0-.17,0-.24.07-.04.05-.12.04-.18.05-.02,0-.05,0-.04-.03.01-.13-.09-.1-.16-.12-.02-.02-.05-.03-.07-.05-.04.01-.05-.01-.06-.04.01-.05-.07-.06-.06-.11.14.02.29-.02.43-.02.04,0,.09,0,.12,0,.12.07.26.06.38.03.1-.02.19,0,.28,0Z"/>
        <path class="cls-114" d="M26.25,7.08s.03,0,.04,0c.14-.05.17-.03.15.13.09-.03.17-.04.26-.11.06-.06.21-.04.32,0,.09.03.24.17.28.25,0,0,.01,0,.01,0-.03.06,0,.13-.02.19-.08-.03-.16-.04-.24-.06-.11-.02-.2-.08-.29-.14-.02.07.07.11.01.16-.04.03-.08.01-.11-.03-.14-.12-.26-.26-.39-.39Z"/>
        <path class="cls-96" d="M25.26,6.08l.08.02c.09,0,.17.05.25.08.22.08.44.07.66.07.22,0,.43,0,.64-.01.06,0,.12,0,.18-.03.13-.06.13-.06.2.06,0,0,0,.02,0,.02-.06.13-.16.15-.29.16-.21.02-.41-.04-.62,0-.11.02-.22-.06-.34-.04-.1.02-.19,0-.29,0-.05,0-.1-.02-.15-.03,0,0-.02,0-.02,0-.12-.08-.22-.17-.3-.29Z"/>
        <path class="cls-50" d="M26.64,7.47s.07.04.1.01c.03-.04-.02-.05-.04-.07-.02-.02-.05-.05-.02-.08.03-.02.06-.03.09,0,.12.11.26.15.42.15.04,0,.05.05.08.07.02.13-.02.26.02.39-.03.13,0,.26-.02.39-.07-.07.01-.17-.05-.24,0,0,0-.01,0-.02,0,0,0,0,0,0-.04-.08-.1-.13-.2-.12.02-.15-.11-.19-.2-.25-.09-.06-.14-.13-.19-.21Z"/>
        <path class="cls-43" d="M27.27,6.27c-.05-.09-.12-.12-.2-.03-.01.02-.05.03-.07.02-.21-.02-.41.02-.62.01-.2,0-.39-.01-.59-.01-.07,0-.12,0-.18-.05-.04-.03-.09-.08-.16-.02-.03.02-.07,0-.02-.04-.03-.02-.08-.02-.1-.06h0c.08-.02.17,0,.26-.01.1.06.21.05.32.05.2,0,.4,0,.59.04.03,0,.06,0,.1,0,.11-.04.22-.03.32-.03.05,0,.1.03.11-.05.08,0,.16-.01.24.01.01.06-.03.11,0,.17Z"/>
        <path class="cls-49" d="M25.58,6.37c.07-.07.13.01.21,0,.07,0,.15,0,.22,0,.09,0,.19-.03.27.04.01.01.04.01.06,0,.23-.07.46.03.69,0,.1-.01.17-.06.24-.13,0,.01.01.03.02.04-.05.02-.04.06-.03.1.01.04,0,.09,0,.13-.02-.01-.02-.03-.02-.05-.01-.07-.07-.05-.11-.05-.21.01-.41.02-.62.04-.08,0-.15-.02-.23-.02-.16,0-.31,0-.47,0-.11,0-.19-.03-.24-.12Z"/>
        <path class="cls-16" d="M27.27,6.1c-.08,0-.16,0-.25,0-.04.03-.09.04-.14.04-.37,0-.74,0-1.12,0-.06,0-.11-.02-.16-.04-.09,0-.18,0-.27,0,.04-.04.09-.02.14-.02.6,0,1.2,0,1.79,0,0,0,0,.02,0,.02Z"/>
        <path class="cls-26" d="M28.47,9.33h-1.12s0-.02,0-.03c.11,0,.22,0,.33,0,.22,0,.44,0,.66,0,.08,0,.11-.02.11-.11,0-.21,0-.43.02-.64,0,.26,0,.52,0,.78h0Z"/>
        <path class="cls-9" d="M27.98,7.98h-.53c.18-.01.35-.01.53-.01,0,0,0,0,0,.01Z"/>
        <path class="cls-58" d="M28.57,7.35s-.02.08-.02.13c0,.25,0,.5,0,.75,0,.04.02.09-.02.13,0-.72,0-1.45,0-2.17.02,0,.03,0,.03.02,0,.12.02.24,0,.37,0,.07,0,.13,0,.2,0,.2.04.39.02.59Z"/>
        <path class="cls-52" d="M28.94,7.61s.02,0,.02.02c0,.01,0,.03-.01.04,0,0-.02-.01-.03-.02,0-.02,0-.03.02-.04Z"/>
        <path class="cls-92" d="M30.04,5c-.06.12,0,.25-.05.37v-.47c-.04.08-.08.09-.14.05-.16-.09-.33-.06-.5-.02-.09.02-.18.05-.27,0-.12-.11-.24-.23-.37-.34.05-.08.14-.07.2-.05.22.05.44.03.66.04.07,0,.14,0,.21,0,.08,0,.16.02.23.03.07.06.02.14.04.21-.02.06,0,.12-.02.17,0,0,0,0-.01.01Z"/>
        <path class="cls-38" d="M30.01,4.61v.07c-.02-.06-.06-.07-.12-.07-.27,0-.53,0-.8,0-.11,0-.22-.07-.34-.04-.02,0-.03,0-.04.02-.02,0-.04-.03-.05-.05-.05-.09-.14-.14-.2-.22.07-.04.14.02.21.01.32-.02.63.05.95.02.09,0,.17.04.26.04.05,0,.1,0,.15-.02.04,0,.02.04.03.06.02.08-.05.12-.06.19Z"/>
        <path class="cls-53" d="M28.54,6.56c-.01-.13.03-.26-.02-.39,0-.07-.01-.14.03-.21,0,.2.05.4,0,.59Z"/>
        <path class="cls-94" d="M30.11,5.42c.18,0,.36,0,.54,0,.07,0,.09.02.09.09,0,.48,0,.96,0,1.44,0,.07-.02.09-.09.09-.18,0-.36,0-.54,0,0-.54,0-1.08,0-1.61Z"/>
        <path class="cls-55" d="M30.01,4.61s-.09-.09.02-.1c.04,0,.03-.04.03-.07,0-.01.01-.01.02,0v.78c-.04-.08-.05-.15-.05-.22.03-.05,0-.12.02-.17-.05-.07,0-.16-.05-.22Z"/>
        <path class="cls-5" d="M30.08,4.44s-.01,0-.02,0v-.07c-.07-.08-.02-.16,0-.24,0-.04,0-.08-.02-.12,0-.03,0-.05.02-.07.05.14,0,.28.03.42,0,.03,0,.06,0,.1Z"/>
        <path class="cls-94" d="M31.11,7.91c.02-.06.06-.11.05-.17-.02-.04-.01-.09-.01-.13,0-.84,0-1.69,0-2.53,0-.16,0-.32-.06-.47,0-.01,0-.03,0-.04.1-.04.17-.13.27-.17.06-.02.13-.05.13-.15,0-.05.05-.08.12-.05.14.06.16.04.19-.1,0-.03.01-.05.04-.06.14-.03.1-.15.07-.21-.05-.1-.05-.18.05-.24.02-.01.04-.04.04-.07.06.09.14.16.23.22.04.03.07.05.09.09.07.11.18.2.28.29.03.03.07.04.09.08-.04.06-.06.13-.09.2-.04.09-.08.19-.18.23-.01,0-.02.01-.03.02-.02.15-.19.2-.24.33,0,.01-.01.02-.02.03-.15.05-.17.19-.25.3-.13.17-.25.34-.44.45-.04.02-.07.06-.12.04-.03-.01-.03-.01-.03-.12,0,.17.06.34-.01.5,0,.28,0,.57,0,.85,0,.04.02.09-.02.13-.04-.04-.02-.08-.02-.13,0-.37,0-.74,0-1.11,0-.26,0-.52,0-.78,0-.09.01-.18.02-.27-.03.3-.02.6,0,.9,0,.12,0,.24,0,.35,0,.42,0,.85,0,1.27,0,.05.01.11-.02.15,0,.07,0,.14,0,.22,0,.06-.01.12-.08.15Z"/>
        <path class="cls-94" d="M31.23,4.02c-.08.01-.09-.03-.09-.1,0-.07.03-.1.1-.1.08,0,.1.03.1.11,0,.08-.04.1-.11.09Z"/>
        <path class="cls-94" d="M31.73,3.91s.02.09-.04.1c-.05,0-.06-.03-.06-.07,0-.05.02-.1.07-.1.05,0,.02.05.03.07Z"/>
        <path class="cls-94" d="M31.02,4.46s.07-.02.11-.03q-.04.08-.11.03h0Z"/>
        <path class="cls-94" d="M31.02,4.46s-.04,0-.05,0h0s-.01-.03-.02-.05c.04-.01.06.01.07.04h0Z"/>
        <path class="cls-17" d="M27.62,3.43c0-.59,0-1.17,0-1.76,0,0,.02,0,.02,0,0,.54,0,1.08,0,1.62,0,.05.02.1-.02.14Z"/>
        <path class="cls-33" d="M30.06,4.12v.24c-.03.05-.04.08-.14.06-.12-.03-.24-.06-.38-.05-.3.03-.6-.03-.9-.02-.06,0-.12-.03-.18-.05h0s-.05-.04-.07-.07c-.07-.06-.14-.12-.2-.2.22.09.46.08.68.13.33.07.65.02.98.04.09,0,.16-.02.2-.1Z"/>
        <path class="cls-68" d="M30.01,4c-.1,0-.19.02-.29.06-.19.08-.38.03-.57-.02-.03,0-.07-.01-.11,0-.27,0-.55-.05-.84-.02.05-.05.11,0,.14-.05.03-.02.06-.01.09-.01.48,0,.97,0,1.45,0,.05,0,.11-.03.12.06Z"/>
        <path class="cls-40" d="M30.01,4c-.03-.06-.09-.05-.14-.05-.51,0-1.02,0-1.52,0h-.12s0-.02,0-.02c.61,0,1.22,0,1.83,0,0,.03,0,.06-.02.07,0,0-.02,0-.02,0Z"/>
        <path class="cls-38" d="M28.4,4.24s.06.04.07.07c-.05,0-.07-.03-.07-.07Z"/>
        <path class="cls-29" d="M31.36,2.85s.03.02.05.02c.02.02.03.05.05.07-.06,0-.09-.04-.1-.1Z"/>
        <path class="cls-129" d="M31.11,2.43c.58,0,1.16,0,1.74,0-.2.03-.38.1-.59.08-.26-.02-.53,0-.79,0-.12,0-.24-.06-.36-.07Z"/>
        <path class="cls-85" d="M32.92,2.65c0,.07-.02.09-.1.1-.33.04-.66.01-.99.02-.19,0-.38,0-.58-.03-.03-.02-.06-.04-.07-.07.12-.05.23.03.35.01.06,0,.14.01.22,0,.26-.01.51.02.76.03.07,0,.14,0,.2-.06.05-.05.13-.01.2-.02Z"/>
        <path class="cls-45" d="M31.26,6.17v-.57s.02.02.02.02c.01.05-.03.12.03.14.06.03.08-.06.13-.08.07-.03.1-.11.18-.11,0,0,.03-.01.03-.02.03-.19.26-.27.29-.46,0-.02.02-.05.03-.05.11-.02.15-.12.21-.19.06-.07.16-.1.15-.21,0-.01.03-.03.04-.04.14-.06.2-.19.21-.33,0-.07.08-.05.1-.09.12.02.13.17.22.22,0,.25-.01.51,0,.76.01.14-.08.25-.08.38,0,.04-.07.02-.08.04-.02.13-.14.17-.21.25-.05.05-.1.1-.15.16-.08.08-.15.17-.24.24-.05.04-.02.15-.01.22,0,.08-.03.11-.11.1-.05,0-.1,0-.15,0-.02,0-.07,0-.07,0-.03.15-.24.16-.27.31,0,.04-.03.07-.07.07-.09,0-.11.06-.12.13-.04.23-.01.47-.02.7,0,.04,0,.08,0,.15-.04-.07-.02-.11-.02-.16,0-.49,0-.99,0-1.48,0-.04.02-.09-.02-.13Z"/>
        <path class="cls-45" d="M31.19,7.54c0-.49-.02-.99,0-1.48.01-.25-.02-.5,0-.75,0-.16.02-.32.05-.48v2.32c0,.1,0,.2,0,.3,0,.04.01.08-.05.09Z"/>
        <path class="cls-76" d="M31.09,4.61c.06.05.08.13.08.2,0,.97,0,1.94,0,2.91,0,0,0,.02,0,.02-.04-.04-.02-.09-.02-.14,0-.87,0-1.74,0-2.6,0-.11,0-.23-.06-.33-.02-.02,0-.05.02-.06Z"/>
        <path class="cls-32" d="M23.9,7.96c.48,0,.96,0,1.44,0,.04,0,.09-.02.13.02-.04.04-.1.03-.15.03-1.07,0-2.15,0-3.22,0-.05,0-.11,0-.15-.03.04-.04.08-.02.13-.02.35,0,.7,0,1.05,0h.78Z"/>
        <path class="cls-115" d="M23.14,7.61s-.04-.02-.04-.04c0-.03.02-.05.05-.05.02,0,.03.02.03.04,0,.03-.02.04-.04.05Z"/>
        <path class="cls-42" d="M21.94,7.98c1.17,0,2.35,0,3.52,0,0,.02,0,.03,0,.05-.01,0-.03.01-.05,0-1.13,0-2.25,0-3.38,0-.06,0-.11,0-.17,0,0,0-.02,0-.02,0,0,0-.02,0-.02,0,0-.02-.02-.03-.02-.05.03-.02.07-.02.1,0,.02,0,.03,0,.05,0Z"/>
        <path class="cls-127" d="M21.74,8.06s.06,0,.06.05c0,.09.03.18-.01.27-.07-.02,0-.05,0-.07,0-.05.01-.1-.01-.18,0,.07,0,.11,0,.15,0,0-.01,0-.02,0v-.21Z"/>
        <path class="cls-32" d="M21.89,7.98s-.07,0-.1,0c.03-.07.07-.01.1,0Z"/>
        <path class="cls-13" d="M26.34,9.36c0,.11-.17.22-.24.18-.02-.01-.03-.03-.02-.05.05-.06.1-.14.16-.18.05-.03.1,0,.1.05Z"/>
        <path class="cls-13" d="M27.22,8.06s0,.02,0,.02c0,.04.01.09-.04.11-.01,0-.04,0-.05,0-.03-.02-.03-.06-.02-.1.02-.08.08-.02.12-.03Z"/>
        <path class="cls-13" d="M25.51,9.7c.03.11.05.22.05.34,0,.03-.02.05-.05.06-.04-.13-.04-.26,0-.39Z"/>
        <path class="cls-63" d="M25.27,10.23h-.36s0-.02,0-.02c.12,0,.24,0,.36,0v.02Z"/>
        <path class="cls-13" d="M25.6,9.73v.34h-.01v-.34s0,0,.01,0Z"/>
        <path class="cls-63" d="M25.51,9.7v.39s-.02,0-.02,0c-.02-.13-.02-.26,0-.39,0,0,.02,0,.02,0Z"/>
        <path class="cls-13" d="M25.49,9.7c0,.13,0,.26,0,.39,0,0-.02,0-.03,0,0-.13,0-.26,0-.39,0,0,.02,0,.03,0Z"/>
        <path class="cls-13" d="M25.65,9.75v.31s0,0-.01,0v-.31s0,0,.01,0Z"/>
        <path class="cls-6" d="M24.07,10.94s.02.03.02.05c-.08.03-.16,0-.24,0-.61,0-1.22,0-1.83,0-.03,0-.06,0-.08-.01-.02-.04-.08,0-.1-.05.05-.05.11-.03.17-.03.65,0,1.3,0,1.95,0,.02,0,.04,0,.06,0,.01,0,.03,0,.04.01.01.01.01.02,0,.03Z"/>
        <path class="cls-70" d="M21.82,10.48s.02.01.02.02c.07.12.03.24.03.37,0,.01,0,.03-.02.04,0,0-.01.01-.02.01-.02,0-.04-.02-.05-.03-.04-.09-.11-.13-.21-.13-.03,0-.06-.03-.05-.07,0-.04.03-.06.07-.07.05,0,.1,0,.15,0,0,0,0,.01.02.01,0,0-.01,0-.02-.01.03-.05.1-.07.07-.15Z"/>
        <path class="cls-1" d="M21.94,10.99c.72,0,1.44,0,2.15,0v.02c-.67,0-1.34,0-2.01,0-.05,0-.1.02-.14-.02Z"/>
        <path class="cls-14" d="M24.02,10.92s-.09.02-.14.02c-.68,0-1.36,0-2.04,0,0,0,0-.02,0-.02h0s.1-.04.15-.04c.63,0,1.25,0,1.88,0,.05,0,.11-.01.15.04Z"/>
        <path class="cls-119" d="M21.94,8.84s0-.03,0-.05c.52,0,1.04,0,1.57,0,0,0,0,.02,0,.02,0,0,.01.01,0,.02,0,0,0,0,0,0-.52,0-1.04,0-1.57,0Z"/>
        <path class="cls-30" d="M25.46,8.74c-.65,0-1.3,0-1.96,0,.04-.04.08-.02.13-.02.41,0,.83,0,1.24,0,.16,0,.32,0,.47,0,.04,0,.08-.01.11.02Z"/>
        <path class="cls-104" d="M23.51,8.84s0-.02,0-.02c.61,0,1.21,0,1.82,0,.05,0,.1-.02.14.02-.65,0-1.3,0-1.96,0Z"/>
        <path class="cls-70" d="M26.12,6.98s.03.04.05.05c-.02.04-.06.05-.1.07,0-.04-.02-.09.02-.12,0-.01.02-.01.02,0Z"/>
        <path class="cls-83" d="M24.07,10.94s0-.02,0-.02c0-.15-.04-.3.02-.44h0c.06.14,0,.28.04.42,0,.03-.03.04-.06.04Z"/>
        <path class="cls-81" d="M21.94,9.21c-.13-.06-.06-.17-.08-.28.05.06,0,.12.05.17,0-.04,0-.07,0-.1,0-.06.03-.08.08-.08.12,0,.24,0,.37,0,.97,0,1.94,0,2.91,0,.05,0,.12-.03.13.03.02.08.02.16,0,.24,0,.04-.07.02-.11.02-.4,0-.79,0-1.19,0-.73,0-1.45,0-2.18,0h0Z"/>
        <path class="cls-118" d="M21.94,9.21s.09.02.14.02c1.07,0,2.14,0,3.2,0,.04,0,.09-.01.13.01-.03.02-.07.01-.1.01-1.11,0-2.22,0-3.33,0-.02,0-.05,0-.07,0-.02,0-.05,0-.03-.03,0-.01.04-.01.05-.02h0Z"/>
        <path class="cls-112" d="M21.84,10.89c0-.13,0-.26,0-.39.01,0,.02,0,.03-.01.69,0,1.38,0,2.08,0,.13,0,.13,0,.13.13,0,.09,0,.17,0,.26,0,.02-.02.02-.03.02-.02-.03-.01-.07-.01-.11,0,.05,0,.1-.07.1-.04,0-.07,0-.11,0-.66,0-1.31,0-1.97,0-.01,0-.03,0-.04,0Z"/>
        <path class="cls-126" d="M24.07,10.89c0-.13.05-.28-.02-.37-.07-.08-.23-.03-.35-.03-.57,0-1.13,0-1.7,0-.04,0-.09,0-.13,0,.04,0,.08,0,.12,0,.7,0,1.4,0,2.1,0-.01.15.03.3-.02.44h0s-.01-.01,0-.02c0,0,0,0,0,0Z"/>
        <path class="cls-35" d="M25.44,8.45c-.05,0-.11,0-.16,0-1.1,0-2.2,0-3.3,0-.11,0-.16-.03-.14-.14,0-.08,0-.17,0-.26.01,0,.02-.01.04-.01.03,0,.07.01.1.02.76,0,1.51,0,2.27,0,.33,0,.67,0,1,0,.2,0,.22.02.22.22,0,.05,0,.11-.03.15Z"/>
        <path class="cls-66" d="M25.44,8.45c0-.08,0-.16,0-.23,0-.09-.03-.11-.11-.11-.36,0-.72,0-1.07,0-.72,0-1.45,0-2.17,0-.05,0-.1.02-.14-.02.05-.05.12-.03.19-.03.98,0,1.96,0,2.94,0,.07,0,.13,0,.2,0,.07,0,.15-.04.21.03.03.13.04.25-.01.38h0s-.01,0-.01,0h-.01Z"/>
        <path class="cls-12" d="M25.46,8.06c-.06-.02-.11.04-.17,0-.03.02-.06.01-.1.01-1.08,0-2.15,0-3.23,0-.03,0-.07,0-.1,0,0,0-.02,0-.02,0,0,0,0-.02,0-.03h0s.06-.01.1-.01c1.13,0,2.27,0,3.4,0,.03,0,.07,0,.1,0,0,0,.02,0,.02,0h0s.01.02,0,.02Z"/>
        <path class="cls-70" d="M24.96,7.93c-.06,0-.11,0-.17,0-.05,0-.11.02-.11-.07,0-.07-.01-.13.09-.13.06,0,.1-.04.1-.1,0-.06.02-.1.09-.1.07,0,.11-.04.11-.11,0-.08.04-.09.11-.09.06,0,.12,0,.18,0,.05,0,.1,0,.1-.08,0-.07-.03-.11-.1-.12-.01,0-.02,0-.04,0-.04,0-.12.02-.1-.04.01-.05,0-.15.1-.15.05,0,.1-.01.15-.04.06-.02.12-.03.17.02.05.05.07.11.03.18-.02.04-.03.08-.03.12,0,.08-.03.12-.11.11-.07,0-.09.03-.09.09,0,.04,0,.09,0,.13,0,.1,0,.18-.14.17-.06,0-.06.04-.06.08.01.1-.04.12-.12.11-.06,0-.12,0-.18,0Z"/>
        <path class="cls-82" d="M25.27,6.87c0,.06-.1.2-.14.2-.04,0-.06-.04-.05-.07.03-.07-.01-.19.11-.21.05,0,.08.03.08.08Z"/>
        <path class="cls-13" d="M26.12,6.98h-.02s-.04-.03-.08-.03c-.06.01-.07-.02-.04-.07-.01-.02-.04-.04-.02-.07.05,0,.08.03.1.07.02.03.08.04.07.1Z"/>
        <path class="cls-31" d="M25.46,8.06s0-.02,0-.03c.03.01.04.05.05.07,0,.01,0,.02,0,.04-.02.08.02.18-.03.26,0,.02,0,.04-.03.05,0-.13,0-.26,0-.39Z"/>
        <path class="cls-70" d="M25.95,6.81s.05.04.02.07c-.05,0-.1,0-.12-.06-.01-.03,0-.06.04-.07.02.02.03.03.05.05Z"/>
        <path class="cls-13" d="M25.63,8.05v.24c0-.08-.05-.16-.03-.25.01,0,.02,0,.03,0Z"/>
        <path class="cls-13" d="M25.49,8.4c.01-.09-.03-.18.02-.27.03.06,0,.13.02.2,0,.04,0,.07-.05.07Z"/>
        <path class="cls-70" d="M25.54,8.33c-.05-.06-.01-.13-.02-.2,0,0,0-.02,0-.02.05.07.01.15.02.22Z"/>
        <path class="cls-13" d="M25.58,8.13c0,.06,0,.11,0,.17-.01-.06-.04-.11,0-.17Z"/>
        <path class="cls-77" d="M26.68,5.03s-.02.04-.04.04c-.02,0-.04-.02-.04-.04,0-.02.02-.02.03-.02.02,0,.04,0,.04.02Z"/>
        <path class="cls-21" d="M27.4,8.92h.63s0,0,0,.01h-.63,0Z"/>
        <path class="cls-21" d="M27.3,8.94v-.39c0,.13.06.26,0,.39h0Z"/>
        <path class="cls-84" d="M27.45,7.38h.56s0,.01,0,.02h-.57s0-.01,0-.02Z"/>
        <path class="cls-100" d="M28,6.91c-.24,0-.47.01-.71,0,0-.02,0-.06.02-.05.21.07.42.01.62.03.02,0,.05,0,.06.02Z"/>
        <path class="cls-78" d="M25.61,6.1c.47,0,.95,0,1.42,0,.03.07,0,.07-.07.08-.13,0-.26-.02-.39.04-.07.04-.17,0-.23-.02-.19-.05-.38-.01-.56-.02-.07,0-.12-.02-.17-.08Z"/>
        <path class="cls-41" d="M30.06,4.83c0,.06.02.12-.02.17,0-.06-.02-.12.02-.17Z"/>
        <path class="cls-59" d="M30.62,6.56v.36s-.02,0-.02,0c0-.12,0-.24,0-.36,0-.29,0-.59,0-.88,0-.08-.02-.11-.1-.11-.1,0-.2,0-.3-.02h.43c.03.18.01.35.01.53,0,.16.02.31-.01.47Z"/>
        <path class="cls-28" d="M30.7,6.92v-1.3s0,0,.01,0v1.31s0,0-.01,0Z"/>
        <path class="cls-28" d="M30.62,6.56c0-.33,0-.67,0-1,.02-.02.05-.04.06-.02.03.03-.03.02-.03.04,0,.03,0,.06,0,.1,0,.25,0,.5,0,.76,0,.04.02.09-.02.13Z"/>
        <path class="cls-45" d="M31.2,4.76s-.02-.09-.02-.13c.05.04.04.08.02.13Z"/>
        <path class="cls-95" d="M31.32,6.93v-.34s0,0,.01,0v.34s0,0-.01,0Z"/>
        <path class="cls-95" d="M31.33,6.01v.14s0,0-.01,0v-.14s0,0,.01,0Z"/>
        <path class="cls-82" d="M25.44,8.03c-1.2,0-2.4,0-3.6,0,.04-.04.08-.02.13-.02,1.11,0,2.23,0,3.34,0,.04,0,.09-.02.13.02Z"/>
        <path class="cls-36" d="M24.07,10.89s0,.02,0,.02c-.02,0-.03,0-.05,0-.73,0-1.45,0-2.18,0,0,0,0-.02,0-.03,0,0,.02,0,.02,0,.02-.01.05,0,.07,0,.68,0,1.36,0,2.04,0,.02,0,.04,0,.06,0,0,0,.02,0,.02,0Z"/>
        <path class="cls-126" d="M21.81,10.7c0,.05.02.1,0,.15-.01-.06-.02-.11,0-.15Z"/>
        <path class="cls-126" d="M21.74,10.62s.04,0,.06,0c0,0,0,.02-.01.03-.03.02-.05.02-.05-.02h0Z"/>
        <path class="cls-48" d="M24.04,10.89c-.72,0-1.45,0-2.17,0,.04-.04.08-.02.13-.02.6,0,1.2,0,1.8,0q.21,0,.25-.2v.22Z"/>
        <path class="cls-99" d="M23.9,10.58s.04-.01.02.02c-.03.02-.05.01-.08.01-.61,0-1.21,0-1.82,0-.03,0-.06,0-.08-.01,0,0,0-.02,0-.02.03-.02.05-.01.08-.01.6,0,1.19,0,1.79,0,.03,0,.06,0,.08.01Z"/>
        <path class="cls-107" d="M21.94,10.6c.66,0,1.32,0,1.98,0-.03.04-.08.02-.11.02-.58,0-1.17,0-1.75,0-.04,0-.08.01-.11-.02Z"/>
        <path class="cls-65" d="M23.9,10.58c-.65,0-1.3,0-1.96,0,.03-.04.08-.02.11-.02.58,0,1.15,0,1.73,0,.04,0,.08-.01.11.02Z"/>
        <path class="cls-57" d="M21.87,8.06c1.14,0,2.28,0,3.42,0-.04.04-.09.02-.14.02-1.07,0-2.14,0-3.21,0-.03,0-.05,0-.07-.02Z"/>
      </g>
    </g>
  </g>
</svg>