<?xml version="1.0" encoding="UTF-8"?>
<svg id="Layer_2" data-name="Layer 2" xmlns="http://www.w3.org/2000/svg" viewBox="0 0 32.98 32.98">
  <defs>
    <style>
      .cls-1 {
        fill: #1ea266;
      }

      .cls-2 {
        fill: #fff;
      }

      .cls-3 {
        fill: #47b980;
      }

      .cls-4 {
        fill: none;
      }

      .cls-5 {
        fill-rule: evenodd;
      }

      .cls-5, .cls-6 {
        fill: #137d40;
      }

      .cls-7 {
        fill: #195c37;
      }

      .cls-8 {
        opacity: .09;
      }

      .cls-9 {
        opacity: .2;
      }
    </style>
  </defs>
  <g id="Layer_1-2" data-name="Layer 1">
    <g>
      <path class="cls-1" d="M20.61,2.06h-10.99c-.75,0-1.37.62-1.37,1.37v5.84l12.37,7.21,6.18,2.61,6.18-2.61v-7.21l-12.37-7.21Z"/>
      <path class="cls-5" d="M8.24,9.27h12.37v7.21h-12.37v-7.21Z"/>
      <path class="cls-3" d="M31.6,2.06h-10.99v7.21h12.37V3.44c0-.75-.62-1.37-1.37-1.37h0Z"/>
      <path class="cls-7" d="M20.61,16.49h-12.37v13.05c0,.75.62,1.37,1.37,1.37h21.99c.75,0,1.37-.62,1.37-1.37v-5.84l-12.37-7.21Z"/>
      <path class="cls-5" d="M20.61,16.49h12.37v7.21h-12.37v-7.21Z"/>
      <g>
        <path class="cls-8" d="M17.18,7.21h-8.93v19.58h8.93c.75,0,1.37-.62,1.37-1.37V8.59c0-.75-.62-1.37-1.37-1.37h0Z"/>
        <g>
          <path class="cls-9" d="M16.15,8.24h-7.9v19.58h7.9c.75,0,1.37-.62,1.37-1.37V9.62c0-.75-.62-1.37-1.37-1.37h0Z"/>
          <path class="cls-9" d="M16.15,8.24h-7.9v17.52h7.9c.75,0,1.37-.62,1.37-1.37v-14.77c0-.75-.62-1.37-1.37-1.37h0Z"/>
          <path class="cls-9" d="M15.11,8.24h-6.87v17.52h6.87c.75,0,1.37-.62,1.37-1.37v-14.77c0-.75-.62-1.37-1.37-1.37h0Z"/>
        </g>
        <path class="cls-6" d="M1.37,8.24h13.74c.75,0,1.37.62,1.37,1.37v13.74c0,.75-.62,1.37-1.37,1.37H1.37c-.75,0-1.37-.62-1.37-1.37v-13.74c0-.75.62-1.37,1.37-1.37h0Z"/>
        <path class="cls-2" d="M3.64,21.64l3.33-5.17-3.05-5.14h2.46l1.67,3.28c.15.31.26.54.32.7h.02c.11-.25.23-.49.35-.73l1.78-3.26h2.26l-3.13,5.11,3.21,5.2h-2.4l-1.93-3.61c-.09-.15-.17-.31-.23-.48h-.03c-.06.16-.13.32-.22.47l-1.98,3.62h-2.41Z"/>
      </g>
      <path class="cls-4" d="M0,0h32.98v32.98H0V0Z"/>
    </g>
  </g>
</svg>