<?xml version="1.0" encoding="UTF-8"?>
<svg id="Layer_2" xmlns="http://www.w3.org/2000/svg" version="1.1" viewBox="0 0 30 45">
  <!-- Generator: Adobe Illustrator 29.6.0, SVG Export Plug-In . SVG Version: 2.1.1 Build 207)  -->
  <defs>
    <style>
      .st0 {
        fill: #8062a9;
      }

      .st1 {
        fill: #46b87e;
      }

      .st2 {
        fill: #f27264;
      }

      .st3 {
        fill: #ee5125;
      }

      .st4 {
        fill: #47b5e7;
      }
    </style>
  </defs>
  <g id="Layer_1-2">
    <g>
      <path id="path0_fill" class="st1" d="M9,40.4c3.3,0,6-2.7,6-6v-6h-6c-3.3,0-6,2.7-6,6s2.7,6,6,6Z"/>
      <path id="path1_fill" class="st0" d="M3.1,22.5c0-3.3,2.7-6,6-6h6v11.9h-6c-3.3,0-6-2.7-6-6h0Z"/>
      <path id="path1_fill-2" class="st3" d="M3.1,10.6c0-3.3,2.7-6,6-6h7v11.9h-7c-3.3,0-6-2.7-6-6h0Z"/>
      <path id="path2_fill" class="st2" d="M15,4.6h6c3.3,0,6,2.7,6,6s-2.7,6-6,6h-6V4.6Z"/>
      <path id="path3_fill" class="st4" d="M26.9,22.5c0,3.3-2.7,6-6,6s-6-2.7-6-6,2.7-6,6-6,6,2.7,6,6Z"/>
    </g>
  </g>
</svg>