<?xml version="1.0" encoding="UTF-8"?>
<svg id="Layer_2" data-name="Layer 2" xmlns="http://www.w3.org/2000/svg" viewBox="0 0 45.79 44.65">
  <defs>
    <style>
      .cls-1 {
        fill: #2e1313;
      }

      .cls-2 {
        fill: #f6981f;
      }
    </style>
  </defs>
  <g id="Layer_1-2" data-name="Layer 1">
    <g id="Layer_2-2" data-name="Layer 2">
      <g id="Surfaces">
        <g id="Drawing_Surface" data-name="Drawing Surface">
          <g id="Outline_no_shadow" data-name="Outline no shadow">
            <path class="cls-1" d="M8.11,0h29.58c4.48,0,8.11,3.63,8.11,8.11v28.43c0,4.48-3.63,8.11-8.11,8.11H8.11c-4.48,0-8.11-3.63-8.11-8.11V8.11C0,3.63,3.63,0,8.11,0Z"/>
          </g>
        </g>
      </g>
      <g id="Outlined_Mnemonics_Logos" data-name="Outlined Mnemonics Logos">
        <g id="Ai">
          <path class="cls-2" d="M22.19,26.79h-7.1l-1.45,4.48c-.04.17-.19.29-.36.27h-3.59c-.21,0-.27-.11-.21-.34l6.14-17.69c.06-.19.11-.4.19-.63.08-.4.11-.82.11-1.24-.02-.1.06-.19.15-.21h4.94c.15,0,.23.06.25.15l6.96,19.65c.06.21,0,.31-.19.31h-3.99c-.13.02-.27-.08-.31-.21l-1.56-4.54ZM16.2,22.92h4.85c-.11-.4-.27-.88-.44-1.37-.17-.52-.34-1.07-.52-1.64-.19-.59-.36-1.16-.55-1.76s-.36-1.14-.52-1.7c-.15-.53-.29-1.03-.42-1.49h-.04c-.17.82-.38,1.64-.65,2.46-.29.92-.57,1.87-.88,2.82-.27.97-.55,1.87-.84,2.67h0Z"/>
          <path class="cls-2" d="M32.4,14.69c-.63.02-1.24-.23-1.7-.67-.44-.48-.67-1.11-.65-1.76-.02-.65.23-1.26.69-1.7.46-.44,1.07-.67,1.7-.67.74,0,1.32.23,1.74.67.42.46.65,1.07.63,1.7.02.65-.21,1.28-.67,1.76-.44.46-1.09.71-1.74.67ZM30.26,31.26v-14.69c0-.19.08-.27.25-.27h3.78c.17,0,.25.1.25.27v14.69c0,.21-.08.31-.25.31h-3.74c-.19,0-.29-.11-.29-.31Z"/>
        </g>
      </g>
    </g>
  </g>
</svg>