<?xml version="1.0" encoding="UTF-8"?>
<svg id="Layer_2" data-name="Layer 2" xmlns="http://www.w3.org/2000/svg" viewBox="0 0 45.93 44.78">
  <defs>
    <style>
      .cls-1 {
        fill: #ec3868;
      }

      .cls-2 {
        fill: #412;
      }
    </style>
  </defs>
  <g id="Layer_1-2" data-name="Layer 1">
    <g>
      <g id="Surfaces">
        <g id="Publishing_Surface" data-name="Publishing Surface">
          <g id="Outline_no_shadow" data-name="Outline no shadow">
            <path class="cls-2" d="M8.13,0h29.66c4.5,0,8.13,3.64,8.13,8.13v28.51c0,4.5-3.64,8.13-8.13,8.13H8.13c-4.5,0-8.13-3.64-8.13-8.13V8.13C0,3.64,3.64,0,8.13,0Z"/>
          </g>
        </g>
      </g>
      <g id="Outlined_Mnemonics_Logos" data-name="Outlined Mnemonics Logos">
        <g id="Id">
          <path class="cls-1" d="M16.69,11.71v19.63c0,.21-.1.31-.27.31h-3.75c-.17,0-.25-.1-.25-.31V11.71c0-.17.1-.25.27-.25h3.73c.11-.02.23.06.25.19.02.02.02.04.02.06Z"/>
          <path class="cls-1" d="M27.71,31.96c-1.42.02-2.83-.27-4.11-.86-1.21-.55-2.2-1.47-2.89-2.6-.71-1.17-1.05-2.62-1.05-4.36-.02-1.42.34-2.81,1.05-4.04.73-1.24,1.78-2.28,3.04-2.97,1.34-.75,2.95-1.11,4.84-1.11.1,0,.23,0,.4.02.17.02.36.02.59.04v-6.05c0-.13.06-.21.19-.21h3.88c.1-.02.17.06.19.13v18.26c0,.34.02.73.04,1.15.04.4.06.78.08,1.11,0,.13-.06.25-.19.31-1,.42-2.05.73-3.12.92-.96.17-1.95.27-2.95.27ZM29.59,28.13v-8.42c-.17-.04-.34-.08-.52-.1-.21-.02-.42-.04-.63-.04-.75,0-1.49.15-2.16.5-.65.33-1.21.8-1.63,1.42-.42.61-.63,1.44-.63,2.43-.02.67.1,1.34.33,1.97.19.52.48.98.86,1.36.36.34.8.61,1.3.77.52.17,1.05.25,1.59.25.29,0,.55-.02.8-.04.25.02.48-.02.69-.1Z"/>
        </g>
      </g>
    </g>
  </g>
</svg>