<?xml version="1.0" encoding="UTF-8"?>
<svg id="Layer_2" data-name="Layer 2" xmlns="http://www.w3.org/2000/svg" viewBox="0 0 32.39 32.39">
  <defs>
    <style>
      .cls-1 {
        fill: #f5de17;
      }
    </style>
  </defs>
  <g id="Layer_1-2" data-name="Layer 1">
    <g>
      <rect class="cls-1" width="32.39" height="32.39"/>
      <path d="M21.76,25.3c.65,1.07,1.5,1.85,3,1.85,1.26,0,2.07-.63,2.07-1.5,0-1.04-.83-1.41-2.22-2.02l-.76-.33c-2.2-.94-3.66-2.11-3.66-4.59,0-2.28,1.74-4.02,4.46-4.02,1.94,0,3.33.67,4.33,2.44l-2.37,1.52c-.52-.94-1.08-1.3-1.96-1.3s-1.46.57-1.46,1.3c0,.91.57,1.28,1.87,1.85l.76.33c2.59,1.11,4.05,2.24,4.05,4.78,0,2.74-2.15,4.24-5.04,4.24s-4.65-1.35-5.55-3.11l2.47-1.44ZM11.01,25.57c.48.85.91,1.57,1.96,1.57s1.63-.39,1.63-1.91v-10.35h3.04v10.39c0,3.15-1.85,4.59-4.54,4.59-2.44,0-3.85-1.26-4.57-2.78l2.48-1.5Z"/>
    </g>
  </g>
</svg>