<?xml version="1.0" encoding="UTF-8"?>
<svg id="Layer_2" data-name="Layer 2" xmlns="http://www.w3.org/2000/svg" viewBox="0 0 45.79 44.65">
  <defs>
    <style>
      .cls-1 {
        fill: #549fd7;
      }

      .cls-2 {
        fill: #0a1f33;
      }
    </style>
  </defs>
  <g id="Layer_1-2" data-name="Layer 1">
    <g id="Layer_2-2" data-name="Layer 2">
      <g id="Surfaces">
        <g id="Photo_Surface" data-name="Photo Surface">
          <g id="Outline_no_shadow" data-name="Outline no shadow">
            <path class="cls-2" d="M8.11,0h29.58c4.48,0,8.11,3.63,8.11,8.11v28.43c0,4.48-3.63,8.11-8.11,8.11H8.11c-4.48,0-8.11-3.63-8.11-8.11V8.11C0,3.63,3.63,0,8.11,0Z"/>
          </g>
        </g>
      </g>
      <g id="Outlined_Mnemonics_Logos" data-name="Outlined Mnemonics Logos">
        <g id="Ps">
          <path class="cls-1" d="M10.3,31.31V11.68c0-.13.06-.21.19-.21.32,0,.63,0,1.07-.02.46-.02.93-.02,1.45-.04.52-.02,1.07-.02,1.66-.04.59-.02,1.16-.02,1.74-.02,1.56,0,2.86.19,3.93.59.95.32,1.83.86,2.56,1.56.61.61,1.09,1.35,1.39,2.18.29.8.44,1.62.44,2.48,0,1.64-.38,3-1.14,4.06s-1.83,1.87-3.07,2.33c-1.3.48-2.73.65-4.29.65-.46,0-.76,0-.95-.02s-.46-.02-.82-.02v6.13c.02.13-.08.25-.21.27h-3.7c-.15,0-.23-.08-.23-.25ZM14.46,15.15v6.41c.27.02.52.04.74.04h1.01c.74,0,1.49-.11,2.19-.34.61-.17,1.14-.53,1.56-1.01.4-.48.59-1.13.59-1.97.02-.59-.13-1.18-.44-1.7-.32-.5-.78-.88-1.34-1.09-.71-.29-1.47-.4-2.25-.38-.5,0-.93,0-1.3.02-.38-.02-.65,0-.78.02h0Z"/>
          <path class="cls-1" d="M36.64,20.4c-.57-.31-1.18-.52-1.83-.65-.71-.15-1.41-.25-2.14-.25-.38-.02-.78.04-1.14.13-.25.06-.46.19-.59.38-.1.15-.15.34-.15.52s.08.34.19.5c.17.21.4.38.65.52.44.23.9.44,1.35.63,1.03.34,2.02.82,2.94,1.39.63.4,1.14.93,1.51,1.58.31.61.46,1.28.44,1.97.02.9-.25,1.79-.74,2.54-.53.76-1.28,1.35-2.14,1.7-.93.4-2.08.61-3.45.61-.88,0-1.74-.08-2.6-.25-.67-.11-1.34-.32-1.95-.61-.13-.08-.23-.21-.21-.36v-3.32c0-.06.02-.13.08-.17.06-.04.11-.02.17.02.74.44,1.53.74,2.37.93.73.19,1.49.29,2.25.29s1.24-.1,1.58-.27c.31-.13.52-.46.52-.8,0-.27-.15-.52-.46-.76-.31-.25-.93-.53-1.87-.9-.97-.34-1.87-.8-2.71-1.37-.59-.42-1.09-.97-1.45-1.62-.31-.61-.46-1.28-.44-1.95,0-.82.23-1.6.65-2.31.48-.76,1.18-1.37,2-1.76.9-.46,2.02-.67,3.38-.67.78,0,1.58.06,2.37.17.57.08,1.13.23,1.64.44.08.02.15.1.19.17.02.08.04.15.04.23v3.11c0,.08-.04.15-.1.19-.17.04-.27.04-.34,0Z"/>
        </g>
      </g>
    </g>
  </g>
</svg>