<?xml version="1.0" encoding="UTF-8"?>
<svg id="Layer_2" data-name="Layer 2" xmlns="http://www.w3.org/2000/svg" xmlns:xlink="http://www.w3.org/1999/xlink" viewBox="0 0 47.06 26.47">
  <defs>
    <style>
      .cls-1 {
        fill: #fff;
      }

      .cls-2 {
        fill: none;
      }

      .cls-3 {
        fill: url(#radial-gradient);
      }

      .cls-4 {
        clip-path: url(#clippath-1);
      }

      .cls-5 {
        fill: #787bb2;
      }

      .cls-6 {
        clip-path: url(#clippath-2);
      }

      .cls-7 {
        clip-path: url(#clippath);
      }
    </style>
    <clipPath id="clippath">
      <path class="cls-2" d="M.94,13.24c0,6.56,10.11,11.88,22.59,11.88h0c12.48,0,22.59-5.32,22.59-11.88h0c0-6.56-10.11-11.88-22.59-11.88h0C11.06,1.35.94,6.67.94,13.24"/>
    </clipPath>
    <radialGradient id="radial-gradient" cx="234.18" cy="39.94" fx="234.18" fy="39.94" r=".07" gradientTransform="translate(-106261.75 18132.57) scale(453.82 -453.82)" gradientUnits="userSpaceOnUse">
      <stop offset="0" stop-color="#aeb1d4"/>
      <stop offset=".3" stop-color="#aeb1d4"/>
      <stop offset=".75" stop-color="#484c88"/>
      <stop offset="1" stop-color="#484c88"/>
    </radialGradient>
    <clipPath id="clippath-1">
      <rect class="cls-2" width="47.06" height="26.47"/>
    </clipPath>
    <clipPath id="clippath-2">
      <rect class="cls-2" width="47.06" height="26.47"/>
    </clipPath>
  </defs>
  <g id="Layer_1-2" data-name="Layer 1">
    <g id="g3438">
      <g id="g3440">
        <g class="cls-7">
          <g id="g3442">
            <g id="g3448">
              <g id="g3450">
                <path id="path3462" class="cls-3" d="M.94,13.24c0,6.56,10.11,11.88,22.59,11.88h0c12.48,0,22.59-5.32,22.59-11.88h0c0-6.56-10.11-11.88-22.59-11.88h0C11.06,1.35.94,6.67.94,13.24"/>
              </g>
            </g>
          </g>
        </g>
      </g>
      <g id="g3464">
        <g class="cls-4">
          <g id="g3466">
            <g id="g3472">
              <path id="path3474" class="cls-5" d="M23.53,24.24c11.99,0,21.71-4.93,21.71-11S35.52,2.24,23.53,2.24,1.82,7.16,1.82,13.24s9.72,11,21.71,11"/>
            </g>
          </g>
        </g>
      </g>
      <g id="g3476">
        <g class="cls-6">
          <g id="g3478">
            <g id="g3484">
              <path id="path3486" d="M13.22,14.6c.99,0,1.72-.18,2.19-.54.46-.35.78-.97.95-1.83.16-.8.1-1.36-.18-1.66-.28-.31-.88-.46-1.79-.46h-1.58l-.87,4.49h1.28ZM8.06,20.14c-.07,0-.14-.03-.19-.09-.05-.06-.07-.13-.05-.2l2.31-11.91c.02-.12.12-.2.24-.2h4.99c1.57,0,2.73.43,3.47,1.27.74.84.97,2.02.68,3.51-.12.6-.32,1.17-.6,1.67-.28.5-.65.97-1.1,1.38-.54.51-1.15.87-1.82,1.09-.65.21-1.49.32-2.5.32h-2.02l-.58,2.97c-.02.12-.12.2-.24.2h-2.59Z"/>
            </g>
            <g id="g3488">
              <path id="path3490" class="cls-1" d="M13.01,10.35h1.37c1.1,0,1.48.24,1.61.38.21.24.26.74.12,1.45-.16.8-.44,1.36-.85,1.68-.42.32-1.11.49-2.04.49h-.98l.78-4ZM15.37,7.49h-4.99c-.23,0-.44.17-.48.4l-2.31,11.91c-.03.14,0,.29.1.41.09.11.23.18.38.18h2.59c.23,0,.44-.17.48-.4l.54-2.77h1.82c1.03,0,1.89-.11,2.57-.33.7-.23,1.34-.61,1.91-1.14.47-.43.86-.92,1.15-1.44.29-.53.5-1.11.63-1.74.3-1.56.06-2.81-.73-3.71-.78-.9-2.01-1.35-3.65-1.35M11.64,14.85h1.58c1.05,0,1.83-.2,2.34-.59.51-.39.86-1.05,1.04-1.97.17-.89.09-1.51-.23-1.87-.33-.36-.99-.55-1.97-.55h-1.78l-.97,4.98M15.37,7.98c1.5,0,2.6.39,3.28,1.18.69.79.9,1.89.62,3.3-.11.58-.3,1.11-.57,1.59-.27.48-.62.92-1.06,1.32-.52.48-1.09.83-1.73,1.04-.63.21-1.44.31-2.42.31h-2.22l-.62,3.17h-2.59l2.31-11.91h4.99"/>
            </g>
            <g id="g3492">
              <path id="path3494" d="M25.46,16.97c-.07,0-.14-.03-.19-.09-.05-.06-.07-.13-.05-.2l1.02-5.27c.1-.5.07-.86-.07-1.01-.09-.09-.35-.25-1.11-.25h-1.85l-1.29,6.62c-.02.12-.12.2-.24.2h-2.57c-.07,0-.14-.03-.19-.09-.05-.06-.07-.13-.05-.2l2.31-11.91c.02-.12.12-.2.24-.2h2.57c.07,0,.14.03.19.09.05.06.07.13.05.2l-.56,2.87h2c1.52,0,2.55.27,3.15.82.61.56.8,1.46.57,2.67l-1.08,5.54c-.02.12-.12.2-.24.2h-2.61Z"/>
            </g>
            <g id="g3496">
              <path id="path3498" class="cls-1" d="M23.99,4.33h-2.57c-.23,0-.44.17-.48.4l-2.31,11.91c-.03.14,0,.29.1.41s.23.18.38.18h2.57c.23,0,.44-.17.48-.4l1.25-6.43h1.65c.77,0,.93.16.93.17.05.05.11.28,0,.8l-1.02,5.27c-.03.14,0,.29.1.41s.23.18.38.18h2.61c.23,0,.44-.17.48-.4l1.08-5.54c.25-1.3.04-2.28-.64-2.9-.65-.59-1.73-.88-3.32-.88h-1.7l.5-2.58c.03-.14,0-.29-.1-.41-.09-.11-.23-.18-.38-.18M23.99,4.82l-.62,3.17h2.29c1.44,0,2.44.25,2.99.75.55.5.71,1.32.49,2.45l-1.08,5.54h-2.61l1.02-5.27c.12-.6.07-1.01-.13-1.23-.2-.22-.63-.33-1.29-.33h-2.06l-1.33,6.82h-2.57l2.31-11.91h2.57"/>
            </g>
            <g id="g3500">
              <path id="path3502" d="M33.46,14.6c.99,0,1.72-.18,2.19-.54.46-.35.78-.97.95-1.83.16-.8.1-1.36-.18-1.66-.28-.31-.88-.46-1.79-.46h-1.58l-.87,4.49h1.28ZM28.31,20.14c-.07,0-.14-.03-.19-.09-.05-.06-.07-.13-.05-.2l2.31-11.91c.02-.12.12-.2.24-.2h4.99c1.57,0,2.73.43,3.47,1.27.74.84.97,2.02.68,3.51-.12.6-.32,1.17-.6,1.67-.28.5-.65.97-1.1,1.38-.54.51-1.15.87-1.82,1.09-.65.21-1.49.32-2.5.32h-2.02l-.58,2.97c-.02.12-.12.2-.24.2h-2.59Z"/>
            </g>
            <g id="g3504">
              <path id="path3506" class="cls-1" d="M33.26,10.35h1.37c1.1,0,1.48.24,1.61.38.21.24.26.74.12,1.45-.16.8-.44,1.36-.85,1.68-.42.32-1.11.49-2.04.49h-.98l.78-4ZM35.61,7.49h-4.99c-.23,0-.44.17-.48.4l-2.31,11.91c-.03.14,0,.29.1.41.09.11.23.18.38.18h2.59c.23,0,.44-.17.48-.4l.54-2.77h1.82c1.03,0,1.89-.11,2.57-.33.7-.23,1.34-.61,1.91-1.14.47-.43.86-.92,1.15-1.44.29-.53.5-1.11.63-1.74.3-1.56.06-2.81-.73-3.72-.78-.9-2.01-1.35-3.65-1.35M31.89,14.85h1.58c1.05,0,1.83-.2,2.34-.59.51-.39.86-1.05,1.04-1.97.17-.89.09-1.51-.23-1.87-.33-.36-.99-.55-1.97-.55h-1.78l-.97,4.98M35.61,7.98c1.5,0,2.6.39,3.28,1.18.69.79.9,1.89.62,3.3-.11.58-.3,1.11-.57,1.59-.27.48-.62.92-1.06,1.32-.52.48-1.09.83-1.73,1.04-.63.21-1.44.31-2.42.31h-2.22l-.62,3.17h-2.59l2.31-11.91h4.99"/>
            </g>
          </g>
        </g>
      </g>
    </g>
  </g>
</svg>