<?xml version="1.0" encoding="UTF-8"?>
<svg id="Layer_2" data-name="Layer 2" xmlns="http://www.w3.org/2000/svg" viewBox="0 0 32.98 28.86">
  <defs>
    <style>
      .cls-1 {
        fill: #f58d6c;
      }

      .cls-2 {
        fill: #f7f6f6;
      }

      .cls-3 {
        fill: #ec6b48;
      }

      .cls-4 {
        fill: #c33f27;
      }

      .cls-5 {
        fill: #d3522f;
      }

      .cls-6 {
        opacity: .2;
      }

      .cls-7 {
        opacity: .1;
      }
    </style>
  </defs>
  <g id="Layer_1-2" data-name="Layer 1">
    <g>
      <path class="cls-3" d="M18.55,0C10.64.02,4.15,6.52,4.12,14.43l18.28,3.85L18.55,0Z"/>
      <path class="cls-1" d="M18.55,0c7.91.02,14.4,6.52,14.43,14.43l-7.21,4.9-7.21-4.9V0Z"/>
      <path class="cls-5" d="M18.55,28.86c7.91-.02,14.4-6.52,14.43-14.43H4.12c.02,7.91,6.52,14.4,14.43,14.43Z"/>
      <path class="cls-7" d="M17.18,5.15H7.53c-4.86,5.73-4.44,14.36.96,19.58h8.69c.75,0,1.37-.62,1.37-1.37V6.53c0-.75-.62-1.37-1.37-1.37h0Z"/>
      <g class="cls-6">
        <path d="M16.14,6.18H6.74c-4.39,6.22-3.09,14.91,2.93,19.58h6.47c.75,0,1.37-.62,1.37-1.37V7.56c0-.75-.62-1.37-1.37-1.37h0ZM16.14,6.18H6.74c-3.75,5.32-3.43,12.56.79,17.52h8.62c.75,0,1.37-.62,1.37-1.37V7.56c0-.75-.62-1.37-1.37-1.37h0ZM15.11,6.18H6.74c-3.75,5.32-3.43,12.56.79,17.52h7.59c.75,0,1.37-.62,1.37-1.37V7.56c0-.75-.62-1.37-1.37-1.37h0Z"/>
      </g>
      <path class="cls-4" d="M1.37,6.18h13.74c.75,0,1.37.62,1.37,1.37v13.74c0,.75-.62,1.37-1.37,1.37H1.37c-.75,0-1.37-.62-1.37-1.37V7.56c0-.75.62-1.37,1.37-1.37Z"/>
      <path class="cls-2" d="M8.24,9.27c1.01-.07,2.02.23,2.84.83.68.61,1.04,1.49.99,2.4.01.58-.16,1.15-.49,1.64-.33.53-.82.96-1.39,1.22-.65.3-1.36.45-2.08.44h-1.97v3.78h-2.02v-10.31h4.12ZM6.14,14.1h1.74c.55.04,1.1-.12,1.54-.46.35-.23.56-.64.52-1.06,0-1.14-.66-1.71-1.99-1.71h-1.8v3.22Z"/>
    </g>
  </g>
</svg>