<?xml version="1.0" encoding="UTF-8"?>
<svg id="Layer_2" data-name="Layer 2" xmlns="http://www.w3.org/2000/svg" viewBox="0 0 45.93 44.96">
  <defs>
    <style>
      .cls-1 {
        fill: #1e1c57;
      }

      .cls-2 {
        fill: #9594c8;
      }
    </style>
  </defs>
  <g id="Layer_1-2" data-name="Layer 1">
    <g id="vlpa">
      <g id="vlpb">
        <g id="vlpc">
          <g id="vlpd">
            <path class="cls-1" d="M8.13,0h29.66c4.5,0,8.13,3.65,8.13,8.17v28.63c0,4.52-3.64,8.17-8.13,8.17H8.13c-4.5,0-8.13-3.65-8.13-8.17V8.17C0,3.65,3.64,0,8.13,0Z"/>
          </g>
        </g>
      </g>
      <g id="vlpe">
        <g id="vlpf">
          <path class="cls-2" d="M10.91,31.51V11.72c0-.13.06-.21.19-.21.33,0,.63,0,1.07-.02.46-.02.94-.02,1.45-.04s1.07-.02,1.66-.04,1.17-.02,1.74-.02c1.57,0,2.87.19,3.94.6.96.33,1.84.86,2.56,1.58.61.61,1.09,1.36,1.4,2.19.29.81.44,1.63.44,2.5,0,1.65-.38,3.02-1.15,4.09s-1.84,1.88-3.08,2.34c-1.3.48-2.74.65-4.31.65-.46,0-.77,0-.96-.02s-.46-.02-.82-.02v6.17c.02.13-.08.25-.21.27h-3.71c-.15,0-.23-.08-.23-.25v.02ZM15.08,15.24v6.46c.27.02.52.04.75.04h1.01c.75,0,1.49-.12,2.2-.35.61-.17,1.15-.54,1.57-1.02.4-.48.59-1.13.59-1.98.02-.6-.13-1.19-.44-1.71-.33-.5-.78-.88-1.34-1.1-.71-.29-1.47-.4-2.26-.38-.5,0-.94,0-1.3.02-.38-.02-.65,0-.78.02h0Z"/>
          <path class="cls-2" d="M28.13,16.37h3.35c.19,0,.34.13.4.31.06.15.1.31.11.48.04.19.08.4.1.6.02.21.04.44.04.69.57-.67,1.26-1.23,2.05-1.65.88-.5,1.89-.75,2.91-.75.13-.02.25.08.27.21v3.82c0,.15-.1.21-.31.21-.69-.02-1.4.04-2.07.19-.55.12-1.09.29-1.61.52-.36.17-.71.4-.98.71v9.8c0,.19-.08.27-.25.27h-3.77c-.15.02-.29-.08-.31-.23v-10.72c0-.46,0-.94-.02-1.44s-.02-1-.04-1.5c0-.44-.04-.86-.08-1.31-.02-.1.04-.19.13-.21,0-.02.04-.02.06,0h0Z"/>
        </g>
      </g>
    </g>
  </g>
</svg>