<?xml version="1.0" encoding="UTF-8"?>
<svg id="Layer_2" data-name="Layer 2" xmlns="http://www.w3.org/2000/svg" xmlns:xlink="http://www.w3.org/1999/xlink" viewBox="0 0 506.41 512">
  <defs>
    <style>
      .cls-1 {
        fill: url(#linear-gradient-2);
      }

      .cls-2 {
        fill: url(#linear-gradient);
      }
    </style>
    <linearGradient id="linear-gradient" x1="3904.75" y1="1119.62" x2="4401.41" y2="1546.94" gradientTransform="translate(-2210.61 -621.07) scale(.56)" gradientUnits="userSpaceOnUse">
      <stop offset="0" stop-color="#5a9fd4"/>
      <stop offset="1" stop-color="#306998"/>
    </linearGradient>
    <linearGradient id="linear-gradient-2" x1="4593.02" y1="1805.58" x2="4415.68" y2="1554.67" gradientTransform="translate(-2210.61 -621.07) scale(.56)" gradientUnits="userSpaceOnUse">
      <stop offset="0" stop-color="#ffd43b"/>
      <stop offset="1" stop-color="#ffe873"/>
    </linearGradient>
  </defs>
  <g id="Layer_1-2" data-name="Layer 1">
    <g>
      <path id="path1948" class="cls-2" d="M250.19,0c-20.88.1-40.82,1.88-58.37,4.98-51.69,9.13-61.07,28.25-61.07,63.49v46.55h122.15v15.52H84.9c-35.5,0-66.58,21.34-76.31,61.93-11.22,46.53-11.71,75.56,0,124.14,8.68,36.16,29.42,61.93,64.92,61.93h42v-55.81c0-40.32,34.88-75.88,76.31-75.88h122.01c33.96,0,61.07-27.96,61.07-62.07v-116.31c0-33.1-27.93-57.97-61.07-63.49C292.84,1.49,271.07-.09,250.19,0h0ZM184.13,37.45c12.62,0,22.92,10.47,22.92,23.35s-10.3,23.2-22.92,23.2-22.92-10.38-22.92-23.21,10.26-23.35,22.92-23.35Z"/>
      <path id="path1950" class="cls-1" d="M390.13,130.55v54.24c0,42.05-35.65,77.44-76.31,77.44h-122.01c-33.42,0-61.07,28.6-61.07,62.07v116.31c0,33.1,28.79,52.57,61.07,62.07,38.67,11.37,75.74,13.42,122.01,0,30.75-8.9,61.07-26.82,61.07-62.07v-46.55h-122.01v-15.52h183.08c35.5,0,48.73-24.76,61.07-61.93,12.75-38.26,12.21-75.06,0-124.14-8.77-35.34-25.53-61.93-61.07-61.93h-45.84ZM321.51,425.1c12.66,0,22.92,10.38,22.92,23.2s-10.26,23.35-22.92,23.35-22.92-10.47-22.92-23.35c0-12.83,10.3-23.2,22.92-23.2Z"/>
    </g>
  </g>
</svg>