<?xml version="1.0" encoding="UTF-8"?>
<svg id="Layer_2" data-name="Layer 2" xmlns="http://www.w3.org/2000/svg" viewBox="0 0 253.21 287.43">
  <defs>
    <style>
      .cls-1 {
        fill: #2e1313;
      }

      .cls-2 {
        fill: #242056;
      }

      .cls-3 {
        fill: #8062a9;
      }

      .cls-4 {
        fill: #46b87e;
      }

      .cls-5 {
        fill: #549fd7;
      }

      .cls-6 {
        fill: #ec3868;
      }

      .cls-7 {
        fill: none;
      }

      .cls-7, .cls-8 {
        stroke: #959595;
        stroke-miterlimit: 10;
      }

      .cls-9 {
        fill: #0a1f33;
      }

      .cls-10 {
        fill: #1e1c57;
      }

      .cls-11 {
        fill: #412;
      }

      .cls-12 {
        fill: #f27264;
      }

      .cls-8 {
        fill: #a8a7a7;
        opacity: .22;
      }

      .cls-13 {
        fill: #f6981f;
      }

      .cls-14 {
        fill: #9493c7;
      }

      .cls-15 {
        fill: #9594c8;
      }

      .cls-16 {
        fill: #ee5125;
      }

      .cls-17 {
        fill: #47b5e7;
      }
    </style>
  </defs>
  <g id="Layer_2-2" data-name="Layer 2">
    <g>
      <g>
        <polygon class="cls-7" points="126.6 44.55 41.04 93.95 41.04 192.75 126.61 242.15 212.17 192.75 212.17 93.95 126.6 44.55"/>
        <polygon class="cls-7" points="126.6 19.85 19.65 81.6 19.65 205.1 126.61 266.85 233.56 205.1 233.56 81.6 126.6 19.85"/>
        <polygon class="cls-7" points="126.6 118.65 105.21 131 105.21 155.7 126.61 168.05 148 155.7 148 131 126.6 118.65"/>
        <polygon class="cls-7" points="126.6 93.95 83.82 118.65 83.82 168.05 126.61 192.75 169.39 168.05 169.39 118.65 126.6 93.95"/>
        <polygon class="cls-7" points="126.6 69.25 62.43 106.3 62.43 180.4 126.61 217.45 190.78 180.4 190.78 106.3 126.6 69.25"/>
        <line class="cls-7" x1="126.6" y1="19.85" x2="126.6" y2="266.85"/>
        <line class="cls-7" x1="19.65" y1="81.6" x2="233.56" y2="205.1"/>
        <line class="cls-7" x1="233.56" y1="81.6" x2="19.65" y2="205.1"/>
      </g>
      <g>
        <g>
          <g id="uuid-b7df1afe-c202-486e-b42e-996cd90f7606" data-name="Layer 2-2">
            <g id="Surfaces">
              <g id="Photo_Surface" data-name="Photo Surface">
                <g id="Outline_no_shadow" data-name="Outline no shadow">
                  <path class="cls-9" d="M121.69,0h9.83c1.49,0,2.7,1.21,2.7,2.7v9.45c0,1.49-1.21,2.7-2.7,2.7h-9.83c-1.49,0-2.7-1.21-2.7-2.7V2.7c0-1.49,1.21-2.7,2.7-2.7Z"/>
                </g>
              </g>
            </g>
            <g id="Outlined_Mnemonics_Logos" data-name="Outlined Mnemonics Logos">
              <g id="Ps">
                <path class="cls-5" d="M122.42,10.41V3.88s.02-.07.06-.07h.36c.15,0,.31,0,.48,0,.17,0,.36,0,.55,0h.58c.52,0,.95.06,1.31.2.32.11.61.29.85.52.2.2.36.45.46.72.1.27.15.54.15.82,0,.55-.13,1-.38,1.35-.25.36-.61.62-1.02.77-.43.16-.91.22-1.43.22h-.59v2.04s-.03.08-.07.09h-1.23c-.05,0-.08-.03-.08-.08v-.03ZM123.8,5.04v2.13c.09,0,.17.01.25.01h.34c.25,0,.49-.04.73-.11.2-.06.38-.18.52-.34.13-.16.2-.37.2-.65,0-.2-.04-.39-.15-.56-.11-.16-.26-.29-.44-.36-.23-.1-.49-.13-.75-.13h-.7Z"/>
                <path class="cls-5" d="M131.17,6.78c-.19-.1-.39-.17-.61-.22-.23-.05-.47-.08-.71-.08-.13,0-.26.01-.38.04-.08.02-.15.06-.2.13-.03.05-.05.11-.05.17s.03.11.06.16c.06.07.13.13.22.17.15.08.3.15.45.21.34.11.67.27.98.46.21.13.38.31.5.53.1.2.15.43.15.65,0,.3-.08.6-.25.84-.18.25-.43.45-.71.56-.31.13-.69.2-1.15.2-.29,0-.58-.03-.86-.08-.22-.04-.44-.11-.65-.2-.04-.03-.08-.07-.07-.12v-1.1s0-.04.03-.06c.02-.01.04,0,.06,0,.25.15.51.25.79.31.24.06.49.1.75.1s.41-.03.53-.09c.1-.04.17-.15.17-.27,0-.09-.05-.17-.15-.25s-.31-.18-.62-.3c-.32-.11-.62-.27-.9-.46-.2-.14-.36-.32-.48-.54-.1-.2-.15-.43-.15-.65,0-.27.08-.53.22-.77.16-.25.39-.46.67-.58.3-.15.67-.22,1.12-.22.26,0,.53.02.79.06.19.03.37.08.55.15.03,0,.05.03.06.06,0,.03.01.05.01.08v1.03s-.01.05-.03.06c-.06.01-.09.01-.11,0l-.03.02Z"/>
              </g>
            </g>
          </g>
          <g id="Layer_2_1_-8" data-name="Layer 2 1 -8">
            <g id="Surfaces-2">
              <g id="Video_Audio_Surface" data-name="Video Audio Surface">
                <g id="Outline_no_shadow-3" data-name="Outline no shadow-3">
                  <path id="path2194" class="cls-2" d="M240.68,197.77h9.83c1.49,0,2.7,1.21,2.7,2.7v9.45c0,1.49-1.21,2.7-2.7,2.7h-9.83c-1.49,0-2.7-1.21-2.7-2.7v-9.45c0-1.49,1.21-2.7,2.7-2.7Z"/>
                </g>
              </g>
            </g>
            <g id="Outlined_Mnemonics_Logos-2" data-name="Outlined Mnemonics Logos-2">
              <g id="Ae">
                <path id="path2199" class="cls-14" d="M244.1,206.65h-2.36l-.48,1.5c0,.06-.06.1-.12.09h-1.19c-.07,0-.09-.04-.07-.11l2.04-5.86c.02-.06.04-.12.06-.2.03-.13.04-.27.04-.41,0-.03.02-.06.05-.07h1.64s.08.02.08.05l2.32,6.5c.02.07,0,.1-.06.1h-1.33s-.09-.03-.1-.07l-.52-1.52h0ZM242.11,205.39h1.61c-.04-.13-.09-.29-.15-.46-.06-.17-.11-.36-.17-.55-.06-.2-.12-.39-.18-.58-.06-.2-.12-.38-.17-.56s-.1-.34-.14-.49h0c-.06.27-.13.55-.22.82-.1.3-.19.62-.29.94-.08.32-.18.62-.28.89h0Z"/>
                <path id="path2201" class="cls-14" d="M249.87,206.07h-2.01c.03.2.09.39.2.56s.27.3.46.38c.25.11.53.16.81.16.22,0,.44-.03.66-.07.2-.03.39-.08.56-.15.03-.03.05,0,.05.05v.97s0,.05,0,.08c0,.02-.03.03-.04.04-.2.09-.41.15-.63.19-.3.06-.6.08-.9.08-.48,0-.89-.08-1.22-.22-.31-.13-.58-.34-.8-.6-.2-.25-.35-.53-.44-.83s-.13-.61-.13-.93c0-.34.05-.68.16-1.01.1-.32.26-.61.48-.87.21-.25.47-.46.77-.6.3-.15.65-.2,1.06-.2.34,0,.67.06.98.2.26.11.49.29.67.51.16.22.3.46.38.72.08.25.12.51.12.77,0,.15,0,.29,0,.41,0,.12-.02.21-.03.27,0,.04-.04.08-.09.08-.04,0-.11,0-.21,0s-.22.02-.37.02-.3-.03-.46-.03h-.01ZM247.86,205.14h1.7c.05,0,.1-.02.15-.05v-.06c0-.08,0-.16-.04-.23-.11-.36-.45-.6-.82-.58-.35-.02-.68.16-.84.48-.08.15-.12.3-.14.46v-.02Z"/>
              </g>
            </g>
          </g>
          <g>
            <g id="Surfaces-3">
              <g id="Publishing_Surface" data-name="Publishing Surface">
                <g id="Outline_no_shadow-2" data-name="Outline no shadow-2">
                  <path class="cls-11" d="M2.7,74.17h9.83c1.49,0,2.7,1.21,2.7,2.7v9.45c0,1.49-1.21,2.7-2.7,2.7H2.7C1.21,89.02,0,87.81,0,86.32v-9.45C0,75.38,1.21,74.17,2.7,74.17Z"/>
                </g>
              </g>
            </g>
            <g id="Outlined_Mnemonics_Logos-3" data-name="Outlined Mnemonics Logos-3">
              <g id="Id">
                <path class="cls-6" d="M5.53,78.05v6.51c0,.07-.03.1-.09.1h-1.24c-.06,0-.08-.03-.08-.1v-6.51c0-.06.03-.08.09-.08h1.24s.08.02.08.06c0,0,0,.01,0,.02Z"/>
                <path class="cls-6" d="M9.19,84.76c-.47,0-.94-.09-1.36-.29-.4-.18-.73-.49-.96-.86-.23-.39-.35-.87-.35-1.45,0-.47.11-.93.35-1.34.24-.41.59-.75,1.01-.98.44-.25.98-.37,1.6-.37h.13c.06,0,.12,0,.2.01v-2s.02-.07.06-.07h1.29s.06.02.06.04h0v6.05c0,.11,0,.24.01.38.01.13.02.26.03.37,0,.04-.02.08-.06.1-.33.14-.68.24-1.03.3-.32.06-.65.09-.98.09v.02ZM9.81,83.5v-2.79c-.06-.01-.11-.03-.17-.03-.07,0-.14-.01-.21-.01-.25,0-.49.05-.72.16-.22.11-.4.27-.54.47-.14.2-.21.48-.21.81,0,.22.03.44.11.65.06.17.16.32.29.45.12.11.27.2.43.25.17.06.35.08.53.08.1,0,.18,0,.27-.01.08,0,.16,0,.23-.03h0Z"/>
              </g>
            </g>
          </g>
          <g id="Layer_2-3" data-name="Layer 2-3">
            <g id="Surfaces-4">
              <g id="Drawing_Surface" data-name="Drawing Surface">
                <g id="Outline_no_shadow-4" data-name="Outline no shadow-4">
                  <path class="cls-1" d="M240.68,74.17h9.83c1.49,0,2.7,1.21,2.7,2.7v9.45c0,1.49-1.21,2.7-2.7,2.7h-9.83c-1.49,0-2.7-1.21-2.7-2.7v-9.45c0-1.49,1.21-2.7,2.7-2.7Z"/>
                </g>
              </g>
            </g>
            <g id="Outlined_Mnemonics_Logos-4" data-name="Outlined Mnemonics Logos-4">
              <g id="Ai">
                <path class="cls-13" d="M245.36,83.08h-2.36l-.48,1.49c0,.06-.06.1-.12.09h-1.19c-.07,0-.09-.04-.07-.11l2.04-5.88c.02-.06.04-.13.06-.21.03-.13.04-.27.04-.41,0-.03.02-.06.05-.07h1.64c.05,0,.08.02.08.05l2.32,6.53c.02.07,0,.1-.06.1h-1.33s-.09-.03-.1-.07l-.52-1.51h0ZM243.37,81.79h1.61c-.04-.13-.09-.29-.15-.46s-.11-.36-.17-.55c-.06-.2-.12-.39-.18-.58s-.12-.38-.17-.56-.1-.34-.14-.49h0c-.06.27-.13.55-.22.82-.1.3-.19.62-.29.94-.09.32-.18.62-.28.89h0Z"/>
                <path class="cls-13" d="M248.76,79.06c-.21,0-.41-.08-.56-.22-.15-.16-.22-.37-.22-.58s.08-.42.23-.56c.15-.15.36-.22.56-.22.25,0,.44.08.58.22.14.15.22.36.21.56,0,.22-.07.43-.22.58s-.36.23-.58.22ZM248.05,84.57v-4.88c0-.06.03-.09.08-.09h1.26c.06,0,.08.03.08.09v4.88c0,.07-.03.1-.08.1h-1.24c-.06,0-.1-.04-.1-.1h0Z"/>
              </g>
            </g>
          </g>
          <g>
            <path id="path0_fill" data-name="path0 fill" class="cls-4" d="M124.07,287.43c1.4,0,2.54-1.14,2.54-2.54v-2.54h-2.54c-1.4,0-2.54,1.14-2.54,2.54s1.14,2.54,2.54,2.54Z"/>
            <path id="path1_fill" data-name="path1 fill" class="cls-3" d="M121.53,279.81c0-1.4,1.14-2.54,2.54-2.54h2.54v5.07h-2.54c-1.4,0-2.54-1.14-2.54-2.54h0Z"/>
            <path id="path1_fill-2" data-name="path1 fill-2" class="cls-16" d="M121.53,274.74c0-1.4,1.14-2.54,2.54-2.54h2.54v5.07h-2.54c-1.4,0-2.54-1.14-2.54-2.54h0Z"/>
            <path id="path2_fill" data-name="path2 fill" class="cls-12" d="M126.6,272.2h2.54c1.4,0,2.54,1.14,2.54,2.54s-1.14,2.54-2.54,2.54h-2.54v-5.07h0Z"/>
            <path id="path3_fill" data-name="path3 fill" class="cls-17" d="M131.68,279.81c0,1.4-1.14,2.54-2.54,2.54s-2.54-1.14-2.54-2.54,1.14-2.54,2.54-2.54,2.54,1.14,2.54,2.54Z"/>
          </g>
          <g id="Layer_1-2" data-name="Layer 1-2">
            <g id="vlpa">
              <g id="vlpb">
                <g id="vlpc">
                  <g id="vlpd">
                    <path class="cls-10" d="M2.7,197.46h9.84c1.49,0,2.7,1.21,2.7,2.71v9.5c0,1.5-1.21,2.71-2.7,2.71H2.7c-1.49,0-2.7-1.21-2.7-2.71v-9.5c0-1.5,1.21-2.71,2.7-2.71Z"/>
                  </g>
                </g>
              </g>
              <g id="vlpe">
                <g id="vlpf">
                  <path class="cls-15" d="M3.62,207.91v-6.56s.02-.07.06-.07c.11,0,.21,0,.35,0,.15,0,.31,0,.48-.01s.35,0,.55-.01.39,0,.58,0c.52,0,.95.06,1.31.2.32.11.61.29.85.52.2.2.36.45.46.73.1.27.15.54.15.83,0,.55-.13,1-.38,1.36s-.61.62-1.02.78c-.43.16-.91.22-1.43.22-.15,0-.26,0-.32,0s-.15,0-.27,0v2.05s-.03.08-.07.09h-1.23s-.08-.03-.08-.08h0s0,0,0,0ZM5,202.52v2.14c.09,0,.17.01.25.01h.33c.25,0,.49-.04.73-.12.2-.06.38-.18.52-.34.13-.16.2-.37.2-.66,0-.2-.04-.39-.15-.57-.11-.17-.26-.29-.44-.36-.24-.1-.49-.13-.75-.13-.17,0-.31,0-.43,0-.13,0-.22,0-.26,0h0Z"/>
                  <path class="cls-15" d="M9.33,202.89h1.11c.06,0,.11.04.13.1.02.05.03.1.04.16.01.06.03.13.03.2,0,.07.01.15.01.23.19-.22.42-.41.68-.55.29-.17.63-.25.97-.25.04,0,.08.03.09.07v1.27s-.03.07-.1.07c-.23,0-.46.01-.69.06-.18.04-.36.1-.53.17-.12.06-.24.13-.33.24v3.25c0,.06-.03.09-.08.09h-1.25s-.1-.03-.1-.08v-3.56c0-.15,0-.31,0-.48s0-.33-.01-.5c0-.15-.01-.29-.03-.43,0-.03.01-.06.04-.07,0,0,.01,0,.02,0h0Z"/>
                </g>
              </g>
            </g>
          </g>
        </g>
        <polygon class="cls-8" points="126.6 33.82 220.7 89.02 190.56 179.98 126.61 242.15 73.77 173.86 41.04 93.95 126.6 33.82"/>
        <circle class="cls-6" cx="41.04" cy="93.95" r="2.78"/>
        <circle class="cls-5" cx="126.6" cy="34.17" r="2.78"/>
        <circle class="cls-13" cx="220.36" cy="89.34" r="2.78"/>
        <circle class="cls-14" cx="190.36" cy="179.98" r="2.78"/>
        <circle class="cls-4" cx="126.68" cy="240.76" r="2.78"/>
        <circle class="cls-14" cx="73.98" cy="173.68" r="2.78"/>
      </g>
    </g>
  </g>
</svg>