<?xml version="1.0" encoding="UTF-8"?>
<svg id="Layer_2" data-name="Layer 2" xmlns="http://www.w3.org/2000/svg" xmlns:xlink="http://www.w3.org/1999/xlink" viewBox="0 0 274.5 270.17">
  <defs>
    <style>
      .cls-1 {
        fill: #0d72b9;
      }

      .cls-2 {
        fill: url(#linear-gradient-2);
      }

      .cls-3 {
        fill: #27a7df;
      }

      .cls-4 {
        fill: #fff;
      }

      .cls-5 {
        fill: #f06629;
      }

      .cls-6 {
        fill: #f5de17;
      }

      .cls-7, .cls-8 {
        fill: none;
      }

      .cls-9 {
        fill: url(#radial-gradient);
      }

      .cls-10 {
        fill: #e24e26;
      }

      .cls-11 {
        fill: url(#linear-gradient-3);
      }

      .cls-12 {
        clip-path: url(#clippath-1);
      }

      .cls-13 {
        fill: #787bb2;
      }

      .cls-8, .cls-14 {
        stroke: #959595;
        stroke-miterlimit: 10;
      }

      .cls-14 {
        fill: #a8a7a7;
        opacity: .22;
      }

      .cls-15 {
        clip-path: url(#clippath-2);
      }

      .cls-16 {
        fill: #eaeaea;
      }

      .cls-17 {
        fill: url(#linear-gradient);
      }

      .cls-18 {
        clip-path: url(#clippath);
      }
    </style>
    <linearGradient id="linear-gradient" x1="5240.74" y1="-917.31" x2="5256.43" y2="-930.81" gradientTransform="translate(-2727.26 -259.5) scale(.56 -.56)" gradientUnits="userSpaceOnUse">
      <stop offset="0" stop-color="#5a9fd4"/>
      <stop offset="1" stop-color="#306998"/>
    </linearGradient>
    <linearGradient id="linear-gradient-2" x1="5262.65" y1="-938.86" x2="5257.05" y2="-930.93" gradientTransform="translate(-2727.26 -259.5) scale(.56 -.56)" gradientUnits="userSpaceOnUse">
      <stop offset="0" stop-color="#ffd43b"/>
      <stop offset="1" stop-color="#ffe873"/>
    </linearGradient>
    <clipPath id="clippath">
      <path class="cls-7" d="M50.54,262.09c0,2.51,3.87,4.54,8.64,4.54s8.64-2.03,8.64-4.54-3.87-4.54-8.64-4.54c-4.77,0-8.64,2.03-8.64,4.54Z"/>
    </clipPath>
    <radialGradient id="radial-gradient" cx="-939.08" cy="1091.63" fx="-939.08" fy="1091.63" r=".08" gradientTransform="translate(135894.66 -157646.45) scale(144.65)" gradientUnits="userSpaceOnUse">
      <stop offset="0" stop-color="#aeb1d4"/>
      <stop offset=".3" stop-color="#aeb1d4"/>
      <stop offset=".75" stop-color="#484c88"/>
      <stop offset="1" stop-color="#484c88"/>
    </radialGradient>
    <clipPath id="clippath-1">
      <rect class="cls-7" x="50.18" y="257.02" width="18" height="10.12"/>
    </clipPath>
    <clipPath id="clippath-2">
      <rect class="cls-7" x="50.18" y="257.02" width="18" height="10.12"/>
    </clipPath>
    <linearGradient id="linear-gradient-3" x1="179.2" y1="207.53" x2="184.76" y2="207.53" gradientTransform="matrix(1,0,0,1,0,0)" xlink:href="#linear-gradient"/>
  </defs>
  <g id="Layer_2-2" data-name="Layer 2">
    <g>
      <g>
        <polygon class="cls-8" points="137.75 26.81 19.3 112.87 64.54 252.11 210.95 252.11 256.2 112.87 137.75 26.81"/>
        <polygon class="cls-8" points="137.75 116.93 114.06 134.14 123.11 161.99 152.39 161.99 161.44 134.14 137.75 116.93"/>
        <polygon class="cls-8" points="137.75 94.4 90.37 128.82 108.46 184.52 167.03 184.52 185.13 128.82 137.75 94.4"/>
        <polygon class="cls-8" points="137.75 72.87 66.68 124.5 93.82 208.05 181.67 208.05 208.82 124.5 137.75 72.87"/>
        <polygon class="cls-8" points="137.75 49.34 42.99 118.18 79.18 229.58 196.31 229.58 232.51 118.18 137.75 49.34"/>
        <line class="cls-8" x1="137.75" y1="26.81" x2="137.75" y2="139.46"/>
        <line class="cls-8" x1="256.2" y1="112.87" x2="137.75" y2="139.46"/>
        <line class="cls-8" x1="210.95" y1="252.11" x2="137.75" y2="139.46"/>
        <line class="cls-8" x1="19.3" y1="112.87" x2="137.75" y2="139.46"/>
        <line class="cls-8" x1="64.54" y1="252.11" x2="137.75" y2="139.46"/>
      </g>
      <g id="Layer_1-2" data-name="Layer 1-2">
        <g>
          <rect class="cls-6" y="102.89" width="16" height="16"/>
          <path d="M10.75,115.39c.32.53.74.91,1.48.91.62,0,1.02-.31,1.02-.74,0-.51-.41-.7-1.1-1l-.38-.16c-1.09-.46-1.81-1.04-1.81-2.27,0-1.13.86-1.99,2.2-1.99.96,0,1.64.33,2.14,1.21l-1.17.75c-.26-.46-.53-.64-.97-.64s-.72.28-.72.64c0,.45.28.63.92.91l.38.16c1.28.55,2,1.11,2,2.36,0,1.35-1.06,2.09-2.49,2.09s-2.3-.67-2.74-1.54l1.22-.71h0ZM5.44,115.52c.24.42.45.78.97.78s.81-.19.81-.94v-5.11h1.5v5.13c0,1.56-.91,2.27-2.24,2.27-1.21,0-1.9-.62-2.26-1.37l1.23-.74h0Z"/>
        </g>
      </g>
      <g id="Layer_1-2-2" data-name="Layer 1-2">
        <g>
          <path id="path1948" class="cls-17" d="M216.22,254c-.66,0-1.29.06-1.84.16-1.63.29-1.93.89-1.93,2.01v1.47h3.86v.49h-5.31c-1.12,0-2.1.67-2.41,1.96-.35,1.47-.37,2.39,0,3.92.27,1.14.93,1.96,2.05,1.96h1.33v-1.76c0-1.27,1.1-2.4,2.41-2.4h3.85c1.07,0,1.93-.88,1.93-1.96v-3.67c0-1.05-.88-1.83-1.93-2.01-.66-.11-1.35-.16-2.01-.16h0ZM214.14,255.18c.4,0,.72.33.72.74s-.33.73-.72.73-.72-.33-.72-.73.32-.74.72-.74h0Z"/>
          <path id="path1950" class="cls-2" d="M220.64,258.12v1.71c0,1.33-1.13,2.45-2.41,2.45h-3.85c-1.06,0-1.93.9-1.93,1.96v3.67c0,1.05.91,1.66,1.93,1.96,1.22.36,2.39.42,3.85,0,.97-.28,1.93-.85,1.93-1.96v-1.47h-3.85v-.49h5.78c1.12,0,1.54-.78,1.93-1.96.4-1.21.39-2.37,0-3.92-.28-1.12-.81-1.96-1.93-1.96h-1.45,0ZM218.48,267.43c.4,0,.72.33.72.73s-.32.74-.72.74-.72-.33-.72-.74.33-.73.72-.73Z"/>
        </g>
      </g>
      <g id="Layer_1-2-3" data-name="Layer 1-2">
        <g id="layer1">
          <g id="g3013">
            <polygon id="polygon2989" class="cls-1" points="274.5 103.5 273.04 119.83 266.49 121.64 259.95 119.83 258.5 103.5 274.5 103.5"/>
            <polygon id="polygon2991" class="cls-3" points="271.79 118.78 273.03 104.83 266.5 104.83 266.5 120.25 271.79 118.78"/>
            <polygon id="polygon2993" class="cls-16" points="261.83 110.89 262.01 112.89 266.5 112.89 266.5 110.89 261.83 110.89"/>
            <polygon id="polygon2995" class="cls-16" points="266.5 106.83 266.49 106.83 261.47 106.83 261.65 108.84 266.5 108.84 266.5 106.83"/>
            <polygon id="polygon2997" class="cls-16" points="266.5 118.18 266.5 116.09 266.49 116.09 264.25 115.49 264.11 113.9 263.03 113.9 262.1 113.9 262.38 117.04 266.49 118.18 266.5 118.18"/>
            <path id="path2999" class="cls-4" d="M262.26,99.06h2.43v1.02h-1.41v1.02h1.41v1.02h-2.43s0-3.05,0-3.05Z"/>
            <path id="path3001" class="cls-4" d="M265.17,99.06h2.43v.88h-1.41v.17h1.41v2.03h-2.43v-.92h1.41v-.17h-1.41s0-1.99,0-1.99Z"/>
            <path id="path3003" class="cls-4" d="M268.08,99.06h2.43v.88h-1.41v.17h1.41v2.03h-2.43v-.92h1.41v-.17h-1.41v-1.99Z"/>
            <polygon id="polygon3005" class="cls-4" points="268.96 112.89 268.72 115.49 266.49 116.09 266.49 118.18 270.59 117.04 270.63 116.7 271.09 111.42 271.15 110.89 271.51 106.83 266.49 106.83 266.49 108.84 269.31 108.84 269.13 110.89 266.49 110.89 266.49 112.89 268.96 112.89"/>
          </g>
        </g>
      </g>
      <g id="Layer_1-2-4" data-name="Layer 1-2">
        <g>
          <path class="cls-4" d="M131.39,0h1.02v1h.94V0h1.02v3.05h-1.02v-1.02h-.92v1.02h-1.02M135.69,1.02h-.9V0h2.81v1.02h-.9v2.03h-1.02M138.05,0h1.06l.65,1.07.65-1.07h1.06v3.05h-1.02v-1.51l-.71,1.09-.71-1.09v1.51h-1M141.99,0h1.02v2.04h1.44v1h-2.45"/>
          <path class="cls-10" d="M131.35,20.77l-1.46-16.33h16l-1.46,16.33-6.56,1.82"/>
          <path class="cls-5" d="M137.9,21.19V5.78h6.54l-1.25,13.94"/>
          <path class="cls-16" d="M132.87,7.78h5.03v2h-2.83l.19,2.05h2.65v2h-4.48M133.51,14.83h2.01l.14,1.6,2.24.6v2.09l-4.11-1.14"/>
          <path class="cls-4" d="M142.91,7.78h-5.02v2h4.83M142.54,11.83h-4.65v2h2.47l-.23,2.6-2.23.6v2.08l4.1-1.14"/>
        </g>
      </g>
      <g id="Layer_1-2-5" data-name="Layer 1-2">
        <g id="g3438">
          <g id="g3440">
            <g class="cls-18">
              <g id="g3442">
                <g id="g3448">
                  <g id="g3450">
                    <path id="path3462" class="cls-9" d="M50.54,262.09c0,2.51,3.87,4.54,8.64,4.54h0c4.77,0,8.64-2.03,8.64-4.54h0c0-2.51-3.87-4.54-8.64-4.54h0c-4.77,0-8.64,2.03-8.64,4.54"/>
                  </g>
                </g>
              </g>
            </g>
          </g>
          <g id="g3464">
            <g class="cls-12">
              <g id="g3466">
                <g id="g3472">
                  <path id="path3474" class="cls-13" d="M59.18,266.29c4.59,0,8.3-1.89,8.3-4.21s-3.72-4.21-8.3-4.21-8.3,1.88-8.3,4.21,3.72,4.21,8.3,4.21"/>
                </g>
              </g>
            </g>
          </g>
          <g id="g3476">
            <g class="cls-15">
              <g id="g3478">
                <g id="g3484">
                  <path id="path3486" d="M55.23,262.61c.38,0,.66-.07.84-.21.18-.13.3-.37.36-.7.06-.31.04-.52-.07-.63-.11-.12-.34-.18-.68-.18h-.6l-.33,1.72h.49ZM53.26,264.73s-.05-.01-.07-.03-.03-.05-.02-.08l.88-4.56s.05-.08.09-.08h1.91c.6,0,1.04.16,1.33.49.28.32.37.77.26,1.34-.05.23-.12.45-.23.64s-.25.37-.42.53c-.21.2-.44.33-.7.42-.25.08-.57.12-.96.12h-.77l-.22,1.14s-.05.08-.09.08h-.99,0Z"/>
                </g>
                <g id="g3488">
                  <path id="path3490" class="cls-4" d="M55.15,260.98h.52c.42,0,.57.09.62.15.08.09.1.28.05.55-.06.31-.17.52-.33.64-.16.12-.42.19-.78.19h-.37l.3-1.53h0ZM56.06,259.89h-1.91c-.09,0-.17.07-.18.15l-.88,4.56c-.01.05,0,.11.04.16.03.04.09.07.15.07h.99c.09,0,.17-.07.18-.15l.21-1.06h.7c.39,0,.72-.04.98-.13.27-.09.51-.23.73-.44.18-.16.33-.35.44-.55.11-.2.19-.42.24-.67.11-.6.02-1.07-.28-1.42-.3-.34-.77-.52-1.4-.52M54.63,262.7h.6c.4,0,.7-.08.9-.23.2-.15.33-.4.4-.75.07-.34.03-.58-.09-.72-.13-.14-.38-.21-.75-.21h-.68l-.37,1.9M56.06,260.07c.57,0,.99.15,1.25.45.26.3.34.72.24,1.26-.04.22-.11.42-.22.61-.1.18-.24.35-.41.5-.2.18-.42.32-.66.4-.24.08-.55.12-.93.12h-.85l-.24,1.21h-.99l.88-4.56h1.91"/>
                </g>
                <g id="g3492">
                  <path id="path3494" d="M59.92,263.51s-.05-.01-.07-.03c-.02-.02-.03-.05-.02-.08l.39-2.02c.04-.19.03-.33-.03-.39-.03-.03-.13-.1-.42-.1h-.71l-.49,2.53s-.05.08-.09.08h-.98s-.05-.01-.07-.03c-.02-.02-.03-.05-.02-.08l.88-4.56s.05-.08.09-.08h.98s.05.01.07.03c.02.02.03.05.02.08l-.21,1.1h.76c.58,0,.98.1,1.2.31.23.21.31.56.22,1.02l-.41,2.12s-.05.08-.09.08h-1,0Z"/>
                </g>
                <g id="g3496">
                  <path id="path3498" class="cls-4" d="M59.35,258.68h-.98c-.09,0-.17.07-.18.15l-.88,4.56c-.01.05,0,.11.04.16s.09.07.15.07h.98c.09,0,.17-.07.18-.15l.48-2.46h.63c.29,0,.36.06.36.07.02.02.04.11,0,.31l-.39,2.02c-.01.05,0,.11.04.16s.09.07.15.07h1c.09,0,.17-.07.18-.15l.41-2.12c.1-.5.02-.87-.24-1.11-.25-.23-.66-.34-1.27-.34h-.65l.19-.99c.01-.05,0-.11-.04-.16-.03-.04-.09-.07-.15-.07M59.35,258.87l-.24,1.21h.88c.55,0,.93.1,1.14.29s.27.5.19.94l-.41,2.12h-1l.39-2.02c.05-.23.03-.39-.05-.47-.08-.08-.24-.13-.49-.13h-.79l-.51,2.61h-.98l.88-4.56h.98"/>
                </g>
                <g id="g3500">
                  <path id="path3502" d="M62.97,262.61c.38,0,.66-.07.84-.21.18-.13.3-.37.36-.7.06-.31.04-.52-.07-.63-.11-.12-.34-.18-.68-.18h-.6l-.33,1.72h.49ZM61.01,264.73s-.05-.01-.07-.03c-.02-.02-.03-.05-.02-.08l.88-4.56s.05-.08.09-.08h1.91c.6,0,1.04.16,1.33.49.28.32.37.77.26,1.34-.05.23-.12.45-.23.64s-.25.37-.42.53c-.21.2-.44.33-.7.42-.25.08-.57.12-.96.12h-.77l-.22,1.14s-.05.08-.09.08h-.99Z"/>
                </g>
                <g id="g3504">
                  <path id="path3506" class="cls-4" d="M62.9,260.98h.52c.42,0,.57.09.62.15.08.09.1.28.05.55-.06.31-.17.52-.33.64-.16.12-.42.19-.78.19h-.37l.3-1.53h0ZM63.8,259.89h-1.91c-.09,0-.17.07-.18.15l-.88,4.56c-.01.05,0,.11.04.16.03.04.09.07.15.07h.99c.09,0,.17-.07.18-.15l.21-1.06h.7c.39,0,.72-.04.98-.13.27-.09.51-.23.73-.44.18-.16.33-.35.44-.55.11-.2.19-.42.24-.67.11-.6.02-1.07-.28-1.42-.3-.34-.77-.52-1.4-.52M62.37,262.7h.6c.4,0,.7-.08.9-.23s.33-.4.4-.75c.07-.34.03-.58-.09-.72-.13-.14-.38-.21-.75-.21h-.68l-.37,1.9M63.8,260.07c.57,0,.99.15,1.25.45.26.3.34.72.24,1.26-.04.22-.11.42-.22.61-.1.18-.24.35-.41.5-.2.18-.42.32-.66.4-.24.08-.55.12-.93.12h-.85l-.24,1.21h-.99l.88-4.56h1.91"/>
                </g>
              </g>
            </g>
          </g>
        </g>
      </g>
      <polygon class="cls-14" points="137.75 39.21 57.39 121.42 93.82 208.05 181.67 208.05 242.08 116.04 137.75 39.21"/>
      <circle class="cls-6" cx="57.39" cy="121.42" r="2.78"/>
      <circle class="cls-10" cx="137.75" cy="39.21" r="2.78"/>
      <circle class="cls-1" cx="242.08" cy="116.04" r="2.78"/>
      <circle class="cls-11" cx="181.98" cy="207.53" r="2.78"/>
      <circle class="cls-13" cx="94.01" cy="207.53" r="2.78"/>
    </g>
  </g>
</svg>