<?xml version="1.0" encoding="UTF-8"?>
<svg id="Layer_2" data-name="Layer 2" xmlns="http://www.w3.org/2000/svg" viewBox="0 0 296.04 290.76">
  <defs>
    <style>
      .cls-1 {
        fill: #597cbc;
      }

      .cls-2 {
        fill: #5784c4;
      }

      .cls-3 {
        fill: #c3912c;
      }

      .cls-4 {
        fill: #13804c;
      }

      .cls-5 {
        fill: #01844e;
      }

      .cls-6 {
        fill: #51a1d8;
      }

      .cls-7 {
        fill: #5581c2;
      }

      .cls-8 {
        fill: #09aa4b;
      }

      .cls-9 {
        fill: #e84435;
      }

      .cls-10 {
        fill: #faf4f3;
      }

      .cls-11 {
        fill: #cb952b;
      }

      .cls-12 {
        fill: #4a74b8;
      }

      .cls-13 {
        fill: #c1cee9;
      }

      .cls-14 {
        fill: #5880c0;
      }

      .cls-15 {
        fill: #5f80c0;
      }

      .cls-16 {
        fill: #f1b01c;
      }

      .cls-17 {
        fill: #1ea266;
      }

      .cls-18 {
        fill: #335fab;
      }

      .cls-19 {
        fill: #229c5e;
      }

      .cls-20 {
        fill: #f58d6c;
      }

      .cls-21 {
        fill: #fcb713;
      }

      .cls-22 {
        fill: #567ebe;
      }

      .cls-23 {
        fill: #21438d;
      }

      .cls-24 {
        fill: #e7ad22;
      }

      .cls-25 {
        fill: #119853;
      }

      .cls-26 {
        fill: #edb81d;
      }

      .cls-27 {
        fill: #4d76b9;
      }

      .cls-28 {
        fill: #5280c0;
      }

      .cls-29 {
        fill: #5783c2;
      }

      .cls-30 {
        fill: #f6f0f4;
      }

      .cls-31 {
        fill: #e3a824;
      }

      .cls-32 {
        fill: #ecb41e;
      }

      .cls-33 {
        fill: #d9a227;
      }

      .cls-34 {
        fill: #5684c3;
      }

      .cls-35 {
        fill: #2e5daa;
      }

      .cls-36 {
        fill: #6286c4;
      }

      .cls-37 {
        fill: #5c83c2;
      }

      .cls-38 {
        fill: #0f8550;
      }

      .cls-39 {
        fill: #0a8241;
      }

      .cls-40 {
        fill: #fff;
      }

      .cls-41 {
        fill: #f0f0f0;
      }

      .cls-42 {
        fill: #b7ceeb;
      }

      .cls-43 {
        fill: #527bbc;
      }

      .cls-44 {
        fill: #128d53;
      }

      .cls-45 {
        fill: #149e5c;
      }

      .cls-46 {
        fill: #47b980;
      }

      .cls-47 {
        fill: #f7f6f6;
      }

      .cls-48 {
        fill: #ec6b48;
      }

      .cls-49 {
        fill: #117144;
      }

      .cls-50 {
        fill: #149758;
      }

      .cls-51, .cls-52 {
        opacity: .2;
      }

      .cls-53 {
        fill: #5982c2;
      }

      .cls-54 {
        fill: #3f6bb3;
      }

      .cls-55 {
        fill: #1aa162;
      }

      .cls-56 {
        fill: #c33f27;
      }

      .cls-57, .cls-58 {
        fill: none;
      }

      .cls-59 {
        fill: #f1b31b;
      }

      .cls-60 {
        fill: #557abc;
      }

      .cls-61 {
        opacity: .09;
      }

      .cls-61, .cls-62, .cls-52 {
        isolation: isolate;
      }

      .cls-63 {
        fill: #109d5c;
      }

      .cls-64 {
        fill: #f6f5eb;
      }

      .cls-65 {
        fill: #4871b6;
      }

      .cls-66 {
        fill-rule: evenodd;
      }

      .cls-66, .cls-67 {
        fill: #137d40;
      }

      .cls-68 {
        fill: #547cbe;
      }

      .cls-69 {
        fill: #ebb01f;
      }

      .cls-70 {
        fill: #109b59;
      }

      .cls-71 {
        fill: #129d5b;
      }

      .cls-72 {
        fill: #f8d883;
      }

      .cls-73 {
        fill: #109150;
      }

      .cls-74 {
        fill: #179a5c;
      }

      .cls-75 {
        fill: #f7f8ee;
      }

      .cls-76 {
        fill: #0e9955;
      }

      .cls-77 {
        fill: #f5b11a;
      }

      .cls-78 {
        fill: #cd992b;
      }

      .cls-79 {
        fill: #a8c2e5;
      }

      .cls-80 {
        fill: #f1b61b;
      }

      .cls-81 {
        fill: #557dbe;
      }

      .cls-82 {
        fill: #5b86c4;
      }

      .cls-62 {
        opacity: .1;
      }

      .cls-83 {
        fill: #eaf5f1;
      }

      .cls-84 {
        fill: #ecf4eb;
      }

      .cls-85 {
        fill: #557ebf;
      }

      .cls-86 {
        fill: #167a49;
      }

      .cls-87 {
        fill: #e7ac22;
      }

      .cls-88 {
        fill: #3c7abd;
      }

      .cls-89 {
        fill: #5b82c2;
      }

      .cls-58, .cls-90 {
        stroke: #959595;
        stroke-miterlimit: 10;
      }

      .cls-91 {
        fill: #4e79bb;
      }

      .cls-92 {
        fill: #497abd;
      }

      .cls-93 {
        fill: #dfa526;
      }

      .cls-94 {
        fill: #5680c1;
      }

      .cls-95 {
        fill: #3567b1;
      }

      .cls-96 {
        fill: #f0f1f8;
      }

      .cls-97 {
        fill: #17a060;
      }

      .cls-98 {
        fill: #3d68b1;
      }

      .cls-99 {
        fill: #4373b8;
      }

      .cls-100 {
        fill: #22a466;
      }

      .cls-101 {
        fill: #efeff0;
      }

      .cls-102 {
        fill: #5d83c2;
      }

      .cls-103 {
        fill: #d3522f;
      }

      .cls-104 {
        fill: #557ebe;
      }

      .cls-105 {
        fill: #019b59;
      }

      .cls-106 {
        fill: #c8942c;
      }

      .cls-107 {
        fill: #be8c2c;
      }

      .cls-108 {
        fill: #195c37;
      }

      .cls-109 {
        fill: #f7da83;
      }

      .cls-110 {
        fill: #dca427;
      }

      .cls-111 {
        fill: #a77c2c;
      }

      .cls-112 {
        fill: #f0efef;
      }

      .cls-113 {
        fill: #ecb11f;
      }

      .cls-114 {
        fill: #139256;
      }

      .cls-115 {
        fill: #5e81c1;
      }

      .cls-116 {
        fill: #f1b51b;
      }

      .cls-117 {
        fill: #f1b21c;
      }

      .cls-118 {
        fill: #436fb5;
      }

      .cls-119 {
        fill: #eaf0f4;
      }

      .cls-120 {
        fill: #089a5f;
      }

      .cls-121 {
        fill: #f1eee9;
      }

      .cls-122 {
        fill: #109755;
      }

      .cls-123 {
        fill: #6085c3;
      }

      .cls-124 {
        fill: #5a81c1;
      }

      .cls-90 {
        fill: #a8a7a7;
        opacity: .22;
      }

      .cls-125 {
        fill: #719cd2;
      }

      .cls-126 {
        fill: #5b80c0;
      }

      .cls-127 {
        fill: #199c61;
      }

      .cls-128 {
        fill: #1da263;
      }

      .cls-129 {
        fill: #f4ecf4;
      }

      .cls-130 {
        fill: #5b82c1;
      }

      .cls-131 {
        fill: #159d5c;
      }

      .cls-132 {
        fill: #5680c0;
      }

      .cls-133 {
        fill: #0a9b59;
      }

      .cls-134 {
        fill: #efeeef;
      }

      .cls-135 {
        fill: #d49d29;
      }

      .cls-136 {
        fill: #537bbc;
      }

      .cls-137 {
        fill: #5f84c3;
      }

      .cls-138 {
        fill: #5f80bf;
      }

      .cls-139 {
        fill: #4973b8;
      }

      .cls-140 {
        fill: #f7f6eb;
      }

      .cls-141 {
        fill: #5d80c0;
      }

      .cls-142 {
        fill: #f2b71a;
      }

      .cls-143 {
        fill: #f2b81a;
      }

      .cls-144 {
        fill: #8bcdad;
      }

      .cls-145 {
        fill: #f2b51b;
      }

      .cls-146 {
        fill: #5e87c5;
      }

      .cls-147 {
        fill: #158753;
      }

      .cls-148 {
        fill: #577fbf;
      }

      .cls-149 {
        fill: #5e84c3;
      }

      .cls-150 {
        fill: #fbf1f7;
      }

      .cls-151 {
        fill: #b6872d;
      }

      .cls-152 {
        fill: #13a05f;
      }
    </style>
  </defs>
  <g id="Layer_2-2" data-name="Layer 2">
    <g>
      <rect class="cls-58" x="57.26" y="54.96" width="182.51" height="182.51" transform="translate(-59.89 147.84) rotate(-45)"/>
      <rect class="cls-58" x="130.27" y="127.96" width="36.5" height="36.5" transform="translate(-59.89 147.84) rotate(-45)"/>
      <rect class="cls-58" x="112.02" y="109.71" width="73" height="73" transform="translate(-59.89 147.84) rotate(-45)"/>
      <rect class="cls-58" x="93.76" y="91.46" width="109.51" height="109.51" transform="translate(-59.89 147.84) rotate(-45)"/>
      <rect class="cls-58" x="75.51" y="73.21" width="146.01" height="146.01" transform="translate(-59.89 147.84) rotate(-45)"/>
      <line class="cls-58" x1="148.52" y1="17.16" x2="148.52" y2="275.27"/>
      <line class="cls-58" x1="19.46" y1="146.21" x2="277.57" y2="146.21"/>
      <g id="Layer_1-2" data-name="Layer 1-2">
        <g>
          <g>
            <path class="cls-8" d="M142.49,287.02c-.01-.24.05-.47.17-.68,1.27-2.2,2.54-4.41,3.81-6.61.12-.2.27-.37.49-.47.07.02.1.07.13.13.65,1.13,1.31,2.25,1.95,3.39,0,.03,0,.06,0,.08-.37.67-.76,1.33-1.14,1.99-.38.65-.75,1.31-1.13,1.96-.05.08-.08.18-.18.23-.02,0-.04.01-.07.02-.64.02-1.27,0-1.91,0h-1.85c-.1,0-.2.02-.29-.06h0Z"/>
            <path class="cls-92" d="M146.59,287.03s.02,0,.03,0c.07-.04.14-.06.22-.06,1.5,0,3,0,4.49,0h.04s.04,0,.06.01c.07.03.1.09.14.15.63,1.1,1.26,2.19,1.9,3.28.03.05.08.1.04.17-.19.13-.41.19-.64.19h-7.68c-.22,0-.43-.05-.62-.18-.05-.08.01-.14.05-.2.45-.78.9-1.55,1.34-2.33.16-.29.33-.57.49-.86.04-.07.08-.13.14-.17h0Z"/>
            <path class="cls-21" d="M151.46,287.03s-.02,0-.03,0c-.21-.22-.32-.5-.47-.76-.6-1.03-1.19-2.06-1.79-3.1-.06-.1-.13-.2-.15-.32,0-.02,0-.03,0-.05-.01-.08.03-.13.07-.19.61-1.06,1.23-2.13,1.84-3.19.03-.06.07-.12.14-.14.22.11.38.28.5.49,1.27,2.2,2.54,4.4,3.8,6.61.12.2.18.42.16.66-.06.07-.15.06-.23.06h-3.63c-.08,0-.16,0-.23-.06h0Z"/>
            <path class="cls-9" d="M151.46,287.03c1.22,0,2.43,0,3.65,0h.45c.03.24-.04.46-.15.66-.46.81-.93,1.62-1.4,2.43-.12.21-.28.38-.5.48-.65-1.13-1.3-2.26-1.95-3.39-.03-.05-.06-.11-.08-.16h0Z"/>
            <path class="cls-95" d="M146.59,287.03c-.25.51-.56.99-.84,1.49-.38.68-.78,1.35-1.17,2.02,0,.01,0,.04,0,.06-.22-.1-.38-.26-.5-.46-.47-.81-.94-1.63-1.41-2.44-.12-.2-.18-.42-.16-.66,1.37,0,2.73,0,4.1,0Z"/>
            <path class="cls-39" d="M151.09,279.26c-.65,1.13-1.3,2.25-1.95,3.37-.03.05-.07.1-.1.15-.23-.29-.38-.62-.57-.94-.51-.86-1-1.72-1.5-2.58.2-.13.42-.19.65-.19h2.82c.23,0,.46.05.65.19Z"/>
          </g>
          <g>
            <path class="cls-36" d="M151.88,283.08v-2.64c0-.1.03-.18.12-.23.07-.04.14-.05.22-.05h.42c.46,0,.91,0,1.37,0,.03,0,.06,0,.09,0,0,0,.01.02,0,.03,0,.02-.02.02-.04.02-.08,0-.16.01-.24,0h-.6.59s0,.02,0,.03c-.03.02-.03.05-.02.08.02.05.01.1,0,.15,0,0,0,.02,0,.02-.07.06-.06.15-.07.23,0,.03-.01.06-.04.08-.02,0-.03.03-.03.05,0,.11-.07.19-.11.29,0,0,0,.02-.02.02-.06.03-.07.08-.09.14-.02.06-.06.1-.1.15-.07.07-.14.12-.19.2-.02.04-.08.06-.11.07-.04.01-.08.04-.12.06-.02,0-.03.02-.03.04-.01.05-.05.06-.09.05-.03,0-.06,0-.08.02-.07.03-.13.08-.22.08-.07,0-.11.04-.16.06-.04.01-.08.03-.13.03-.07,0-.13,0-.19.04-.02.02-.06.01-.08,0-.02-.03,0-.07-.02-.1,0-.09,0-.18,0-.27v-1.23h0v3.89s0,.06-.01.09c-.04,0-.03-.04-.03-.06v-1.26s0-.04.01-.06h0Z"/>
            <path class="cls-100" d="M153.21,279.38c0-.05.03-.1.06-.14.06-.07.13-.1.22-.1h.23c.54,0,1.08,0,1.62,0,.03,0,.06,0,.08,0,.02,0,.06,0,.06.03,0,0-.01.01-.03.02-.13,0-.25,0-.38,0h-.45s-.04,0-.07,0c-.35,0-.69,0-1.04,0-.02,0-.04,0-.06.01,0,0,0,0,0,0h0s.04-.01.06-.01c.32,0,.64,0,.96,0,.05,0,.1-.01.15,0,.02.01.04,0,.06,0h.39c.07,0,.14,0,.2.01-.02.03-.05.03-.08.03-.04,0-.06.02-.05.06.02.1-.04.18-.04.27h0c-.07.06-.05.13-.05.19,0,.07-.05.13-.05.2,0,0,0,.01-.01.02-.06,0-.06.06-.07.1-.01.07-.06.12-.1.17-.02.02-.04.05-.06.08-.01.03-.03.06-.06.07-.03.01-.05.02-.05.06,0,.03-.03.03-.06.04-.02,0-.04,0-.05.02-.03.02-.04,0-.06-.02-.09-.09-.18-.18-.28-.27-.02-.02-.04-.04-.07-.05-.03,0-.06,0-.08,0h-.75s-.05,0-.07,0c-.01-.02,0-.05,0-.07v-.65s0-.02,0-.03h-.01Z"/>
            <path class="cls-143" d="M154.55,279.13v-.43c0-.06.01-.1.05-.15.04-.05.1-.09.16-.1h1.76s.06,0,.09,0c0,0,0,0,.01.01-.04.04-.05.08-.05.14s0,.1-.02.15c-.01.04,0,.07,0,.11,0,.07,0,.13-.05.18-.02.02-.02.05-.03.08-.02.07-.06.13-.08.2-.02.06-.05.11-.09.15,0,0,0,.02-.01.04,0,0,0,.03,0,.03-.06.05-.06.15-.15.18,0,0-.01.01-.02.02-.03,0-.04-.01-.06-.03-.19-.19-.38-.37-.56-.57-.02-.02-.04-.02-.06-.02-.28.01-.55,0-.83,0-.02,0-.04,0-.05-.01h0Z"/>
            <path class="cls-133" d="M156.58,283.51c-.02.05-.05.09-.1.11-.08.03-.15.03-.23.03h-.95s-.01,0-.02,0c0,0,0-.01,0-.02v-.64c0-.06-.01-.11,0-.17.01,0,.03,0,.05,0h.53s0-.02,0-.04c0-.08-.01-.17,0-.25.03,0,.03.02.03.04,0,.03.02.04.05.04.05,0,.09-.01.12-.07,0,0,0-.02.02-.03.06,0,.09-.07.14-.09.04-.02.07-.07.11-.11.02-.02.03-.07.08-.07,0,0,.01,0,.02-.02.04-.08.05-.08.13-.06.02.02-.01.04,0,.06,0,0,.01,0,0,0,.01-.04.03-.08.02-.11,0,.01,0,.03,0,.05,0,.02-.02,0-.02,0-.01-.08,0-.16,0-.24v-.13s0-.02,0-.04c0-.02,0-.04.03-.05,0,0,.01,0,.02.01,0,0,0,.01,0,.02,0,0-.01.01-.01.03,0,0,0-.02.02,0,0,0,0,0,0,.02,0,.08,0,.16,0,.24v.75c0,.21-.01.43,0,.64,0,.04-.02.08-.03.12h0Z"/>
            <path class="cls-81" d="M155.28,283.64h0s.02.01.02.02c-.02.01-.01.04-.01.06v.67c0,.07-.01.13-.06.17-.06.04-.11.09-.19.1h-2.07s-.07,0-.1,0c-.02-.03,0-.03.02-.04.02,0,.04,0,.06,0h.31c.05,0,.09,0,.14-.04.04-.02.08-.04.12-.05.05,0,.09-.02.13-.05.05-.03.1-.05.15-.06.03,0,.06-.02.08-.04.03-.03.07-.03.11-.03.04,0,.07,0,.07-.05,0-.02.02-.04.05-.04.06-.01.11-.02.15-.08,0-.01.03-.01.04-.01.05,0,.09-.05.14-.07.08-.04.15-.1.22-.15.07-.05.14-.09.2-.14.01,0,.02-.02.02-.04,0-.03.03-.04.06-.06.05-.03.1-.06.14-.11.03-.05.08-.08.1-.14,0-.03.04-.03.07-.02s.03.03.03.06c0,.05-.01.1,0,.15h0Z"/>
            <path class="cls-144" d="M154.55,279.13h.87s.08.01.12.05c.18.18.36.36.53.54.01.01.03.02.04.04h0s.02,0,.02.02c.01.01.03.03.04.04,0,0,.01.02.02.02,0,0,.01.02.02.02h.01s.02.04.04.05c.11.11.21.22.32.33,0,.01,0,.03,0,.04-.02,0-.04,0-.06,0h-.75s-.08,0-.11-.02c-.05-.03-.1-.05-.14-.1-.01-.02-.02-.05-.04-.07,0,0,0-.02-.01-.03,0-.02,0-.05,0-.07,0-.23,0-.45,0-.68v-.13s0-.02.01-.03c0-.03-.03-.02-.05-.02-.05,0-.09,0-.14,0h-1.72c-.11,0-.21.02-.29.09.05-.08.13-.11.22-.11h1.06-.01Z"/>
            <path class="cls-109" d="M156.82,278.45s.03.01.04.02c.21.21.42.41.63.62,0,0,.02.01.02.03-.01.02-.05.04-.02.08,0,0,0,0,0,.01.04.07.06.14.03.23,0,.02,0,.05.01.08.02.02,0,.03,0,.04-.03,0-.06.01-.08.01h-.36c-.05,0-.1,0-.14-.04s-.08-.06-.1-.1c0-.02-.02-.03-.03-.05,0-.01,0-.03,0-.05v-.8s0-.06.02-.08h0Z"/>
            <path class="cls-72" d="M157.08,279.55c.15,0,.31,0,.46-.01-.04,0-.06-.03-.04-.07v-.03c.04-.09,0-.16-.03-.24h0s0,0,0,0c-.03-.04,0-.07.03-.08.15.13.28.27.42.4.03.02.03.05.03.08v3.14h0s-.01-.02-.02-.03v-3.12c0-.05-.04-.02-.06-.02h-.72s-.03,0-.05,0c0,0,0,0,0-.02h0Z"/>
            <path class="cls-99" d="M154.99,284.66h.07s.02,0,.02,0c-.03.01-.07,0-.09,0h-2.18s-.03.01-.05.01h-.61s-.08-.01-.11-.03c-.02,0-.04-.02-.03-.05.02-.02.04,0,.06,0,.06.02.11.03.17.03h.6s.03,0,.04.01h.1s.03,0,.05,0h1.92s.03,0,.05,0h0Z"/>
            <path class="cls-125" d="M153.21,279.38s0,.01,0,.02c0,.06,0,.11,0,.17v.51s0,.04,0,.06h.87s.04,0,.06,0c.01.03.02.06.02.09v.74s0,.05-.01.08c-.04,0-.03-.04-.03-.06v-.76s0-.06-.03-.08h-1.95c-.05,0-.09.04-.14.03.05-.04.1-.06.16-.06h.97c.06,0,.07-.02.07-.07v-.63s0-.04,0-.06h0Z"/>
            <path class="cls-26" d="M156.82,278.45v.9s-.03-.02-.03-.04c0-.23,0-.45,0-.67v-.11s0-.05-.03-.06c-.07,0-.14,0-.21,0h-1.79c-.07,0-.11.05-.16.09.05-.08.13-.12.23-.12h1.93s.05,0,.07.01h0Z"/>
            <path class="cls-110" d="M157.95,282.73v.03c-.05.14-.15.21-.29.21h-1.04s0-.01,0-.02h1-1s0,0,0-.01c.03-.02.06-.02.09-.02h.93c.13,0,.22-.04.28-.16,0-.01.01-.03.03-.03Z"/>
            <path class="cls-71" d="M156.61,282.96h0v.43s0,.08-.03.12c.05-.56,0-1.13.02-1.69v-.08s.01,0,.02,0c0,.02,0,.04,0,.07v1.06s0,.05-.02.07h0s0,0,0,.02h0Z"/>
            <path class="cls-147" d="M155.3,283.67s-.01,0-.01-.01h1.04c.05,0,.1-.03.15-.03-.04.03-.09.04-.14.04h-1.04,0Z"/>
            <path class="cls-12" d="M155.07,284.67s-.01,0-.02,0c.06-.02.11-.05.16-.09h.01c-.04.05-.08.09-.15.1Z"/>
            <path class="cls-123" d="M151.94,282.07s.08,0,.11-.04c0-.01.03,0,.05,0h.15s.06,0,.07-.03c0,0,0,0,0,0,.07,0,.11-.08.18-.06.03,0,.08.01.09-.03,0,0,.02,0,.02,0,.05,0,.08-.01.1-.05.02-.02.03-.02.06,0,.05.02.08,0,.08-.04,0-.01,0-.03.02-.03.04,0,.08-.05.09-.04.06,0,.08-.06.14-.06,0,0,.02,0,.03-.02.04-.09.12-.15.2-.21.01-.01.02-.02.02-.04s0-.04.03-.04c.03,0,.02-.03.03-.06.02-.05.01-.12.09-.14,0,0,.02,0,.02-.01.03-.1.11-.18.11-.29,0-.02,0-.04.01-.05.08-.02.05-.09.06-.14.01-.06,0-.12.06-.17.03-.03.02-.11,0-.16-.02-.08-.03-.09.04-.12.08,0,.17,0,.25,0,.03.04,0,.09.01.13v.08c-.01.12,0,.24-.01.36-.01.03-.02.06-.02.09,0,.03,0,.06-.01.08-.04.03-.07.02-.08-.03,0-.06,0-.11,0-.16,0,.08-.02.16-.05.23-.01.03,0,.05.03.07.04.02.04.04,0,.06-.04.02-.06.06-.1.06-.01,0-.02.01-.02.02,0,.06-.05.1-.1.14-.04.03-.05.08-.07.12,0,.02,0,.03.02.04.02.01.03.03.02.06-.02.03-.05.03-.08.02-.05-.02-.08,0-.08.05,0,.03-.02.04-.05.05-.04.02-.08.05-.11.09-.02.03-.04.05-.08.05s-.05.02-.05.05c0,.02-.01.04-.04.04-.07.01-.12.04-.16.11,0,.02-.03.02-.05.03-.03.02-.08.03-.11.05-.03.03-.07.04-.11.03-.04,0-.07.01-.09.04-.08.08-.17.07-.26.06-.04,0-.07,0-.09.03-.03.05-.08.06-.14.06-.08,0-.16,0-.24,0,0,0-.02,0-.02-.01,0-.08-.02-.16,0-.23h0Z"/>
            <path class="cls-89" d="M151.9,283.08v-.08s0,0,0-.01v-.44s0-.02.01-.02c.01,0,.01,0,.02.02v.02c0,.12.02.24,0,.37.01-.03.04-.04.07-.04.04,0,.08,0,.12-.03,0,0,.02,0,.03,0,.08,0,.16-.03.25-.03.07,0,.14-.03.22-.03.02,0,.03-.01.04-.03.03-.04.03-.04.06,0,0,0,0,0,.02.01,0,0,.01,0,.02,0h.72s.06,0,.09,0c.03.01.06.02.09.02h.24s.07,0,.07.05c0,.04-.03.04-.07.05-.09.01-.18,0-.25,0,.22,0,.44-.02.67,0,.03,0,.07,0,.09.02-.02.03-.04.02-.07.02-.13,0-.26,0-.38,0-.19-.02-.38,0-.53,0,.13,0,.3,0,.47,0-.02.03-.05.02-.07.02h-1.07,1.13c.17,0,.35,0,.52,0,0,0,.01,0,.02.01,0,0,0,.01-.01.02-.03.01-.07,0-.1,0h-1.48c-.08,0-.11.04-.08.12,0,.02.02.02.03.02h1.54s.07,0,.1.01c0,0,0,.01,0,.02-.02.01-.04.01-.06.01h-1.57s0,0,0,0h.92s.04,0,.06,0c0,.04-.03.03-.05.03-.13,0-.26,0-.39,0-.06,0-.12,0-.16,0-.02,0,0,.01-.01,0h0c.08,0,.15,0,.23,0,0,0,.03,0,.03.01,0,.02-.01.02-.03.02-.06,0-.11.02-.15.06-.02.02-.05.01-.08.01h-.41s-.02,0-.03.02c-.03.03-.04.03-.06-.01,0-.02,0-.05-.02-.07-.03-.02-.06,0-.09,0-.04,0-.08,0-.12,0s-.07.02-.09.07c-.03.07-.11.05-.16-.03-.01.04-.04.07-.08.07h-.12s-.03-.02-.03-.04v-.12c0,.07,0,.15,0,.23v.39s0,.06-.02.07c-.03-.02-.02-.05-.03-.08,0-.09,0-.17,0-.26v-.45s0-.04,0-.06h0Z"/>
            <path class="cls-149" d="M152.75,282.79s-.03,0-.02-.02c0,0,0-.02-.01-.02,0,0-.02,0-.01.02,0,.05-.03.05-.06.05-.09,0-.19.01-.27.03-.08.01-.18-.01-.26.06-.02.02-.06,0-.08,0-.04,0-.06,0-.05.06,0,.01,0,.02,0,.03-.02,0-.02-.01-.02-.03v-.05c0-.13-.02-.25-.02-.38v.19c0,.08,0,.17,0,.26t-.02,0s0-.07,0-.1c0-.12,0-.24,0-.37v-.28h.01v.03-.24s0-.05.01-.07c.02.03,0,.06,0,.09v.24c.03.06.02.13,0,.17,0-.02.04-.02.07-.02.09,0,.17,0,.26,0,.07,0,.14-.02.2-.05.08-.04.15-.06.24-.05.03.01.05.02.08.03.22,0,.45,0,.67,0,.08,0,.15,0,.23,0,.03.02,0,.03-.01.03-.07,0-.13.05-.2,0-.04-.02-.1,0-.15,0-.02,0-.03.02-.05.04-.04.05-.08.07-.14.04-.03-.02-.06-.02-.08,0s-.07,0-.09.02c-.06,0-.11,0-.16,0,0,0,0,0-.01,0-.01,0-.03.01-.05.01.02,0,.05,0,.07,0h1.53s.06,0,.09,0c0,0,0,.01,0,.02-.03.02-.06.01-.09.01h-1.53s-.06.01-.06.05v.11h0Z"/>
            <path class="cls-126" d="M154.1,280.16s.05.03.05.06v.77s0,.05,0,.07c0,0,0,.01.01.02,0,.04.02.07.04.1,0,.04.02.08.05.11.01.01.02.03.03.05.03.08.09.12.18.12.02,0,.04.01.06.02,0,0,.01,0,.02.01,0,0,.01,0,.02.01.01.01.03.03.04.04,0,0,0,0,0,.01,0,0,0,.02,0,.03-.06,0-.12-.01-.18,0-.02,0-.04,0-.05-.02s-.03-.01-.05,0c-.03,0-.05,0-.08,0,0,0-.01-.02-.02-.03-.01-.03-.03-.07-.06-.09-.04-.02-.06-.05-.06-.09,0-.07,0-.14-.06-.2-.02-.03.01-.06.02-.09,0,0,0,0,0-.02,0-.01,0-.02,0-.04v-.57s0-.01,0-.02c0-.08.02-.15,0-.23v-.02h0Z"/>
            <path class="cls-146" d="M153.16,280.19h-.8c-.05,0-.1,0-.15.02-.04.02-.08-.02-.12-.03h1.06Z"/>
            <path class="cls-82" d="M154.1,280.19s.02.08.02.12c0,.04,0,.07,0,.1-.03,0-.02-.04-.02-.06,0-.05.01-.1-.01-.15h-.87c.3-.02.6,0,.89-.02h0Z"/>
            <path class="cls-79" d="M154.16,281.08v-.93c.11.11.23.23.34.34,0,0,.02.01.03.02h0s.06.06.09.08c.03.03.06.06.09.09.05.05.09.09.14.14.08.08.15.15.22.22h0s.07.08.1.11c.03.04.07.05.12.05h.47s.05,0,.08,0c0,0,0,0,0,.02,0,0-.02.01-.04.01h-.53s0,.04-.02.04c-.16,0-.33,0-.49,0h-.33s-.08,0-.11-.02c-.08-.04-.15-.1-.17-.19h0Z"/>
            <path class="cls-128" d="M154.71,280.69s-.07-.06-.09-.09c0,0,0-.01,0-.02v-.02s-.01-.03-.03-.03h-.02s-.01,0-.02,0h0s0-.03-.01-.05c.03,0,.06,0,.08,0,.02,0,.06,0,.03-.05-.01-.02,0-.04.02-.04.04,0,.07-.02.08-.05.03-.08.11-.13.15-.21.02-.03.03-.07.02-.1,0-.03,0-.05.04-.05.03,0,.03-.01.04-.04.02-.1.06-.2.05-.3,0,0,0-.02,0-.02.07-.02.05-.08.06-.13,0-.02,0-.04.02-.05.02-.03.02-.06.01-.09-.02-.1-.01-.11.08-.11h.05c-.07-.02-.13,0-.18-.02,0,0,0,0,0,0h.07-.07s0,0,0,0c.02-.02.04,0,.06,0h.32s0,.03,0,.05c0,0,0,0-.01,0-.05.02-.08.05-.08.1v.08c0,.06,0,.1-.08.11-.02,0-.03.02-.04.05,0,.04,0,.07.01.11.03.07.02.09-.05.13-.02,0-.02.03-.03.05-.02.05-.03.1-.08.15-.03.03-.06.09-.04.15.01.04.01.08-.03.11-.02.01-.02.04-.02.07,0,.03,0,.05-.04.04-.06,0-.07,0-.07.07,0,.05,0,.1-.06.12-.02,0-.03.03-.03.05,0,.04-.02.06-.06.06-.03,0-.05.02-.05.05h-.01Z"/>
            <path class="cls-128" d="M154.61,279.17c-.39.02-.79,0-1.19,0,.02-.02.04-.02.06-.02h1.08s.03,0,.05,0h0Z"/>
            <path class="cls-127" d="M153.23,280.14s-.01-.02-.01-.03v-.7s0,.04,0,.05v.68h0Z"/>
            <path class="cls-128" d="M154.61,279.17h.46s0,0,0,0h-.4s-.04,0-.06,0h0Z"/>
            <path class="cls-97" d="M155.45,279.21s.01-.03,0-.05h.02v.02s0,.04-.03.02Z"/>
            <path class="cls-80" d="M156.79,278.45c.04.05.02.11.02.17-.02,0-.02,0-.03-.02v-.08c.02.27,0,.52.01.77,0,.06,0,.13.02.18.02.06.02.12.05.17,0,.03,0,.05.03.07.03.03.03.08.04.12,0,.02-.01.03-.03.03-.04,0-.05.02-.05.06,0,.05-.01.09-.07.12-.01,0-.02.02-.02.04,0,.03-.03.05-.06.05-.04,0-.05.02-.04.05,0,.02,0,.04-.02.04-.02,0-.03-.01-.04-.03,0-.02-.03-.03-.02-.05,0,.03.04.05.02.08-.08-.06-.15-.15-.23-.22-.03-.03-.07-.07-.1-.1,0-.01-.02-.03-.04-.04h0s0-.03.02-.03c.03.01.06,0,.08.02,0,.03.03,0,.04.01,0,0,0,0,0,.01.02-.04.08-.06.07-.12v-.06s.02-.05.05-.06q.07,0,.05-.08s0-.03,0-.05c0-.03,0-.06.05-.06.05,0,.06-.03.06-.07,0-.15.04-.3.03-.44,0-.08,0-.15.03-.22.02-.06.04-.12.04-.18,0-.05,0-.08-.07-.08-.01,0-.03,0-.04-.01h0s.06-.02.08-.02.05,0,.07,0h0Z"/>
            <path class="cls-142" d="M156.31,279.88s-.06.02-.07-.02h0s.02,0,0-.02c0-.02-.02-.03-.04-.04,0,0,0,0-.01.01,0,0,0,.02-.03.01-.02,0-.03-.02-.05-.04,0-.02-.01-.02-.02-.02h0s0-.04.04-.04c.03,0,.05-.04.05-.07,0-.02,0-.04.04-.05.02,0,.04-.03.03-.05,0-.05.02-.08.06-.1.03-.01.04-.04.04-.07,0-.02,0-.05.03-.06,0,0,.01,0,.01-.01,0-.07.06-.12.07-.18,0-.06.07-.09.07-.16,0,0,0,0,0-.01-.01-.13.05-.26.04-.39,0-.05.01-.06.06-.06.04,0,.09-.02.11.01.02.04.02.1,0,.14-.02.07-.03.13-.05.19-.03.09,0,.19-.01.29,0,.11-.02.23-.03.34,0,.03-.02.03-.04.03-.06,0-.08.03-.05.09.03.08.02.09-.06.09-.04,0-.05.01-.05.05v.09s0,.04-.02.04c-.06,0-.05.05-.06.09-.04-.01,0-.06-.03-.08,0,0-.02,0-.03,0h0Z"/>
            <path class="cls-116" d="M154.56,279.09v-.41h0v.41h0Z"/>
            <path class="cls-85" d="M151.91,284.5v-.92s0,.06,0,.09c0,.08,0,.16.01.24.02.02.01.05.01.08v.23c0,.06.01.08.08.08.13,0,.26.02.38,0,.1-.02.21-.04.31-.04.02,0,.03,0,.05-.02.01,0,.02-.02.04-.02.11,0,.2-.07.3-.07.03,0,.06-.02.08-.04.03-.03.07-.04.12-.04.07,0,.12-.01.17-.06.04-.04.1-.04.15-.07.08-.06.16-.09.25-.12.08-.04.16-.11.25-.12.04,0,.08-.04.1-.08.05-.06.11-.08.17-.1.02,0,.02-.01.02-.03,0-.02.02-.03.03-.04.17-.11.29-.27.43-.4.08-.07.14-.15.22-.22.02-.01.03-.03.04-.06,0-.03.03-.05.06-.07.03-.02.06-.02.07.02,0,.02,0,.04,0,.06,0,0,0,.02,0,.02.02.05,0,.11,0,.16h-.01v-.06s0,.06,0,.08v.39s0,.03,0,.05v.09s0,.06,0,.09h0s-.02,0-.02,0v-.13s0-.05-.03-.05c-.03,0-.06,0-.06.04,0,.04-.02.06-.05.07-.02.01-.05.03-.05.06h0c-.06.02-.08.08-.14.1-.02,0-.04,0-.04.02-.01.09-.08.11-.15.14,0,0-.01,0-.01,0-.05.09-.16.1-.21.19h0c-.09,0-.14.11-.24.1,0,0-.02,0-.02,0-.02.08-.09.06-.15.08-.02,0-.05.01-.04.04,0,.05-.02.06-.06.05-.03,0-.06,0-.09,0,0,0-.02,0-.02,0-.03.08-.11.06-.17.08-.03,0-.03.04-.07.05-.05,0-.09.03-.13.05-.16.09-.33.09-.51.08h-.1s-.04,0-.05.02h-.03s-.05,0-.07,0h-.53c-.07,0-.14,0-.21-.04,0,0-.01,0-.02,0-.02,0-.03,0-.04-.01-.02-.02-.04-.04-.05-.07,0-.01,0-.03,0-.04h-.02Z"/>
            <path class="cls-112" d="M155.27,282.82h0v-.11s0-.06.02-.08c.09-.01.19,0,.28,0q.07,0,.07-.07v-.12s-.02-.07-.07-.06h-.19s-.05,0-.08,0c-.01,0-.03-.01-.03-.02,0-.07-.03-.13.02-.19.08-.02.15,0,.22,0,.15,0,.13,0,.13-.13,0-.13.02-.11-.11-.11-.08,0-.15,0-.23,0,0,0-.01,0-.02-.01-.02-.05,0-.1,0-.16,0-.04.03-.05.07-.05h.24s.04,0,.06-.01c.02-.07,0-.13,0-.19,0-.04-.03-.03-.06-.03h-.22s-.04,0-.06,0c-.01,0-.02,0-.03-.02,0,0,0,0,0-.02,0-.03,0-.06,0-.08h0s0-.02,0-.03c0,0-.01-.02-.02-.03.12-.01.23,0,.35,0,.07,0,.15,0,.22,0h.03s.02.04.02.06v1.47s0,.04-.02.06c-.02-.01,0-.04,0-.05v-.29.28s0,.05-.05.05h-.45.49s.01,0,0,.01h-.58Z"/>
            <path class="cls-71" d="M156.59,281.7s-.02.03-.02.05c-.04,0-.03-.04-.04-.07,0-.02,0-.04-.03-.04-.02,0-.03.02-.03.04v.06s0,.03-.01.04c-.04.03-.07.07-.1.11-.02.03-.07.05-.08.08,0,0-.02.01-.03.02-.03,0-.04.04-.06.05-.05.04-.08.1-.14.13-.04.02-.04.03-.02.07,0,.01.02.03,0,.05-.02.02-.04,0-.06,0-.1-.01-.11-.08-.1-.16v-.24c0-.08,0-.17,0-.26,0-.05.01-.08.07-.08.02,0,.03-.02.04-.04,0-.04.03-.07.07-.09,0,0,.02-.01.02-.03,0-.08.07-.11.11-.15.03-.02.05-.04.06-.08,0,0,0-.01,0-.02.03-.06.08-.12.06-.2.02,0,.03,0,.05.02.06.06.13.09.18.15v-.02s0-.03.02-.03c.02,0,.02.02.02.03,0,.04,0,.08.01.11v.45s0,.04-.01.05h0Z"/>
            <path class="cls-45" d="M156.31,280.94c.05.07,0,.12-.03.17-.02.03-.04.06-.04.09,0,.01,0,.03-.02.03-.06.01-.08.07-.12.1,0,0-.01,0,0,0,.02.07-.05.08-.08.12-.01.01-.02.03-.02.05,0,.03-.02.05-.05.05-.04,0-.06.01-.07.05,0-.03,0-.06,0-.08.01-.08,0-.16,0-.23v.05c0,.33,0,.67,0,1v.09c-.01.12-.01.24,0,.36,0,.02,0,.03-.02.04,0,0,0,0-.01-.01h0s0-.04,0-.05v-1.54h0c-.06-.02-.11,0-.17-.02-.02,0-.04,0-.07-.01.06-.02.1,0,.14,0h-.06s-.05,0-.07-.01c.06,0,.11,0,.17,0h-.15s-.04-.02-.02-.03c.07-.05.09-.14.16-.18,0,0,.01,0,.01-.01.02-.1.09-.18.15-.26h0c-.08.05-.15-.01-.22-.04-.02,0-.02-.02,0-.04.02-.06.02-.07-.04-.09-.04-.01-.07-.03-.06-.08,0,0,0-.01.01,0,.05.06.15.03.18.12,0,.02.03,0,.05.01.02,0,.04,0,.06.01.01,0,.02.01.03.02.06.05.12.11.17.16.04.04.08.09.13.13.02.02.05.04.05.08h0Z"/>
            <path class="cls-70" d="M155.87,282.43v-.08c.01-.14,0-.28,0-.42,0-.02-.01-.04.01-.05v.31s0,.06.04.05c.02,0,.04.01.06.03.01.01.02.01.03,0s0-.02,0-.03c-.04-.01-.02-.05-.02-.07,0-.03.03-.02.05-.02.03,0,.04-.02.04-.05,0-.03,0-.05.04-.04.04,0,.05-.01.05-.05,0-.01,0-.04,0-.03.09.03.08-.11.16-.1,0,0,.01,0,.01-.02,0-.05.02-.07.07-.08.02,0,.02-.03.02-.05v-.09s.02-.04.05-.04.04.02.04.05c0,.03,0,.06.02.08,0,0,0,.02,0,.02-.01.06,0,.12,0,.17,0,.02.01,0,0,0h0c0-.05,0-.1,0-.16.02.02,0,.04,0,.06v.31h-.04s-.08,0-.07.06c0,.02,0,.03-.03.03-.04,0-.06.01-.06.06,0,.03,0,.04-.04.04-.04,0-.06.01-.06.05,0,.03,0,.04-.04.04-.03,0-.04.02-.06.03-.06.03-.08.1-.15.13,0,0-.02,0-.03.01-.03.01-.06.01-.08,0-.04,0-.01-.05-.02-.07,0,0,0-.01,0-.02-.01-.03,0-.06,0-.09h0Z"/>
            <path class="cls-50" d="M156.31,280.94c-.04-.07-.11-.1-.15-.16,0,0-.02-.02-.03-.03.09,0,.17-.03.26-.03.05,0,.1.04.15.02,0,0,.01.01.01.03,0,.06,0,.12,0,.15v-.11s0-.03.01-.03c.01.01,0,.03.01.06,0-.11,0-.22,0-.32,0-.02,0-.03.01-.05h.02s0,.03.01.05v1.14s0,.03,0,.05c0,0,0,.01-.01.02,0,0,0,0,0,0h0s0-.01,0-.02c0,0,0,0,0-.01,0-.12,0-.24,0-.37v-.23s0,0,0,0c0,.03,0,.05,0,.08-.03-.04,0-.08-.02-.13-.02.03,0,.06-.01.08-.08-.07-.16-.13-.24-.2h0Z"/>
            <path class="cls-120" d="M156.59,281.18v-.13h0v.65s0,0,0,0v-.52Z"/>
            <path class="cls-76" d="M155.87,282.43s0,.06,0,.09v.23s0,.03,0,.05c.03.04,0,.03-.03.04.01-.02,0-.05,0-.08v-.32h0Z"/>
            <path class="cls-81" d="M155.27,282.99h0v.46s0-.04,0-.06v-.4h0Z"/>
            <path class="cls-70" d="M156.57,282.16s0-.06.02-.09c0,.07.01.12-.03.17-.01-.03,0-.06,0-.08h0Z"/>
            <path class="cls-71" d="M156.56,281.79v.17c0-.07-.02-.13,0-.19,0,0,0,.02,0,.02Z"/>
            <path class="cls-81" d="M155.28,283.63s-.02-.06,0-.09v.09Z"/>
            <path class="cls-71" d="M156.59,281.72v.06s-.02-.04,0-.06Z"/>
            <path class="cls-85" d="M154.99,284.66h-2.02s.04,0,.06,0h1.9s.04,0,.06,0h0Z"/>
            <path class="cls-145" d="M156.61,280.51s0-.03,0-.04c-.02-.07,0-.14,0-.21,0,0,0-.02-.01-.03,0-.04-.05-.05-.05-.09.05-.02.04.03.05.05,0,0,0,.04.03.03s0-.02,0-.04c0-.03.02-.06.05-.06.03,0,.06,0,.06-.04,0-.02,0-.03.02-.04.07-.02.07-.08.07-.12,0-.04.01-.07.06-.06.01,0,.04,0,.03-.01-.03-.03,0-.09-.04-.12-.02-.02-.04-.04-.02-.08.03,0,.05.01.07.04.08.11.19.14.31.15.02,0,.04,0,.06,0,.04.02.08.06.11.09.03.04.07.07.11.11,0,0,0,.02,0,.03-.04.06-.05.11-.03.18,0,.02,0,.05-.03.07-.01,0-.02.02-.02.04,0,.05-.05.06-.09.05-.03,0-.06,0-.07.03,0,.01,0,.03-.02.03-.06.02-.1.08-.17.09-.03,0-.06-.01-.07-.05,0,0,.01,0,.02,0,0,0,0,0,0,0,0,0,.01,0,.02,0,0,0-.01,0-.02,0-.02-.02-.03.01-.05,0-.1,0-.2,0-.3,0-.03,0-.06,0-.08-.02h.01Z"/>
            <path class="cls-97" d="M155.07,281.05c-.08-.07-.16-.15-.23-.23-.01-.02,0-.03.01-.04.01,0,.02,0,.03,0,0,.02.03.03.04.04.05.06.06.06.1,0,.06-.08.14-.13.16-.23,0-.01.02-.02.03-.03.04-.04.08-.08.09-.14,0-.04.04-.06.05-.1,0-.05,0-.09,0-.14,0-.08,0-.15.07-.2,0-.02,0-.05,0-.07v-.64s0-.05,0-.08c.01-.01.02,0,.02,0,0,.02,0,.05,0,.08v.7s0,.03,0,.05c0,.04,0,.08.03.1,0,0,0,0,0,.01-.02.08.05.12.08.19,0,.02.02.03.02.05,0,.01,0,.02,0,.04.01.02,0,.05,0,.07,0,0-.02.02,0,.04,0,.01.02,0,.04,0,0,0,.02,0,.03,0,.02,0,.04,0,.05.02,0,.01,0,.03,0,.04-.03.04-.05.08-.07.13,0,.04-.03.05-.07.05h-.11s-.04,0-.04.02c0,.02,0,.03.02.04.04.02.04.06.01.08-.03.05-.08.08-.12.13,0,0-.02.02-.04.01-.05-.02-.11,0-.15-.05-.01-.01-.04-.02-.06-.02,0,0,0,0,0,0h0s.01.02,0,.03v.02Z"/>
            <path class="cls-4" d="M156.6,280.26c.02.07,0,.14,0,.21h0s-.01-.06,0-.09c0-.03.01-.06-.02-.08-.23,0-.47,0-.7,0-.03,0-.06,0-.08,0h0,0s-.02.01-.03.02c.12-.03.25,0,.38,0,.05,0,.1.02.15.03.06,0,.11,0,.15-.02.04-.02.08-.02.12-.01,0,0,.01,0,.02,0,.02.02.01.04.01.07,0,.04-.04.06-.08.06-.13,0-.26.01-.38,0-.14-.02-.28-.01-.41-.08-.03-.02-.07-.04-.09-.08-.01-.01-.03-.04.01-.03.06.02.11.02.17.02h.78,0Z"/>
            <path class="cls-74" d="M155.65,280.24s-.02,0,0,.02c.03.02.05.05.08.07.03.03.07.05.1.08,0,.01.01.02.03.03,0,0,0,0,.01,0,.03.03.08.05.08.1-.04.01-.07-.02-.11,0,0,0-.01,0-.01,0,0-.07-.05-.08-.1-.08-.04,0-.04-.05-.07-.06,0,0-.01,0-.02,0-.04-.06-.08-.11-.11-.17,0-.01-.03-.03,0-.05.01,0,0-.02,0-.02-.04-.02-.04-.07-.03-.1,0,0,0,0,.01,0,0,0,0,.02,0,.02,0,.02.01.04.03.06.03.04.08.06.11.09h0Z"/>
            <path class="cls-128" d="M155.48,279.31s0-.07-.02-.09h-.01s.02-.03.03-.04v.13h0Z"/>
            <path class="cls-143" d="M156.11,279.75h0s.04-.02.04,0c0,.02-.03,0-.03.02,0,0-.01-.02-.02-.02h0Z"/>
            <path class="cls-143" d="M156.18,279.82s.02-.01.02-.02c.02,0,.02.01,0,.04h0s-.01-.01-.02-.02h0Z"/>
            <path class="cls-97" d="M155.53,280.15s-.03-.03-.03-.06c.02.01.02.04.03.06Z"/>
            <path class="cls-143" d="M156.25,279.84h0s-.02,0-.02.02c0,0-.01-.02-.02-.02h0s.03-.04.05,0Z"/>
            <path class="cls-143" d="M156.23,279.88s.03.02.04.04c-.02,0-.03-.02-.04-.04Z"/>
            <path class="cls-128" d="M155.49,280.07h-.01v-.06s0,.04,0,.06h0Z"/>
            <path class="cls-113" d="M157.28,279.86c-.08,0-.15-.01-.22-.04-.06-.02-.12-.05-.15-.12,0-.02-.04-.03-.06-.05-.01-.03-.05-.06-.01-.1,0,0,0-.02,0-.02-.05-.02-.04-.07-.03-.1,0-.04,0-.08-.01-.12,0-.02,0-.04,0-.06v-.58s0-.04,0-.06c0,0,.01,0,.02,0v.65s-.03.06,0,.08c0,.01,0,.03,0,.04,0,.01,0,.03.02.04.04.05.06.11.08.16.03.07.09.1.15.12.04.01.07.03.1.05,0,0,0,0,.01,0,.01.01.02.03.04.04,0,0,.01,0,.02.01,0,0,.02.02.02.03h0s0,0,0,0Z"/>
            <path class="cls-107" d="M157.88,279.56s.06-.02.06.02c0,.03-.01.05-.05.06-.13.04-.25.02-.38.03h-.07c-.11.01-.22,0-.32-.04-.04-.01-.08-.02-.12-.05-.02-.01-.04-.03-.06-.05,0,0-.02-.02,0-.02.04.02.09.04.14.04h0s-.02,0-.03.02h.03c.21.03.42.02.63.02.06,0,.11-.03.16-.02,0,0,.01,0,.02,0,0-.01-.01,0-.02-.01h0Z"/>
            <path class="cls-87" d="M156.95,279.52s.04.04.06.06c.04.04.08.07.12.11.01.01.02.02.04.04,0,.01.03.02.03.05-.05-.04-.11-.05-.16-.07-.07-.03-.09-.1-.14-.14.03-.06-.04-.09-.04-.14,0,0,0,0,.01,0,.03.03.06.07.09.09Z"/>
            <path class="cls-26" d="M156.86,279.43h-.01s-.01-.03,0-.05c.01,0,.02.03.02.04h0Z"/>
            <path class="cls-117" d="M156.61,282.94v-.71s.04-.01.07-.01h.18c.08,0,.15-.02.21-.08.03-.02.03-.04.03-.07,0-.03,0-.06,0-.09.02-.04,0-.08.01-.12,0-.02,0-.05,0-.07.01-.12,0-.24,0-.37,0-.03,0-.06,0-.08.04-.01.03.02.03.03,0,.04,0,.09,0,.13,0,.21-.02.41,0,.59,0-.09,0-.21,0-.32,0-.04.01-.06.05-.08.02,0,.03-.02.04-.04,0-.02.03-.04.05-.05.02,0,.03-.01.04-.03.02-.05.06-.06.1-.06q.08,0,.08-.08s0-.09.06-.11c.01,0,.02-.02.03-.03,0,0,0-.02.02-.03.07-.02.08-.09.14-.13.04-.02.06-.08.08-.12.03-.05.04-.1.04-.16v-.27s0-.06.01-.08c0,0,.01,0,.02,0v1.22s0,.04,0,.06v.94c-.03.09-.09.16-.19.2-.02,0-.05.01-.07.01h-1.07Z"/>
            <path class="cls-24" d="M157.5,280.08s0-.01,0-.02c.02-.02.05-.03.08-.02.07.02.14,0,.21.01.03,0,.06,0,.09,0,.03,0,.07,0,.07.05h.01v.23s-.03-.04-.01-.07c-.09.02-.18.06-.28,0-.04-.03-.08-.07-.12-.1-.02-.02-.03-.04-.04-.07h0Z"/>
            <path class="cls-31" d="M157.95,280.09s0,.02-.02.03c-.01-.02,0-.05-.02-.07-.02,0-.05,0-.07,0-.03,0-.06,0-.09,0-.03,0-.06,0-.09,0,0,0-.03,0-.03,0-.04-.04-.09,0-.13,0-.04-.03-.08-.07-.1-.1.02-.01.04-.01.07-.01.13,0,.26,0,.39-.01.04,0,.07,0,.1.02v.15h0Z"/>
            <path class="cls-93" d="M157.95,279.94s0,.04-.03,0c-.04-.03-.1-.01-.15,0-.09.01-.19,0-.28,0h-.11s-.07-.06-.1-.09h0s.06,0,.09,0c.06.01.13,0,.19,0,.11,0,.22,0,.32,0,.02,0,.04,0,.06,0v.08h0Z"/>
            <path class="cls-3" d="M157.12,279.69s-.08-.07-.11-.11c.08.04.17.07.27.08.1.02.2,0,.3,0,.08,0,.16,0,.25,0,.03,0,.07-.04.1-.02,0,0,.01-.02.02-.04v.08s0,.02-.02.02c-.08,0-.15.05-.23.04-.18-.03-.36,0-.54-.03-.01,0-.03,0-.04,0h0Z"/>
            <path class="cls-135" d="M157.26,279.83h0s-.04-.03-.02-.06c.07-.03.14,0,.2-.01.14,0,.27.01.41,0,.04,0,.07-.01.1.01v.06s-.04.02-.06.02c-.15,0-.29.02-.44,0-.07,0-.13.01-.2-.02h0Z"/>
            <path class="cls-69" d="M157.65,280.23s.08.05.13.04c.05-.01.1-.01.16-.02.01.02,0,.05.01.08v.18s0,0,0,0h0s-.03,0-.04-.02c-.01-.03-.04-.05-.07-.08-.06-.04-.1-.09-.15-.13-.01-.01-.03-.02-.02-.05Z"/>
            <path class="cls-33" d="M157.26,279.83c.11,0,.22,0,.33,0,.08,0,.17,0,.26,0h.09v.03s-.01.03-.05.03c-.06,0-.12,0-.17,0-.07,0-.14-.02-.21,0-.08.01-.15-.01-.23-.02,0,0-.01-.02-.02-.03h0Z"/>
            <path class="cls-78" d="M157.95,279.77c-.09,0-.17.02-.26.01-.13,0-.26,0-.39-.01-.02,0-.05,0-.07,0-.01,0-.02,0-.02,0h0s-.02-.03-.03-.05c.01-.01.03,0,.04,0,.18.01.36,0,.54,0,.06,0,.1-.01.16-.02.02,0,.03-.01.04-.02h0v.09h0Z"/>
            <path class="cls-59" d="M157.93,280.5h0v1.29s0-.04,0-.07v-1.22Z"/>
            <path class="cls-111" d="M157.88,279.56s.02,0,.03,0c0,0,0,0-.01,0-.13.02-.26.02-.39.02h-.25c-.06,0-.12-.01-.18-.02,0,0-.02,0-.04,0h.84Z"/>
            <path class="cls-109" d="M157.53,279.19s.04.03.04.05c-.01,0-.04-.02-.04-.05Z"/>
            <path class="cls-109" d="M157.48,279.21s0-.04.03-.04c0,.02,0,.04-.03.04h0Z"/>
            <path class="cls-81" d="M152.76,284.66s.05-.02.08-.02c.02,0,0,0,0,.02h-.08Z"/>
            <path class="cls-11" d="M156.61,282.96h0c.36,0,.73,0,1.09,0h0s-1.09,0-1.09,0Z"/>
            <path class="cls-112" d="M157.08,282.15c-.05.06-.12.08-.2.08h-.27v-.49h0s.08-.02.13-.02q.15,0,.15-.15v-.48c0-.08,0-.09-.09-.09h-.13s-.05,0-.07-.01c0-.15,0-.31,0-.46h.27s.08,0,.13.01h0s.04.03.06.05c0,0,0,.02,0,.03.03.07.03.15.03.23v1.06c0,.06,0,.11,0,.16,0,.04,0,.07-.03.09Z"/>
            <path class="cls-102" d="M154.1,281.06s0,.03-.01.04c-.02.02-.03.04,0,.05,0,0,.01.01.01.02,0,.06.04.12.02.19,0,.05.04.05.06.08,0,0,0,0,0,.01-.02.04,0,.05.04.06,0,0,0,0,.01,0v.03s.01.03,0,.05c-.03.03-.04.08-.07.11-.03.04-.02.06.03.07.01,0,.03,0,.03.02,0,.01,0,.03-.01.03-.05.03-.08.08-.11.15-.02.05-.07.07-.1.1-.01,0-.03,0-.04,0-.04-.02-.07,0-.11.02-.06.04-.12.08-.19.08h-.34s-.07,0-.09-.02c-.01-.04,0-.09.04-.11.1-.04.16-.13.23-.19s.14-.14.21-.21c.03-.03.05-.05.06-.08,0-.02.02-.04.03-.05.08-.09.14-.19.14-.31,0-.03,0-.06.04-.08.04-.03.04-.04,0-.07-.04-.01-.03-.05-.03-.08s.02-.04.05-.03c.02,0,.02,0,.02-.02,0-.03,0-.06,0-.08,0-.01,0-.03,0-.04,0-.01,0-.02.02-.01.02.05,0,.09,0,.14,0,.03,0,.06,0,.08,0,0,0,.01.01.02h0Z"/>
            <path class="cls-137" d="M154.03,280.94s.01.03,0,.05c-.02,0-.02-.05-.05-.02-.02.01,0,.04,0,.06,0,.02,0,.03.03.03s.04,0,.04.02c0,.02,0,.05-.02.07-.04.01-.05.04-.04.08.01.08-.05.15-.07.22-.02.08-.12.11-.13.2,0,.03-.06.07-.09.09-.08.07-.15.15-.22.22-.06.05-.1.11-.18.14-.02,0-.04.05-.05.08-.03.03-.07.01-.1.01h-.13s-.04,0-.05-.02c0-.02.01-.04.03-.05,0,0,.01,0,.01-.01-.04-.01-.08,0-.11-.02.03-.01.07-.03.1-.05h.07s.06,0,.09-.02c.04-.03.08-.05.1-.1.02-.04.07-.02.11-.02.07,0,.06,0,.05-.05,0-.02-.02-.06.01-.07.03-.01.06,0,.08.02,0-.04,0-.09-.03-.13.01-.01.04-.01.03-.05.02-.02.05-.01.08,0,0,0,.02,0,.03,0,.02,0,.06.02.08,0,.02-.02-.02-.04-.01-.06,0,0,0-.03,0-.03-.04-.02-.07-.04-.03-.1.02-.03.02-.07.06-.1.05-.04.1-.08.1-.15,0,0,0-.02,0-.02.06.02.07-.05.12-.06,0,0,.02,0,.02-.02s-.01-.01-.03-.01c-.04,0-.06-.05-.04-.08.04-.07.05-.13.05-.21v-.04s0-.03.02-.03.01.02.01.03v.17s0,.07.06.04h0Z"/>
            <path class="cls-137" d="M152.89,282.07h.12s.04,0,.04.02-.02.02-.03.02c0,0-.02,0-.03,0,0,0-.02.01-.02.03s.02,0,.03,0h.24s.07,0,.09,0c-.02.02-.05.01-.08.01h-.48s-.03-.01-.05,0v.02s-.02.01-.02.03c0,.02,0,.04,0,.06,0-.02,0-.03,0-.05.04.04.01.08.01.11,0,0,0,0,0,.01v.04s-.09-.05-.14-.02c-.12.07-.25.09-.38.09-.06,0-.13,0-.19,0-.03,0-.05,0-.06.03v-.21c.08-.02.15,0,.23-.01.07,0,.15,0,.17-.1,0-.03.03-.02.05,0,.08.03.17.02.25,0,0,0,.02,0,.03-.02.02-.07.08-.06.13-.06.04,0,.06-.02.09-.04v.02Z"/>
            <path class="cls-137" d="M153.48,281.65s.05.05.05.09c0,.01,0,.02,0,.03.02.01.02.03,0,.04-.02.01-.03,0-.03-.03,0-.01,0-.02-.03-.02-.04,0-.05,0-.05.05,0,.03.04.06.01.09s-.06-.01-.08-.01c-.05,0-.11-.02-.11.07,0,0,0,0,0,0-.07,0-.11.11-.19.06-.02,0-.04,0-.05-.01.03-.01.05-.04.07-.06.03-.03.08-.08.13-.08.03,0,.05-.01.05-.05,0-.03,0-.05.04-.05.04,0,.06-.02.08-.05.02-.04.06-.08.11-.08h0Z"/>
            <path class="cls-115" d="M154.1,281.06h-.02c-.01-.09,0-.19,0-.28,0-.1,0-.2,0-.3,0-.02,0-.05,0-.07v-.21s.02.03.02.05c0,.05-.01.11,0,.15h0s0,.1,0,.15v.43s0,.05,0,.07h0Z"/>
            <path class="cls-137" d="M153.69,281.55s.02.03.04.04c0,0,.01.02,0,.04,0,.01-.02,0-.04,0-.06,0-.11-.04-.17-.03.02-.08.03-.08.1-.06.03,0,.05,0,.07,0Z"/>
            <path class="cls-126" d="M154.08,280.42s.01.1,0,.15c-.02.16,0,.33,0,.5-.02-.06,0-.11,0-.17v-.08s0-.01,0-.02c0-.12,0-.24,0-.37Z"/>
            <path class="cls-137" d="M154.07,280.78v.02s0,.04-.02.06c0-.03-.01-.06.02-.08Z"/>
            <path class="cls-22" d="M155.29,282.64s0,.05,0,.07c-.01,0,0,.04-.02.03,0-.03,0-.04-.04-.02-.04.02-.04.07-.07.1-.04.05-.08.08-.12.13-.08.08-.15.15-.22.22-.06.05-.12.11-.17.17-.06.07-.15.1-.2.17,0,0,0,.02,0,.03-.07,0-.13.03-.18.09-.04.05-.09.1-.16.1-.02,0-.03.02-.05.03-.04.03-.08.07-.14.06-.02,0-.03.02-.04.03-.04.03-.08.06-.14.07-.04,0-.07.04-.11.06-.11.04-.19.15-.33.12-.01,0-.03,0-.04,0-.06.07-.15.08-.23.08,0,0-.03,0-.03,0-.03.05-.08.04-.13.04-.03,0-.06,0-.08.03,0,.01-.02.01-.04.01h0c-.11,0-.21.02-.31.04-.15.02-.3,0-.45,0-.02,0-.02-.01-.03-.03-.01-.04,0-.08,0-.11v-.26s0-.04,0-.06v-.41s.03.04.03.07v.35c0,.07,0,.07.07.07h.37c.1,0,.2.03.29.08,0,0,.02.01.04,0,0-.01-.01-.01-.02-.01-.02,0-.04,0-.04-.03,0-.02.01-.04.04-.04,0,0,.01,0,.02,0-.02-.01-.06,0-.05-.05,0-.03.04-.03.07-.04.1,0,.19.01.26.1.02-.02.02-.04.02-.07s0-.05,0-.07c0-.03.03-.05.07-.06.03,0,.05.02.06.05.03.07.03.07.11.05,0-.02-.02-.02-.03-.03-.02-.02-.03-.04-.03-.07,0-.03.03-.05.06-.05.07,0,.13-.02.18.04.02.03.07.03.09.01.03-.02.03-.06.02-.09,0-.02-.01-.02-.03-.03h-.68s-.07,0-.07-.02.05-.02.08-.02h.76s.06,0,.08.01c0,.02,0,.05.03.06.03,0,.04-.02.05-.04.02-.03.06-.03.08-.04.04,0,.08-.01.1-.07,0-.02.02-.02.04-.03.01,0,.02,0,.02-.03,0,0,0-.01-.01-.01-.01,0-.03,0-.03.02-.01.05-.05.06-.09.06-.02,0-.03,0-.03-.02-.02-.05,0-.12.07-.13.05-.01.1-.05.16-.04.03,0,.07,0,.08.04,0,.01.01.02.03.02,0,0,.02,0,.02-.02,0-.01,0-.02-.02-.03-.01,0-.03,0-.03-.02-.02-.06-.07-.06-.11-.06h-.22s-.03,0-.04-.02c0-.02.03-.02.05-.02.12,0,.23,0,.36,0,.03,0,.06.01.06.05,0,.01,0,.03.03.03.02,0,.02-.01.03-.02,0-.04.03-.06.07-.05h-.03s0,0,0,0c.02-.03.05-.01.07-.02,0,0,0,0,0,0,0,0,0,0,0,0h0v-.02h0s0,0,0,0c0,0,0,0,0,0,.01-.05,0-.09,0-.14,0,0,0,0,0,0h0v-.02s.05-.05.08-.07c.04-.01.07-.04.09-.08.02-.03.04-.05.07-.05.04,0,.06-.02.05-.06,0-.03,0-.06.03-.08.01-.01.03-.03.03-.05,0-.03.03-.05.07-.03.02,0,.03,0,.03-.02s0-.04,0-.06c0-.03.02-.05.06-.06.06-.02.09-.07.12-.13.02-.06.02-.13.1-.15.04,0,.07.02.09.04.01,0,.02.02,0,.04h0s-.05,0-.04.03c0,.02.02,0,.02,0,0,0,0-.01.01-.02h0s0,.08.01.11c0,0,0,0,.02,0v.27h0s0,.01,0,.02h0Z"/>
            <path class="cls-148" d="M153.7,283.63s-.03,0-.04,0h-.84s-.01,0-.02,0h.75s.06.01.05.06c0,.03,0,.06-.01.08,0,0,0,.01-.02.02-.04.01-.11,0-.14-.04,0-.01-.02-.02-.04-.02h-.11s-.05.02-.05.05,0,.05.04.06c.02,0,.04,0,.04.03s-.03.02-.05.02h-.03s-.08,0-.08-.06c0-.02,0-.06-.05-.06-.04,0-.05.02-.05.06,0,.03,0,.05,0,.08v.03s0,.04-.03.04c-.02,0-.03-.01-.04-.03,0-.03-.03-.03-.05-.05-.06-.03-.11-.04-.17-.03-.01,0-.03,0-.04,0,0,0-.02,0-.01.02,0,0,0,.01.02.01h.03s.03,0,.03.02c0,.01,0,.02-.02.03-.02,0-.07-.01-.07.03,0,.04.05.01.07.02,0,0,.02,0,.02.01,0,.01,0,.02,0,.03-.02.02-.06.02-.07,0-.03-.05-.08-.04-.12-.06-.18-.07-.37-.02-.55-.03-.06,0-.07-.02-.07-.07v-.38s0-.04,0-.06v-.26h0v.15s0,.05.04.04h.1s.07-.01.07-.06c0-.01,0-.03.02-.03s.02,0,.02.02c0,.04.03.06.07.06s.06-.02.07-.06c.01-.06.08-.04.11-.05.06-.01.12,0,.18,0,.03,0,.04.01.04.04v.04s.03.02.02.04c0,0,.01-.02.02-.03h0s0,.06-.03.07c0,0,0,0-.01,0h-.02s-.05,0-.05.02.03.02.05.02c.05,0,.05.06.08.08,0,0,0,0,.01,0l.06.03c.29,0,.58,0,.86,0h.11s.02.02,0,.03-.05.02-.08,0h0Z"/>
            <path class="cls-14" d="M155.17,282.16s-.04,0-.04.01c0,.05-.05.08-.05.13,0,.03-.08.13-.1.13-.06,0-.07.03-.08.08v.05s-.01.05-.04.02-.05-.02-.05.02c0,.02-.01.03-.03.05-.03.02-.05.05-.03.09.01.03,0,.06-.03.06-.06,0-.09.02-.11.07-.03.06-.11.06-.16.11h0s-.04,0-.06,0h-1.53s-.05.02-.06-.01h1.14s-.55,0-.55,0h0s1.05,0,1.05,0h0s-.8,0-.8,0c.06-.02.11-.03.17-.01.05.01.1,0,.16,0,.02,0,.02-.02.03-.04,0-.02-.01-.03-.04-.03h-.28s-.05,0-.08-.02c.02-.02.05-.01.08-.01h.61s.05,0,.08,0c.05,0,.07-.02.07-.08,0-.03,0-.07.01-.1h0s-.01-.02-.02-.02h-.89s0,0-.01-.02c0,0,0-.01,0-.02.02,0,.04,0,.06,0,.26,0,.52,0,.78,0h-.15s-.04,0-.06-.01c-.02-.08,0-.1.08-.1h.18s.04.02.06-.01c.01-.04.02-.04.04-.02h0c.04-.11.01-.21,0-.31,0-.08,0-.08.06-.12.02,0,.02-.03.02-.05,0-.02-.02-.03-.02-.05-.01-.04,0-.08.05-.08.03,0,.05,0,.08-.01.02,0,.04-.02.06-.03.02,0,.03,0,.05.02.06.07.12.13.18.19.04.06.1.1.15.14.02.02.04.04.02.08h0Z"/>
            <path class="cls-134" d="M154.43,283.17h-1.64s-.06,0-.06-.06q0-.13.13-.13h1.57c.03.06.03.12,0,.18h0Z"/>
            <path class="cls-148" d="M153.7,283.63s.07,0,.09-.02c0,0,0,0,0-.01,0,0,0-.02,0-.03,0-.07.02-.14-.01-.2-.05,0-.1,0-.15,0-.26,0-.53,0-.79,0-.03,0-.06,0-.08-.01.02-.02.04,0,.06,0h.39s.06,0,.08-.04c.01-.03.05-.02.08-.03.02,0,.05,0,.08,0-.1-.02-.19-.02-.29-.03h.53s.08.01.12,0c.02-.02.05-.01.07-.01h.5s.05,0,.07.01c-.03.02-.06,0-.09,0-.06.01-.12,0-.17,0,.05,0,.11,0,.17,0h.08s-.04,0-.05,0c-.03,0-.04,0-.04.04s0,.05-.04.05c-.03,0-.05-.01-.05-.05,0-.02,0-.03-.03-.03-.14-.02-.27,0-.4,0h.28s.08,0,.08.05c0,.02,0,.03.03.03.03,0,.04.02.04.05,0,.02,0,.04-.03.04-.03,0-.06,0-.06-.04,0-.03-.02-.03-.05-.03-.07-.01-.13.03-.2.04-.03,0-.05.09-.03.12,0,.01.08,0,.09-.02,0-.01,0-.03.02-.05,0-.01.03-.02.05-.02.02,0,.02.03.02.05,0,.02,0,.04-.03.04-.03,0-.05,0-.05.04,0,.02-.02.04-.04.04-.03,0-.05,0-.08,0-.03,0-.06,0-.07.05,0,.03-.04.04-.07.03-.02-.01-.04-.03-.02-.07h-.01Z"/>
            <path class="cls-119" d="M154.43,282.61v.11c0,.06,0,.08-.07.08-.01,0-.03,0-.05,0h-1.58c-.03-.05,0-.11-.01-.16,0-.01,0-.02.02-.02h1.68Z"/>
            <path class="cls-132" d="M152.78,282.95s.04,0,.07,0h1.52s.05,0,.07,0h-1.71s.04-.02.06-.02h0Z"/>
            <path class="cls-60" d="M154.43,283.18h0s-.04.02-.07.02h-1.52s-.05,0-.07,0h-.02s1.67,0,1.67,0Z"/>
            <path class="cls-94" d="M154.43,283.21h-1.65s.03-.01.05-.01h1.55s.03,0,.05,0h0s0,0,0,0Z"/>
            <path class="cls-130" d="M154.43,283.2h-1.65c.55,0,1.1,0,1.65,0h0Z"/>
            <path class="cls-149" d="M152.76,282.79h1.61s-.04,0-.06,0h-1.49s-.04,0-.06,0Z"/>
            <path class="cls-104" d="M152.75,283.34c.17,0,.34,0,.52,0,.16,0,.31,0,.47,0,.02,0,.04,0,.06,0h0s-.06.02-.08.02h-.95s-.02,0-.02-.02h0s.01,0,.02,0h0Z"/>
            <path class="cls-149" d="M152.84,282.82s.05,0,.05.02c0,.02-.03.03-.06.03s-.05,0-.05-.02c0-.03.03-.02.06-.02Z"/>
            <path class="cls-124" d="M154.39,282.42s-.09,0-.14,0c-.1,0-.09-.01-.09.09-.02.02-.04,0-.07,0h-.51s-.05,0-.07,0c-.01,0-.02,0-.04,0h-.46s-.03,0-.05-.01c.04-.02.09,0,.12-.04,0,0,.04,0,.06.01.05.04.1.03.13-.03.01-.03.03-.04.06-.04.04,0,.09-.01.13,0,.07.03.13,0,.19,0,.02,0,.04,0,.05,0,.02-.02.05-.01.07-.01h.55s.05,0,.07.01h0Z"/>
            <path class="cls-36" d="M152.69,282.22s.02,0,.03-.01c0,0,.01,0,.02,0,0,0,0,.01,0,.02,0,.03,0,.07,0,.1s.01.05.05.05h1.51s.07,0,.1,0c0,0,.01,0,.02.01,0,0,0,.01,0,.02h-1.64s-.06,0-.07-.04h0c0-.06.02-.11-.02-.16h0Z"/>
            <path class="cls-29" d="M154.43,282.58h0c-.53,0-1.06,0-1.59,0-.02,0-.05,0-.07,0h0s.04-.02.06-.02h.61s.04,0,.06,0h.85s.04,0,.06,0h0Z"/>
            <path class="cls-138" d="M152.96,282.54h.55s.02,0,.04,0h.84s.03,0,.04,0c-.02.02-.04,0-.07,0h-.85s-.05.01-.07.01h-.6s-.05,0-.07-.01c.06-.02.12,0,.18,0h0Z"/>
            <path class="cls-28" d="M152.78,282.41h1.65s0,.02-.02,0h-1.57s-.04,0-.06,0h0Z"/>
            <path class="cls-2" d="M152.78,282.55h.74s-.03.02-.04.02h-.68s0,0,0,0h0Z"/>
            <path class="cls-29" d="M152.78,282.58s-.04.02-.06,0c.02,0,.04,0,.06-.01h0s0,.01,0,.02h0Z"/>
            <path class="cls-124" d="M154.41,282.42s.02,0,.02,0h0v-.02s0-.02.01-.02c0,0,0-.02,0-.03v-.08s-.01-.03-.02-.04c0,0,0,0,0-.01,0,0-.01,0-.02-.01h-.62s-.06,0-.08-.01c.06,0,.1-.04.15-.06h0c.04-.06.08-.07.14-.03h.01s.1-.07.11-.12c.01-.06.05-.09.09-.12,0,0,.02,0,.02-.02,0-.01-.02,0-.03,0-.02,0-.05.02-.05,0,0-.03-.01-.06.01-.09.03-.04.07-.09.08-.15h.09s.05.06.09.03c.06-.03.12,0,.18,0,.02,0,.02,0,.03.02-.02.04.01.04.03.06,0,.03.06,0,.07.05,0,.02,0,.04-.02.06-.02.03-.05.02-.08.02-.02,0-.04,0-.05.02s0,.05,0,.06c.02.02.02.04.02.06,0,.02,0,.04-.03.04-.07,0-.07.04-.06.08,0,.06,0,.11.02.17.02.07-.02.13-.04.2-.02-.01,0-.03-.01-.05-.02,0-.01.03-.01.05,0,.02,0,.05-.04.04-.03,0-.02-.03-.03-.05v-.02Z"/>
            <path class="cls-91" d="M154.64,281.61s-.01-.02-.02-.02c0,0,0-.01,0-.02.04-.01.09,0,.14,0,.15,0,.31,0,.46,0,.04,0,.07.02.08.06,0,.02,0,.04-.01.06-.11,0-.21.04-.32,0-.05-.02-.1,0-.15,0-.03,0-.06,0-.09,0-.02,0-.04-.03-.06-.03,0,0-.02-.01-.02-.03h0Z"/>
            <path class="cls-27" d="M155.28,281.63s-.05-.05-.09-.05c-.15,0-.31,0-.46,0-.04,0-.08,0-.12-.01,0-.02-.03-.03-.05-.05,0,0-.02,0-.02,0,.02-.03.05-.02.08-.02.07,0,.14.02.21.01.02,0,.05,0,.07,0,.01,0,.03.01.04,0,.1-.04.22.02.32-.03h.02s.02.02.02.03c0,.04.01.08,0,.11Z"/>
            <path class="cls-139" d="M155.27,281.49c-.07.02-.13.07-.2.03-.03-.01-.06-.01-.09,0-.02.02-.05.02-.07,0-.08-.04-.17,0-.25-.03-.04,0-.08-.02-.13,0h0s-.07-.04-.04-.08h.02s.09.05.15.04c.06,0,.12,0,.18,0,.13.01.25,0,.38,0,.03,0,.07-.01.06.04h0Z"/>
            <path class="cls-22" d="M154.48,281.42s.04.04.05.07c-.03,0-.06-.01-.08-.02-.08-.01-.15-.05-.16-.13,0-.02-.02-.03-.04-.05-.02-.03-.05-.06-.04-.11.04.01.06.05.1.07.01,0,.03.02.05.03.04.05.1.08.13.14h0Z"/>
            <path class="cls-82" d="M154.1,281.06c0-.22,0-.43,0-.64.02.01,0,.04,0,.05v.53s.01.05-.02.06h0Z"/>
            <path class="cls-124" d="M154.3,281.26s-.06-.05-.09-.08c-.04-.03-.04-.07-.05-.1.03.08.09.13.16.17,0,0-.02,0-.02.01h0Z"/>
            <path class="cls-89" d="M154.25,281.51h-.02c-.05,0-.06-.02-.04-.07.04-.07,0,0,0-.01.03.02.03.06.06.08h0Z"/>
            <path class="cls-89" d="M154.43,281.58s-.06.02-.09-.03c0-.02.01-.02.03,0,.02.02.04.03.06.05h0Z"/>
            <path class="cls-91" d="M154.56,281.51s.04.02.05.05c-.02,0-.03-.03-.05-.05Z"/>
            <path class="cls-55" d="M155.45,279.21h0s0,.03,0,.05v.75s0,.03,0,.04c-.03,0-.04,0-.05.04,0,.06-.02.12,0,.18,0,.04,0,.11-.05.15-.03.02,0,.07-.04.1-.03.02-.04.07-.08.08,0,0-.01.01-.01.02,0,.06-.04.08-.07.12-.04.05-.08.11-.13.15-.02.01-.03.03-.06,0-.02-.03-.05-.05-.08-.08t-.03,0c-.05-.04-.1-.09-.14-.14-.02-.05-.01-.07.05-.07.03,0,.05,0,.05-.05s.02-.07.05-.07c.04,0,.04-.03.04-.06v-.04c0-.09.02-.11.11-.07-.02-.06-.02-.11.05-.13.02,0,.01-.04,0-.06-.01-.04-.03-.08.01-.11,0,0,0-.03,0-.04,0,0,0-.03,0-.03.07-.02.07-.09.08-.14,0-.02.02-.04.04-.05.05-.01.07-.05.04-.09-.02-.04-.03-.08-.02-.12,0-.04,0-.07.06-.07.04,0,.06-.03.06-.08v-.13c0-.05.01-.08.07-.08h.04,0Z"/>
            <path class="cls-152" d="M155.61,280.42h.02s0,.06.06.07c.07.01.08.05.05.11-.01.02,0,.03,0,.03.05.01.1.03.15.05.01,0,.02,0,.02-.01,0-.04.03-.04.05-.02.04.02,0,.04-.01.05-.06.05-.07.14-.13.18,0,.14-.14.19-.19.29h.17c-.06.02-.12,0-.18.02h.16s-.16,0-.16,0h0c.06.01.11.01.16.01.02,0,.04,0,.05.01h-.54c-.07,0-.11-.02-.14-.07-.02-.04-.05-.07-.09-.09h0s0-.03-.01-.04c.04,0,.07,0,.09.03,0,.02.03,0,.05.01.08.03.14,0,.18-.06.01-.02.04-.03.05-.05.02-.03.04-.06-.01-.08-.02,0-.03-.03-.02-.06,0-.03.02-.04.05-.04h.04s.11.03.13-.02c.02-.04.05-.08.05-.12,0,0,0-.02.01-.03,0-.01.04-.02.02-.04-.01-.01-.04-.01-.06,0-.02.02-.04.04-.06,0-.02-.03,0-.05.01-.07.03-.02.02-.04,0-.06-.02-.03,0-.04.02-.04h0Z"/>
            <path class="cls-54" d="M154.3,281.26s.01,0,.02-.01c.05.02.1.02.15.02h.81s-.06.03-.08.03h-.82s-.03,0-.04-.02c-.02,0-.03-.02-.05-.02h0Z"/>
            <path class="cls-150" d="M155.82,281.23s-.04,0-.05,0h-.51s.02,0,.03,0h.53Z"/>
            <path class="cls-97" d="M155.07,281.06s.03.02.06,0c0,0,.05,0,.03.03-.02.02,0,.04,0,.06-.03-.02-.07-.06-.09-.09h0Z"/>
            <path class="cls-100" d="M154.61,280.57v.02s-.07-.06-.09-.09h.02s.05.04.07.07h0Z"/>
            <path class="cls-55" d="M154.61,280.57s-.05-.04-.07-.07h.02s.03.03.05.05v.02Z"/>
            <path class="cls-100" d="M155.07,279.19h0s.05,0,.07,0h0s-.07,0-.07,0Z"/>
            <path class="cls-100" d="M154.61,280.55s-.03-.03-.05-.05c.03,0,.04.02.05.05Z"/>
            <path class="cls-16" d="M156.79,278.61v.64s0,.04,0,.06v-.82h0v.11Z"/>
            <path class="cls-142" d="M156.74,278.86c0,.07.03.14-.02.2-.04-.07,0-.14.02-.2Z"/>
            <path class="cls-142" d="M156.72,279.11s.04.05.03.08c0,0,0,.02,0,.03-.01,0-.02,0-.03-.02-.01-.03,0-.06,0-.09h0Z"/>
            <path class="cls-143" d="M156.31,279.88s.02-.01.03,0c0,0,0,.03-.01.03,0,0-.01-.02-.02-.02h0Z"/>
            <path class="cls-80" d="M156.25,279.84h-.05s.02-.03,0-.05c0-.01,0-.02,0-.02.02.01.04.03.06.06,0,.02,0,.02-.02,0h0Z"/>
            <path class="cls-143" d="M156.27,279.83s-.04-.03-.06-.06c.03,0,.05.02.06.06Z"/>
            <path class="cls-81" d="M155.26,282.74s.01-.02.02-.03c0,.03.01.07,0,.09,0-.02-.01-.04-.01-.06Z"/>
            <path class="cls-81" d="M155.27,282.99s0-.05,0-.08v.08h0Z"/>
            <path class="cls-81" d="M154.43,283.54v-.03s.02,0,.02.02c0,.01,0,.01-.02.01Z"/>
            <path class="cls-63" d="M155.3,282.63c0-.09-.02-.19,0-.28h.31s.06,0,.05.05v.19s0,.05-.05.05h-.32c.01-.06,0-.12,0-.17,0,0-.01,0,0,0h0c0,.05,0,.1,0,.15h0Z"/>
            <path class="cls-131" d="M155.29,281.88h.32s.05.01.05.05v.16s0,.06-.06.06h-.31s-.02-.03-.03-.06v-.12s0-.07.03-.09Z"/>
            <path class="cls-45" d="M155.28,281.63v-.11s0-.05-.02-.07c0-.02,0-.04.03-.04h.32s.05.01.05.05c0,.08,0,.15,0,.22h-.36s-.02,0-.02,0c0-.01.01-.03,0-.04h0Z"/>
            <path class="cls-43" d="M155.27,281.67h.02c.11,0,.22,0,.33,0h.03c-.1,0-.21,0-.31,0-.04,0-.06,0-.06.06v.15s-.03-.02-.03-.04c0-.03-.02-.05-.05-.05-.04,0-.07-.02-.11-.02s-.08,0-.11.03c-.02.02-.06.02-.08.02,0,0-.02,0-.02-.01,0-.06-.04-.05-.08-.06,0,0-.02-.01-.03-.02-.02,0-.02,0-.03-.02,0-.02-.03-.03-.03-.05.07,0,.14,0,.2,0h.06c.06.03.12.03.18.01.05,0,.09,0,.13,0h0Z"/>
            <path class="cls-136" d="M154.8,281.76h.02c.07-.02.08-.01.07.06.04-.01.08-.02.12-.05.03-.03.1-.02.15,0,.04.01.11.08.13.12h0s0,.06,0,.09c-.04-.01-.08-.02-.11-.03-.05,0-.09-.04-.14-.07,0,.03.03.05,0,.08-.02.01-.04,0-.05-.01-.07-.06-.12-.12-.18-.18h0Z"/>
            <path class="cls-118" d="M154.34,281.29h.04s.08.03.12.05c.1.04.21.03.31.03s.2,0,.3,0c.03,0,.06,0,.08-.01q.06-.03.09.03h0c-.03.07-.08.08-.14.08-.1,0-.19-.02-.29,0-.05,0-.1-.03-.16-.02-.05,0-.09,0-.14,0-.02,0-.05,0-.07-.01h0c-.06-.04-.1-.08-.14-.14h0Z"/>
            <path class="cls-68" d="M154.99,281.94s.03.02.05,0c.01-.02,0-.02-.02-.03s-.02-.02,0-.04c.01,0,.03-.01.04,0,.06.05.12.07.2.07.02,0,.02.02.04.03,0,.06,0,.12,0,.18-.01.06,0,.12,0,.18-.03-.03,0-.08-.02-.11h0s-.05-.07-.09-.07c0-.07-.05-.09-.09-.12s-.07-.06-.09-.1h0Z"/>
            <path class="cls-54" d="M155.28,281.38s-.06-.06-.09-.01c0,0-.02.01-.03,0-.1,0-.19,0-.29,0-.09,0-.18,0-.28,0-.03,0-.06,0-.08-.02-.02-.01-.04-.04-.08,0-.01,0-.03,0,0-.02-.01,0-.04,0-.05-.03h0s.08,0,.12,0c.05.03.1.02.15.02.09,0,.19,0,.28.02h.05c.05-.02.1-.01.15-.01.02,0,.05.01.05-.02.04,0,.08,0,.11,0,0,.03-.01.05,0,.08Z"/>
            <path class="cls-65" d="M154.49,281.42s.06,0,.1,0h.1s.09-.01.13.02c0,0,.02,0,.03,0,.11-.03.22.01.32,0,.05,0,.08-.03.11-.06,0,0,0,.01,0,.02-.02,0-.02.03-.01.05s0,.04,0,.06c0,0,0-.01,0-.02,0-.03-.03-.02-.05-.02-.1,0-.19,0-.29.02-.04,0-.07,0-.11,0h-.22c-.05,0-.09-.01-.11-.06h0Z"/>
            <path class="cls-18" d="M155.28,281.3h-.12s-.04.02-.07.02h-.53s-.05,0-.08-.02h-.13s.04,0,.07,0h.84s0,0,0,0Z"/>
            <path class="cls-30" d="M155.84,282.81h-.53c.05-.01.1-.01.15-.01h.31s.05,0,.05-.05c0-.1,0-.2,0-.3v.37h0Z"/>
            <path class="cls-10" d="M155.61,282.18h-.25c.08,0,.16,0,.25,0h0Z"/>
            <path class="cls-76" d="M155.89,281.88s0,.04,0,.06v.35s0,.04,0,.06v-1.02s.01,0,.01,0c0,.06,0,.11,0,.17v.09c0,.09.02.18,0,.28h0Z"/>
            <path class="cls-70" d="M156.06,282.01s0,0,0,0c0,0,0,.01,0,.02,0,0,0,0-.01,0,0,0,0-.01,0-.02Z"/>
            <path class="cls-114" d="M156.58,280.78c-.03.06,0,.12-.02.17v-.22s-.04.04-.07.02c-.08-.04-.15-.03-.23,0-.04,0-.08.02-.13,0-.06-.05-.11-.11-.17-.16.02-.04.07-.03.09-.02.1.02.21.01.31.02h.1s.08,0,.11.01c.03.03,0,.07.02.1,0,.03,0,.06,0,.08h0s0,0,0,0Z"/>
            <path class="cls-44" d="M156.57,280.6v.03s-.03-.03-.06-.03h-.38c-.05,0-.1-.03-.16-.02,0,0-.01,0-.02,0,0,0-.02-.01-.02-.02-.02-.04-.07-.07-.09-.1.03-.02.07,0,.1,0,.15,0,.3.02.45,0,.04,0,.08.02.12.02.02,0,.05,0,.07,0,.02,0,0,.02.01.03,0,.04-.02.06-.03.09h0Z"/>
            <path class="cls-71" d="M155.88,281.51c0-.06.01-.12,0-.18,0-.03,0-.07.01-.1,0,.09.02.19,0,.28h0Z"/>
            <path class="cls-116" d="M156.61,280.98h.25s.04,0,.04.04v.68s0,.04-.04.04h-.25v-.76h0Z"/>
            <path class="cls-73" d="M156.57,280.6s-.04-.04,0-.05c.02,0,.01-.02.01-.03,0,0,0,0,0,0v.37s-.02-.07-.02-.1c.01-.02,0-.06,0-.08-.02-.03,0-.08-.02-.1h0Z"/>
            <path class="cls-5" d="M156.6,280.52h0v-.03s0-.08,0-.11c0-.02,0-.04,0-.06,0-.01,0-.02,0-.03.02.07,0,.13.01.2v.05h0Z"/>
            <path class="cls-116" d="M157.08,282.15s.03-.05.02-.08c0-.02,0-.04,0-.06v-1.19c0-.08,0-.15-.03-.22v-.02s.08-.06.13-.08c.03,0,.06-.02.06-.07,0-.02.02-.04.06-.02.07.03.08.02.09-.05,0-.01,0-.02.02-.03.07-.01.05-.07.03-.1-.02-.05-.02-.08.02-.11,0,0,.02-.02.02-.03.03.04.07.08.11.1.02.01.03.02.04.04.03.05.08.09.13.14.01.01.03.02.04.04-.02.03-.03.06-.04.09-.02.04-.04.09-.08.11,0,0,0,0-.01,0,0,.07-.09.09-.11.15,0,0,0,0,0,.01-.07.02-.08.09-.12.14-.06.08-.12.16-.21.21-.02,0-.03.03-.06.02t-.01-.06c0,.08.03.16,0,.23v.4s0,.04,0,.06c-.02-.02,0-.04,0-.06v-.89s0-.08,0-.13c-.01.14,0,.28,0,.42v.76s0,.05,0,.07v.1s0,.06-.04.07h-.02Z"/>
            <path class="cls-116" d="M157.14,280.32s-.04-.01-.04-.05.01-.05.05-.05c.04,0,.05.01.05.05s-.02.05-.05.04Z"/>
            <path class="cls-116" d="M157.37,280.27s0,.04-.02.05c-.02,0-.03-.01-.03-.03,0-.02,0-.05.03-.05s0,.02.01.03Z"/>
            <path class="cls-116" d="M157.04,280.53s.03,0,.05-.01c-.01.03-.03.03-.05.01h0Z"/>
            <path class="cls-116" d="M157.04,280.53h-.02s0-.01,0-.02c.02,0,.03,0,.03.02h0Z"/>
            <path class="cls-19" d="M155.45,280.04v-.83h0v.76s0,.05,0,.07Z"/>
            <path class="cls-38" d="M156.59,280.37v.11s-.02.04-.07.03c-.06-.01-.11-.03-.18-.02-.14.01-.28-.01-.42,0-.03,0-.06-.01-.08-.02h0s-.02-.02-.03-.03c-.03-.03-.07-.06-.09-.09.1.04.22.04.32.06.15.03.3,0,.46.02.04,0,.08,0,.09-.05h0Z"/>
            <path class="cls-86" d="M156.57,280.31s-.09,0-.14.03c-.09.04-.18.01-.27,0-.01,0-.03,0-.05,0-.13,0-.26-.02-.39,0,.02-.02.05,0,.07-.02.01,0,.03,0,.04,0h.68s.05-.01.06.03h0Z"/>
            <path class="cls-49" d="M156.57,280.31s-.04-.02-.07-.02h-.77c.29,0,.57,0,.86,0,0,.01,0,.03,0,.03h-.01Z"/>
            <path class="cls-44" d="M155.81,280.42s.03.02.03.03c-.02,0-.03-.01-.03-.03Z"/>
            <path class="cls-33" d="M157.2,279.77s.01,0,.02,0c0,0,.01.02.02.03-.03,0-.04-.02-.05-.05h0Z"/>
            <path class="cls-151" d="M157.08,279.58h.82c-.09.01-.18.05-.28.04-.12,0-.25,0-.37,0-.06,0-.11-.03-.17-.03h0Z"/>
            <path class="cls-106" d="M157.93,279.68s0,.04-.05.05c-.15.02-.31,0-.46,0-.09,0-.18,0-.27-.01-.01,0-.03-.02-.03-.03.06-.02.11.01.16,0,.03,0,.07,0,.1,0,.12,0,.24,0,.36.01.03,0,.07,0,.09-.03.02-.02.06,0,.09,0h0Z"/>
            <path class="cls-59" d="M157.15,281.33v-.27h0s-.01.07.01.08c.03.01.04-.03.06-.04.03-.01.05-.05.08-.05,0,0,.01,0,.01,0,.01-.09.12-.13.14-.22,0,0,0-.02.01-.02.05,0,.07-.06.1-.09s.08-.05.07-.1c0,0,.01-.01.02-.02.07-.03.09-.09.1-.15,0-.03.04-.02.05-.04.06,0,.06.08.1.1,0,.12,0,.24,0,.36,0,.07-.04.12-.04.18,0,.02-.03,0-.04.02,0,.06-.07.08-.1.12-.02.02-.05.05-.07.08-.04.04-.07.08-.11.11-.02.02,0,.07,0,.1,0,.04-.01.05-.05.05h-.1c-.01.07-.11.08-.13.15,0,.02-.01.03-.03.03-.04,0-.05.03-.06.06-.02.11,0,.22,0,.33v.07s0-.05,0-.08v-.69s0-.04,0-.06h0Z"/>
            <path class="cls-59" d="M157.12,281.97c0-.23,0-.46,0-.69,0-.12,0-.23,0-.35,0-.08,0-.15.02-.23v1.23s0,.04-.02.04Z"/>
            <path class="cls-96" d="M157.07,280.6s.04.06.04.09v1.37h0s0-.03,0-.06v-1.22c0-.05,0-.11-.03-.15,0,0,0-.02,0-.03h0Z"/>
            <path class="cls-37" d="M153.7,282.17h.68s.04,0,.06,0c-.02.02-.05.01-.07.01h-1.51s-.05,0-.07-.01c.02-.02.04,0,.06,0h.86,0Z"/>
            <path class="cls-137" d="M153.34,282.01s-.02,0-.02-.02c0-.01,0-.02.02-.02,0,0,.01,0,.01.02,0,.01,0,.02-.02.02Z"/>
            <path class="cls-53" d="M152.78,282.18h1.65v.02s-.01,0-.02,0h-1.68s0-.01,0-.02c.01,0,.03,0,.05,0h.02,0Z"/>
            <path class="cls-149" d="M152.69,282.22s.03,0,.03.02c0,.04.01.08,0,.13-.03,0,0-.02,0-.03,0-.02,0-.05,0-.08v.07h0v-.1h0Z"/>
            <path class="cls-37" d="M152.76,282.18h-.05s.03,0,.05,0Z"/>
            <path class="cls-14" d="M154.84,282.83c0,.05-.08.1-.11.08,0,0-.01-.01,0-.02.02-.03.05-.07.08-.08.02-.01.05,0,.05.02Z"/>
            <path class="cls-14" d="M155.26,282.22h0s0,.05-.02.06h-.02s-.01-.03,0-.05c0-.04.04,0,.06-.01h0Z"/>
            <path class="cls-14" d="M154.46,282.99c.01.05.02.1.02.16,0,.01,0,.02-.02.03-.02-.06-.02-.12,0-.18h0Z"/>
            <path class="cls-81" d="M154.34,283.23h-.17c.06,0,.11,0,.17,0h0Z"/>
            <path class="cls-14" d="M154.5,283v.16h0v-.16h0Z"/>
            <path class="cls-81" d="M154.46,282.99v.18h0c0-.06,0-.12,0-.18h0Z"/>
            <path class="cls-14" d="M154.45,282.99v.18h-.01v-.18h.01Z"/>
            <path class="cls-14" d="M154.52,283.01v.15h0v-.15h0Z"/>
            <path class="cls-7" d="M153.78,283.57s0,.01,0,.02c-.04.01-.08,0-.11,0h-.86s-.03,0-.04,0c0-.02-.04,0-.05-.02.02-.02.05-.01.08-.01h.94s.01,0,.02,0,0,0,0,.01h0Z"/>
            <path class="cls-89" d="M152.72,283.35s0,0,0,0c.03.06.01.11.01.17,0,0,0,.01,0,.02,0,0,0,0,0,0,0,0-.02,0-.02-.01-.02-.04-.05-.06-.1-.06-.01,0-.03-.01-.02-.03,0-.02.01-.03.03-.03h.07s0,0,0,0c0,0,0,0,0,0,.01-.02.05-.03.03-.07h0Z"/>
            <path class="cls-1" d="M152.78,283.59h1.01c-.31,0-.63,0-.94,0-.02,0-.05,0-.07,0Z"/>
            <path class="cls-15" d="M153.76,283.56s-.04,0-.07,0h-.96s.05-.03.07-.03h.88s.05,0,.07.02Z"/>
            <path class="cls-141" d="M152.78,282.58v-.02h.74s0,.01,0,.02h-.74Z"/>
            <path class="cls-34" d="M154.43,282.54h-.92s.04,0,.06,0h.8s.04,0,.05,0h0Z"/>
            <path class="cls-126" d="M153.52,282.58h0c.29,0,.57,0,.85,0,.02,0,.05,0,.07,0h-.92Z"/>
            <path class="cls-89" d="M154.74,281.71s.01.02.02.02c0,.02-.03.02-.05.03,0-.02,0-.04,0-.06,0,0,0,0,0,0h0Z"/>
            <path class="cls-104" d="M153.78,283.57h0c0-.08-.02-.15,0-.22h0c.03.07,0,.13.02.2,0,.01-.01.02-.03.02Z"/>
            <path class="cls-101" d="M152.78,282.76c-.06-.03-.03-.08-.04-.13.02.03,0,.06.02.08v-.05s.01-.04.04-.04h1.54s.06-.01.06.01c0,.04,0,.08,0,.11,0,.02-.03,0-.05,0h-1.58,0Z"/>
            <path class="cls-140" d="M152.78,282.76s.04,0,.07,0h1.5s.04,0,.06,0c-.01,0-.03,0-.05,0h-1.6s-.02,0-.01-.01c0,0,.02,0,.02,0h0Z"/>
            <path class="cls-134" d="M152.73,283.54v-.18s0,0,.01,0h.98q.06,0,.06.06v.12s0,0-.01,0c0-.01,0-.03,0-.05,0,.02,0,.05-.03.05h-1Z"/>
            <path class="cls-148" d="M153.78,283.54c0-.06.02-.13,0-.17-.03-.04-.11-.01-.16-.01h-.86,1.04c0,.07.01.14,0,.21h0s0,0,0,0h0Z"/>
            <path class="cls-41" d="M154.42,282.4h-1.62c-.05,0-.08-.01-.07-.07v-.12s0,0,.02,0c.01,0,.03,0,.05,0h1.53c.09,0,.1,0,.1.1,0,.02,0,.05-.01.07h0Z"/>
            <path class="cls-84" d="M154.42,282.4v-.11s-.01-.05-.05-.05h-1.52s-.05,0-.07,0c.02-.02.06-.01.09-.01h1.47s.07-.02.1.01c.01.06.02.12,0,.18h-.02Z"/>
            <path class="cls-13" d="M154.43,282.22s-.05.02-.08,0c-.01,0-.03,0-.05,0h-1.57s.03-.02.05-.02h1.65s0,0,0,0h0Z"/>
            <path class="cls-89" d="M154.2,282.16h-.08s-.05,0-.05-.03c0-.03,0-.06.04-.06.03,0,.05-.02.05-.05s0-.05.04-.05.05-.02.05-.05c0-.04.02-.04.05-.04h.08s.05,0,.05-.04c0-.03-.01-.05-.05-.06h-.02s-.06,0-.05-.02c0-.02,0-.07.05-.07.02,0,.05,0,.07-.02.03,0,.06-.01.08,0s.03.05.01.08c0,.02-.01.04-.01.06,0,.04-.01.06-.05.05-.03,0-.04.01-.04.04v.06s0,.08-.07.08c-.03,0-.03.02-.03.04,0,.05-.02.06-.06.05h-.08,0Z"/>
            <path class="cls-102" d="M154.34,281.66s-.05.09-.07.09-.03-.02-.02-.03c.01-.03,0-.09.05-.1.02,0,.04.01.04.04Z"/>
            <path class="cls-14" d="M154.74,281.71h0s-.02-.01-.04-.01c-.03,0-.03,0-.02-.03,0,0-.02-.02,0-.03.02,0,.04.01.05.03,0,.01.04.02.03.05h0Z"/>
            <path class="cls-36" d="M154.43,282.22h0s.02,0,.02.02v.02s0,.08-.01.12c0,0,0,.02-.01.02v-.18h0Z"/>
            <path class="cls-89" d="M154.66,281.63s.02.02,0,.03c-.02,0-.05,0-.06-.03,0-.01,0-.03.02-.03,0,0,.01.01.02.02h0Z"/>
            <path class="cls-14" d="M154.51,282.21v.11s-.02-.08-.01-.12h.01Z"/>
            <path class="cls-14" d="M154.45,282.38s-.01-.08,0-.13c.01.03,0,.06,0,.09,0,.02,0,.03-.02.03h0Z"/>
            <path class="cls-89" d="M154.47,282.34s0-.06,0-.09h0s0,.06,0,.09Z"/>
            <path class="cls-14" d="M154.49,282.25v.08s-.02-.05,0-.08Z"/>
            <path class="cls-97" d="M155,280.8s0,.02-.02.02-.02,0-.02-.02,0,0,.01,0c0,0,.02,0,.02,0h0Z"/>
            <path class="cls-25" d="M155.34,282.62h.3s-.3,0-.3,0h0Z"/>
            <path class="cls-25" d="M155.3,282.63v-.18c0,.06.03.12,0,.18h0Z"/>
            <path class="cls-105" d="M155.37,281.9h.26s-.27,0-.27,0h0s0,0,0,0Z"/>
            <path class="cls-122" d="M155.62,281.68c-.11,0-.22,0-.33,0,0,0,0-.03,0-.02.1.03.2,0,.29.01,0,0,.02,0,.03,0h0Z"/>
            <path class="cls-98" d="M154.5,281.3h.67s0,.03-.03.04c-.06,0-.12,0-.18.02-.03.02-.08,0-.11,0-.09-.02-.18,0-.26,0-.03,0-.06,0-.08-.04Z"/>
            <path class="cls-50" d="M156.59,280.7s0,.06,0,.08c0-.03,0-.06,0-.08Z"/>
            <path class="cls-77" d="M156.85,281.51v.17h0v-.58s0-.05-.05-.05c-.05,0-.09,0-.14,0h.2c.01.08,0,.16,0,.25,0,.08,0,.15,0,.22h0Z"/>
            <path class="cls-32" d="M156.89,281.68v-.61h0v.61h0Z"/>
            <path class="cls-32" d="M156.85,281.51v-.47s.02-.02.03,0c.01.01-.01,0-.01.02v.4s0,.04,0,.06h0Z"/>
            <path class="cls-59" d="M157.12,280.67s0-.04,0-.06c.02.02.02.04,0,.06Z"/>
            <path class="cls-117" d="M157.18,281.69v-.16h0v.16h0Z"/>
            <path class="cls-117" d="M157.19,281.26v.07h0v-.07h0Z"/>
            <path class="cls-102" d="M154.42,282.2h-1.69s.04,0,.06,0h1.57s.04,0,.06,0Z"/>
            <path class="cls-42" d="M153.78,283.54h0s-.01,0-.02,0h-1.02s0-.01,0-.01c0,0,.02,0,.03,0h1Z"/>
            <path class="cls-148" d="M152.72,283.46s0,.05,0,.07c0-.03,0-.05,0-.07Z"/>
            <path class="cls-148" d="M152.69,283.42h.03s0,0,0,.01c-.01,0-.02,0-.02,0h0Z"/>
            <path class="cls-64" d="M153.77,283.54h-1.02s.04,0,.06,0h.84c.07,0,.1-.03.12-.09v.1h0Z"/>
            <path class="cls-121" d="M153.7,283.4s.02,0,0,0c-.01,0-.02,0-.04,0h-.85s-.03,0-.04,0h0s.02-.01.04-.01h.84s.03,0,.04,0h0Z"/>
            <path class="cls-129" d="M152.78,283.41h.93s-.04,0-.05,0h-.82s-.04,0-.05,0h0Z"/>
            <path class="cls-83" d="M153.7,283.4h-.92s.04,0,.05,0h.81s.04,0,.05,0h0Z"/>
            <path class="cls-75" d="M152.75,282.22h1.6s-.04,0-.07,0h-1.51s-.02,0-.03,0Z"/>
          </g>
        </g>
      </g>
      <g id="Layer_1-2-2" data-name="Layer 1-2">
        <g>
          <path class="cls-6" d="M154.06,0h-10.31c-.35,0-.64.29-.64.64v2.74l5.8,1.69,5.8-1.69V.64c0-.35-.29-.64-.64-.64h0Z"/>
          <path class="cls-88" d="M154.7,3.38h-11.61v3.38l5.8,1.69,5.8-1.69v-3.38Z"/>
          <path class="cls-35" d="M154.7,6.77h-11.61v3.38l5.8,1.69,5.8-1.69s0-3.38,0-3.38Z"/>
          <path class="cls-23" d="M154.7,10.15h-11.61v2.74c0,.35.29.64.64.64h10.31c.35,0,.64-.29.64-.64v-2.74h0Z"/>
          <path class="cls-62" d="M147.29,2.42h-4.19v9.19h4.19c.35,0,.64-.29.64-.64V3.06c0-.35-.29-.64-.64-.64h0Z"/>
          <g class="cls-51">
            <path d="M146.81,2.9h-3.71v9.19h3.71c.35,0,.64-.29.64-.64V3.55c0-.35-.29-.64-.64-.64h0ZM146.81,2.9h-3.71v8.22h3.71c.35,0,.64-.29.64-.64V3.55c0-.35-.29-.64-.64-.64h0ZM146.32,2.9h-3.22v8.22h3.22c.35,0,.64-.29.64-.64V3.55c0-.35-.29-.64-.64-.64h0Z"/>
          </g>
          <path class="cls-35" d="M139.88,2.9h6.45c.35,0,.64.29.64.64v6.45c0,.35-.29.64-.64.64h-6.45c-.35,0-.64-.29-.64-.64V3.55c0-.35.29-.64.64-.64h0Z"/>
          <path class="cls-40" d="M145.01,9.19h-.87l-1.01-3.34-1.06,3.34h-.87l-.97-4.84h.87l.68,3.38,1.01-3.29h.73l.97,3.29.68-3.38h.82s-.97,4.84-.97,4.84Z"/>
        </g>
      </g>
      <g id="Layer_1-2-3" data-name="Layer 1-2">
        <g>
          <path class="cls-17" d="M290.24,139.18h-5.16c-.35,0-.64.29-.64.64v2.74l5.8,3.38,2.9,1.22,2.9-1.22v-3.38s-5.8-3.38-5.8-3.38Z"/>
          <path class="cls-66" d="M284.43,142.56h5.8v3.38h-5.8s0-3.38,0-3.38Z"/>
          <path class="cls-46" d="M295.4,139.18h-5.16v3.38h5.8v-2.74c0-.35-.29-.64-.64-.64h0Z"/>
          <path class="cls-108" d="M290.24,145.95h-5.8v6.12c0,.35.29.64.64.64h10.32c.35,0,.64-.29.64-.64v-2.74l-5.8-3.38h0Z"/>
          <path class="cls-66" d="M290.24,145.95h5.8v3.38h-5.8v-3.38Z"/>
          <g>
            <path class="cls-61" d="M288.63,141.59h-4.19v9.19h4.19c.35,0,.64-.29.64-.64v-7.9c0-.35-.29-.64-.64-.64h0Z"/>
            <g>
              <path class="cls-52" d="M288.15,142.08h-3.71v9.19h3.71c.35,0,.64-.29.64-.64v-7.9c0-.35-.29-.64-.64-.64h0Z"/>
              <path class="cls-52" d="M288.15,142.08h-3.71v8.22h3.71c.35,0,.64-.29.64-.64v-6.93c0-.35-.29-.64-.64-.64h0Z"/>
              <path class="cls-52" d="M287.66,142.08h-3.22v8.22h3.22c.35,0,.64-.29.64-.64v-6.93c0-.35-.29-.64-.64-.64h0Z"/>
            </g>
            <path class="cls-67" d="M281.21,142.08h6.45c.35,0,.64.29.64.64v6.45c0,.35-.29.64-.64.64h-6.45c-.35,0-.64-.29-.64-.64v-6.45c0-.35.29-.64.64-.64h0Z"/>
            <path class="cls-40" d="M282.28,148.36l1.56-2.43-1.43-2.41h1.15l.78,1.54c.07.15.12.25.15.33h0c.05-.12.11-.23.16-.34l.84-1.53h1.06l-1.47,2.4,1.51,2.44h-1.13l-.91-1.69c-.04-.07-.08-.15-.11-.23h-.01c-.03.08-.06.15-.1.22l-.93,1.7h-1.14Z"/>
          </g>
          <path class="cls-57" d="M280.57,138.21h15.48v15.48h-15.48v-15.48Z"/>
        </g>
      </g>
      <g id="Layer_1-2-4" data-name="Layer 1-2">
        <g>
          <path class="cls-48" d="M8.71,139.44c-3.71,0-6.76,3.06-6.77,6.77l8.58,1.81-1.81-8.58Z"/>
          <path class="cls-20" d="M8.71,139.44c3.71,0,6.76,3.06,6.77,6.77l-3.38,2.3-3.38-2.3v-6.77h0Z"/>
          <path class="cls-103" d="M8.71,152.99c3.71,0,6.76-3.06,6.77-6.77H1.93c0,3.71,3.06,6.76,6.77,6.77Z"/>
          <path class="cls-62" d="M8.06,141.86H3.53c-2.28,2.69-2.08,6.74.45,9.19h4.08c.35,0,.64-.29.64-.64v-7.9c0-.35-.29-.64-.64-.64h0Z"/>
          <g class="cls-51">
            <path d="M7.57,142.34H3.16c-2.06,2.92-1.45,7,1.37,9.19h3.04c.35,0,.64-.29.64-.64v-7.9c0-.35-.29-.64-.64-.64h0ZM7.57,142.34H3.16c-1.76,2.5-1.61,5.89.37,8.22h4.05c.35,0,.64-.29.64-.64v-6.93c0-.35-.29-.64-.64-.64h0ZM7.09,142.34h-3.93c-1.76,2.5-1.61,5.89.37,8.22h3.56c.35,0,.64-.29.64-.64v-6.93c0-.35-.29-.64-.64-.64h0Z"/>
          </g>
          <path class="cls-56" d="M.64,142.34h6.45c.35,0,.64.29.64.64v6.45c0,.35-.29.64-.64.64H.64c-.35,0-.64-.29-.64-.64v-6.44c0-.35.29-.64.64-.64h0Z"/>
          <path class="cls-47" d="M3.87,143.79c.47-.03.95.11,1.33.39.32.29.49.7.46,1.13,0,.27-.08.54-.23.77-.15.25-.38.45-.65.57-.31.14-.64.21-.98.21h-.92v1.77h-.95v-4.84s1.93,0,1.93,0ZM2.88,146.06h.82c.26.02.52-.06.72-.22.16-.11.26-.3.24-.5,0-.53-.31-.8-.93-.8h-.84v1.51h0Z"/>
        </g>
      </g>
      <circle class="cls-35" cx="148.52" cy="33.43" r="2.69"/>
      <circle class="cls-17" cx="224.61" cy="146.21" r="2.69"/>
      <circle class="cls-39" cx="148.52" cy="258.47" r="2.69"/>
      <circle class="cls-48" cx="45.8" cy="146.21" r="2.69"/>
      <polygon class="cls-90" points="45.27 146.21 148.52 33.43 224.61 146.21 148.52 258.47 45.27 146.21"/>
    </g>
  </g>
</svg>