<?xml version="1.0" encoding="UTF-8"?>
<svg id="Layer_2" data-name="Layer 2" xmlns="http://www.w3.org/2000/svg" viewBox="0 0 32.98 28.85">
  <defs>
    <style>
      .cls-1 {
        fill: #51a1d8;
      }

      .cls-2 {
        fill: #21438d;
      }

      .cls-3 {
        fill: #2e5daa;
      }

      .cls-4 {
        fill: #fff;
      }

      .cls-5 {
        fill: #3c7abd;
      }

      .cls-6 {
        opacity: .2;
      }

      .cls-7 {
        opacity: .1;
      }
    </style>
  </defs>
  <g id="Layer_1-2" data-name="Layer 1">
    <g>
      <path class="cls-1" d="M31.6,0H9.62c-.75,0-1.37.62-1.37,1.37v5.84l12.37,3.61,12.37-3.61V1.37c0-.75-.62-1.37-1.37-1.37h0Z"/>
      <path class="cls-5" d="M32.98,7.21H8.24v7.21l12.37,3.61,12.37-3.61v-7.21Z"/>
      <path class="cls-3" d="M32.98,14.43H8.24v7.21l12.37,3.61,12.37-3.61v-7.21Z"/>
      <path class="cls-2" d="M32.98,21.64H8.24v5.84c0,.75.62,1.37,1.37,1.37h21.98c.75,0,1.37-.62,1.37-1.37v-5.84Z"/>
      <path class="cls-7" d="M17.18,5.15h-8.93v19.58h8.93c.75,0,1.37-.62,1.37-1.37V6.53c0-.75-.62-1.37-1.37-1.37h0Z"/>
      <g class="cls-6">
        <path d="M16.15,6.18h-7.9v19.58h7.9c.75,0,1.37-.62,1.37-1.37V7.56c0-.75-.62-1.37-1.37-1.37h0ZM16.15,6.18h-7.9v17.52h7.9c.75,0,1.37-.62,1.37-1.37V7.56c0-.75-.62-1.37-1.37-1.37h0ZM15.11,6.18h-6.87v17.52h6.87c.75,0,1.37-.62,1.37-1.37V7.56c0-.75-.62-1.37-1.37-1.37h0Z"/>
      </g>
      <path class="cls-3" d="M1.37,6.18h13.74c.75,0,1.37.62,1.37,1.37v13.74c0,.75-.62,1.37-1.37,1.37H1.37c-.75,0-1.37-.62-1.37-1.37V7.56c0-.75.62-1.37,1.37-1.37Z"/>
      <path class="cls-4" d="M12.31,19.58h-1.85l-2.16-7.11-2.27,7.11h-1.85l-2.06-10.31h1.85l1.44,7.21,2.16-7.01h1.55l2.06,7.01,1.44-7.21h1.75l-2.06,10.31Z"/>
    </g>
  </g>
</svg>