<?xml version="1.0" encoding="UTF-8"?>
<svg id="Layer_2" data-name="Layer 2" xmlns="http://www.w3.org/2000/svg" viewBox="0 0 47.15 45.84">
  <defs>
    <style>
      .cls-1 {
        fill: #ca73ae;
      }

      .cls-2 {
        fill: #460436;
      }
    </style>
  </defs>
  <g id="Layer_1-2" data-name="Layer 1">
    <g id="Layer_2-2" data-name="Layer 2">
      <g id="Surfaces">
        <g id="UI_UX_Surface" data-name="UI UX Surface">
          <g id="Outline_no_shadow" data-name="Outline no shadow">
            <path class="cls-2" d="M8.35,0h30.45c4.62,0,8.35,3.72,8.35,8.33v29.19c0,4.6-3.73,8.33-8.35,8.33H8.35c-4.62,0-8.35-3.72-8.35-8.33V8.33C0,3.72,3.73,0,8.35,0Z"/>
          </g>
        </g>
      </g>
      <g id="Outlined_Mnemonics_Logos" data-name="Outlined Mnemonics Logos">
        <g id="Xd">
          <path class="cls-1" d="M24.79,12.05l-5.89,9.7,6.29,10.28c.04.08.06.16.04.24s-.1.02-.22.04h-4.5c-.31,0-.53-.02-.67-.22-.41-.82-.84-1.63-1.26-2.45-.41-.8-.86-1.63-1.34-2.47s-.94-1.68-1.41-2.55h-.04c-.41.84-.86,1.68-1.32,2.53-.45.84-.9,1.68-1.34,2.51-.45.82-.9,1.67-1.36,2.47-.08.2-.24.22-.45.22h-4.32c-.08,0-.14.04-.14-.06-.02-.08,0-.16.04-.22l6.11-9.99-5.95-10.05c-.06-.08-.08-.16-.04-.2.04-.06.12-.08.2-.08h4.46c.1,0,.2.02.28.04.08.04.14.1.2.18.37.84.81,1.68,1.26,2.53.47.84.92,1.67,1.41,2.49.47.82.9,1.65,1.32,2.49h.04c.41-.86.84-1.7,1.28-2.53.43-.82.88-1.65,1.34-2.47s.88-1.67,1.32-2.47c.02-.08.06-.16.12-.2.08-.04.16-.06.26-.04h4.15c.1-.02.2.04.22.14.02.02-.02.1-.06.14h0Z"/>
          <path class="cls-1" d="M33.87,32.71c-1.45.02-2.91-.27-4.22-.88-1.24-.57-2.26-1.51-2.97-2.66-.73-1.19-1.08-2.68-1.08-4.47-.02-1.45.35-2.88,1.08-4.13.75-1.27,1.83-2.33,3.12-3.04,1.38-.76,3.03-1.14,4.97-1.14.1,0,.24,0,.41.02.18.02.37.02.61.04v-6.19c0-.14.06-.22.2-.22h3.99c.1-.02.18.06.2.14v18.69c0,.35.02.74.04,1.18.04.41.06.8.08,1.14,0,.14-.06.25-.2.31-1.02.43-2.1.74-3.2.94-1,.18-2,.27-3.03.27ZM35.79,28.8v-8.62c-.18-.04-.35-.08-.53-.1-.22-.02-.43-.04-.65-.04-.77,0-1.53.16-2.22.51-.67.33-1.24.82-1.67,1.45-.43.63-.65,1.47-.65,2.49-.02.69.1,1.37.33,2.02.2.53.49,1,.88,1.39.37.35.83.63,1.34.78.53.18,1.08.25,1.63.25.29,0,.57-.02.83-.04.26.02.47-.02.71-.1Z"/>
        </g>
      </g>
    </g>
  </g>
</svg>