<?xml version="1.0" encoding="UTF-8"?>
<svg id="Layer_2" xmlns="http://www.w3.org/2000/svg" version="1.1" viewBox="0 0 272 239.1">
  <!-- Generator: Adobe Illustrator 29.6.0, SVG Export Plug-In . SVG Version: 2.1.1 Build 207)  -->
  <defs>
    <style>
      .st0 {
        fill: #fff;
      }
    </style>
  </defs>
  <g id="Layer_1-2">
    <g>
      <path class="st0" d="M8,191.2h192.3c4.4,0,8-3.6,8-8V39.8c0-4.4-3.6-8-8-8H8c-4.4,0-8,3.6-8,8v143.4c0,4.4,3.6,8,8,8Z"/>
      <path class="st0" d="M80.2,207.2v8c0,4.4-3.6,8-8,8h-15.9c-4.4,0-8,3.6-8,8s3.6,8,8,8h96.2c4.4,0,8-3.6,8-8s-3.6-8-8-8h-16.5c-4.4,0-8-3.6-8-8v-8h-47.8Z"/>
      <path class="st0" d="M264,0h-79.7c-4.4,0-8,3.6-8,8v8h23.9c13.2,0,23.9,10.7,23.9,23.9v143.4c0,13.2-10.7,23.9-23.9,23.9h-23.9v23.9c0,4.4,3.6,8,8,8h79.7c4.4,0,8-3.6,8-8V8c0-4.4-3.6-8-8-8ZM248.1,199.2c-4.4,0-8-3.6-8-8s3.6-8,8-8,8,3.6,8,8-3.6,8-8,8ZM248.1,167.3c-4.4,0-8-3.6-8-8s3.6-8,8-8,8,3.6,8,8-3.6,8-8,8Z"/>
    </g>
  </g>
</svg>