<?xml version="1.0" encoding="UTF-8"?>
<svg id="Layer_2" xmlns="http://www.w3.org/2000/svg" version="1.1" viewBox="0 0 56.7 75.6">
  <!-- Generator: Adobe Illustrator 29.6.0, SVG Export Plug-In . SVG Version: 2.1.1 Build 207)  -->
  <defs>
    <style>
      .st0 {
        fill: #fff;
      }
    </style>
  </defs>
  <g id="Layer_1-2">
    <g>
      <path class="st0" d="M55.4,24c-6.3-5-12.5-9.9-18.8-14.8-2.7-2.1-4-4.8-3.5-8.2,0-.9-.4-1.1-1.3-.9-2.2.7-4,1.9-5,3.9-1.4,2.8-3.7,3.9-6.5,3.8-4.2-.2-6.9,2.1-9.1,5.3-2.5,3.4-3.7,7.4-4.6,11.4-1,4.3-1.5,8.6-1.7,13-.2,3.3,0,6.6-.2,9.9v9.2h41.6v-6.7s.3-2.8-1.7-4.9c-2.1-2.1-4.3-4-4.3-4-1.1-.9-2-1.9-2.9-2.9l-7.7-9.9c.5.4.9.8,1.4,1.1,2.4,1.8,4.9,2.6,7.8,1.8,1.7-.4,3.4-.2,4.9.8.8.6,1.8,1,2.7,1.5,2.2,1.1,4.9.6,6.5-1.3,1-1.2,1.9-2.3,2.9-3.5,1.2-1.5,1-3.6-.5-4.8h0Z"/>
      <path class="st0" d="M51.7,72.2l-4.7-9.5c-.4-.8-1.2-1.3-2.1-1.3H7.1c-.9,0-1.7.5-2.1,1.3L.2,72.2c-.4.7-.3,1.6,0,2.3.4.7,1.2,1.1,2,1.1h47.2c.8,0,1.6-.4,2-1.1.4-.7.5-1.6.1-2.3Z"/>
    </g>
  </g>
</svg>