<?xml version="1.0" encoding="UTF-8"?>
<svg id="Layer_2" xmlns="http://www.w3.org/2000/svg" version="1.1" viewBox="0 0 90.7 75.6">
  <!-- Generator: Adobe Illustrator 29.6.0, SVG Export Plug-In . SVG Version: 2.1.1 Build 207)  -->
  <defs>
    <style>
      .st0 {
        fill: #fff;
      }
    </style>
  </defs>
  <g id="Layer_1-2">
    <path class="st0" d="M90.2.7c-.4-.5-1.2-.8-1.8-.6-.2,0-17.1,3.7-43,3.7S2.5,0,2.3,0C1.6-.1.9.1.4.7c-.4.5-.6,1.3-.3,1.9l3.8,9.5c.3.7.9,1.1,1.6,1.2,0,0,3.8.3,9.5.7l-.5,8.7h-5.1c-1,0-1.9.9-1.9,1.9v7.6c0,1,.8,1.9,1.9,1.9h4.4l-2.5,39.6c0,.5.1,1,.5,1.4.4.4.9.6,1.4.6h7.6c1,0,1.8-.8,1.9-1.8l2.5-39.8h40.4l2.5,39.8c0,1,.9,1.8,1.9,1.8h7.6c.5,0,1-.2,1.4-.6s.5-.9.5-1.4l-2.5-39.6h4.4c1,0,1.9-.8,1.9-1.9v-7.6c0-1-.8-1.9-1.9-1.9h-5.1l-.5-8.7c5.7-.4,9.4-.7,9.5-.7.7,0,1.3-.5,1.6-1.2l3.8-9.4c.3-.6.1-1.4-.3-1.9h0ZM39.7,22.7h-13.8l.5-8.1c4.2.2,8.8.4,13.3.4v7.6h0ZM51,22.7v-7.6c4.6,0,9.1-.2,13.3-.4l.5,8.1h-13.8Z"/>
  </g>
</svg>