<?xml version="1.0" encoding="UTF-8"?>
<svg id="Layer_2" xmlns="http://www.w3.org/2000/svg" version="1.1" viewBox="0 0 91.9 70.2">
  <!-- Generator: Adobe Illustrator 29.6.0, SVG Export Plug-In . SVG Version: 2.1.1 Build 207)  -->
  <defs>
    <style>
      .st0 {
        fill: #fff;
      }
    </style>
  </defs>
  <g id="Layer_1-2">
    <g>
      <path class="st0" d="M14.1,0h0c-.9,0-1.7.3-2.3,1-.6.6-1,1.5-1,2.3v49.3c0,1.8,1.5,3.3,3.3,3.3,7.7,0,20.5,1.6,29.3,10.9V15.2c0-.6-.2-1.2-.5-1.7C35.7,1.8,21.7,0,14.1,0Z"/>
      <path class="st0" d="M81.2,52.6V3.3c0-.9-.3-1.7-1-2.3-.6-.6-1.4-1-2.3-1h0c-7.7,0-21.6,1.8-28.9,13.5-.3.5-.5,1.1-.5,1.7v51.6c8.9-9.3,21.7-10.9,29.3-10.9,1.8,0,3.3-1.5,3.3-3.3h0Z"/>
      <path class="st0" d="M88.7,11.4h-2.4v41.3c0,4.6-3.8,8.4-8.4,8.4-6.5,0-17.2,1.3-24.8,8.5,13.1-3.2,27-1.1,34.8.7,1,.2,2,0,2.8-.6.8-.6,1.2-1.6,1.2-2.6V14.7c0-1.8-1.5-3.3-3.3-3.3Z"/>
      <path class="st0" d="M5.7,52.6V11.4h-2.4C1.5,11.4,0,12.9,0,14.7v52.3C0,68,.4,68.9,1.2,69.5c.8.6,1.8.9,2.8.6,7.9-1.8,21.7-3.9,34.8-.7-7.6-7.2-18.3-8.5-24.8-8.5-4.6,0-8.4-3.8-8.4-8.4Z"/>
    </g>
  </g>
</svg>