<?xml version="1.0" encoding="UTF-8"?>
<svg id="Layer_2" xmlns="http://www.w3.org/2000/svg" version="1.1" viewBox="0 0 53.4 75">
  <!-- Generator: Adobe Illustrator 29.6.0, SVG Export Plug-In . SVG Version: 2.1.1 Build 207)  -->
  <defs>
    <style>
      .st0 {
        fill: #fff;
      }
    </style>
  </defs>
  <g id="Layer_1-2">
    <g>
      <path class="st0" d="M9.3,33.7c-2.9,0-5.3,2.1-5.6,5L1,60.8c-.2,1.5.4,3,1.3,4.2,1,1.2,2.5,1.8,4,1.8h40.7c1.5,0,3-.7,4-1.8,1-1.2,1.5-2.7,1.3-4.2l-2.7-22c-.3-2.8-2.8-5-5.6-5h-12.3v17.1c0,1.6-1.9,2.6-4.9,2.6s-4.9-.9-4.9-2.6v-17.1h-12.4ZM43.4,52.6c3,0,5.6,2.6,5.6,5.6s-2.6,5.6-5.6,5.6-5.6-2.6-5.6-5.6,2.5-5.6,5.6-5.6Z"/>
      <path class="st0" d="M26.6,0c-6.7,0-12.1,5.4-12.1,12.1s5.4,12,12.1,12,11.9-5.4,11.9-11.9C38.7,5.4,33.3,0,26.6,0ZM36.1,11.9c0,5.2-4.2,9.5-9.5,9.5s-1.3-.6-1.3-1.3.6-1.3,1.3-1.3c3.9,0,6.9-3.2,6.9-6.9s.6-1.3,1.3-1.3,1.3.7,1.3,1.3h0Z"/>
      <path class="st0" d="M43.4,61.4c1.8,0,3.2-1.4,3.2-3.2s-1.4-3.2-3.2-3.2-3.2,1.4-3.2,3.2,1.4,3.2,3.2,3.2Z"/>
      <path class="st0" d="M24.3,26.2v24.2c.8.5,3.9.5,4.8,0v-24.2c-.8.1-1.5.2-2.3.2s-1.8-.1-2.5-.2h0Z"/>
      <path class="st0" d="M.3,66.5l-.2,2.1c-.2,1.6.3,3.2,1.4,4.4,1.1,1.2,2.6,1.9,4.2,1.9h42.1c1.6,0,3.2-.7,4.2-1.9s1.5-2.8,1.4-4.4l-.2-2.1c-.1.1-2.3,2.8-6,2.8H6.4c-4.1,0-5.7-2.8-6.1-2.8Z"/>
    </g>
  </g>
</svg>