<?xml version="1.0" encoding="UTF-8"?>
<svg id="Layer_2" xmlns="http://www.w3.org/2000/svg" version="1.1" viewBox="0 0 174.2 224">
  <!-- Generator: Adobe Illustrator 29.6.0, SVG Export Plug-In . SVG Version: 2.1.1 Build 207)  -->
  <defs>
    <style>
      .st0 {
        fill: #fff;
      }
    </style>
  </defs>
  <g id="Layer_1-2">
    <path class="st0" d="M113.4,181.1c0,2.3-.8,4.4-2.3,6H33.5c-5.1-5.5-.9-15.2,6.8-15h64.1c5,0,9.1,4,9.1,9.1h0ZM33.5,193.2c-5.1,5.5-.9,15.2,6.8,15h64.1c7.6.2,11.9-9.5,6.7-15H33.5ZM59,224h26.7c5.7,0,10.4-4.2,11.3-9.6h-49.3c.9,5.4,5.6,9.6,11.3,9.6ZM116.7,134c-9.4,8.2-15.2,19.7-16.3,32h-19.4V43c0-2.6,2.2-4.7,4.8-4.4,48,4.3,66.8,64.6,31,95.4h0ZM125.2,92.9c.1-18.4-12-35.8-29.5-41.8-1.8-.7-3.9.3-4.5,2.2-.7,1.8.3,3.8,2.1,4.5,14.7,5,24.9,19.6,24.8,35.1,0,4.6,7,4.6,7.1,0h0ZM35.8,145.1c2.3-2.4,7.5-5.4,9.4-1.1.7,1.8-.2,3.9-2.1,4.6-7.9,3.6-3.8,14.3,1.1,17.4h15.8c3.4-2.5,5.6-6.4,5.6-10.9V55.5c0-14.4-19.8-18.6-25.7-5.5,4.7.9,18.8,12.9,8.7,15.1-3.3-.1-4.1-4.6-6.7-6.1-13.2-10.5-32,3.9-26.3,19.1,6-1.1,13.8,1.8,17.8,6.9,2,2.2.2,5.9-2.7,5.8-1,0-2-.4-2.7-1.3-.9-1.1-3-3.1-6.2-4-2.3-.8-5.4-.6-7.3,0-18.2,5.3-19.7,31.2-2.3,38.7,2.4-3.8,16.2-14.4,18.7-7,.5,1.9-.7,3.8-2.5,4.3-20,5-17.3,33.1,3.4,33.6,0-3.4,1.1-7.2,4-10.1h0ZM128.2,49.7c.9,0,1.8-.3,2.5-1l16.3-16.3c3.2-3.3-1.7-8.2-5-5l-16.3,16.3c-2.3,2.1-.6,6.1,2.5,6h0ZM170.8,89.9h-23c-4.7,0-4.6,7,0,7h23c4.7,0,4.6-6.9,0-7ZM130.6,138.2c-3.3-3.2-8.2,1.7-5,5l16.3,16.3c3.3,3.2,8.2-1.7,5-5,0,0-16.3-16.3-16.3-16.3ZM80.9,30.1c1.9,0,3.5-1.6,3.5-3.5V3.5c0-1.9-1.6-3.5-3.5-3.5s-3.5,1.6-3.5,3.5v23c0,2,1.6,3.6,3.5,3.6Z"/>
  </g>
</svg>